<?xml version="1.0" encoding="UTF-8"?>
<svg version="1.1" xmlns="http://www.w3.org/2000/svg" width="512" height="512">
<path d="M0 0 C0.75502808 0.11783844 1.51005615 0.23567688 2.28796387 0.35708618 C10.56762681 1.66476828 18.78238908 3.19421575 26.97265625 4.98046875 C27.71702942 5.14096207 28.46140259 5.30145538 29.22833252 5.46681213 C38.1087013 7.45996411 44.68607077 10.59988957 50.77734375 17.484375 C55.26448478 24.95897597 55.70678592 32.51460473 55.68359375 41.05859375 C55.6888356 42.19853287 55.69407745 43.33847198 55.69947815 44.51295471 C55.70587245 46.91235544 55.70459517 49.31178763 55.69604492 51.71118164 C55.68753321 55.36076216 55.71633838 59.00877671 55.74804688 62.65820312 C55.74965921 64.99999954 55.74908075 67.34179869 55.74609375 69.68359375 C55.75732773 70.76305771 55.76856171 71.84252167 55.78013611 72.95469666 C55.69604985 82.19872385 53.51430117 90.48746974 47.08984375 97.40234375 C42.20628122 101.47716344 36.48421138 103.89290843 30.25 104.9375 C30.23582031 105.9996875 30.22164063 107.061875 30.20703125 108.15625 C29.78516905 123.34328915 29.78516905 123.34328915 24.25 128.9375 C18.44015386 133.46917999 13.99224085 134.09866998 6.8125 134.0625 C6.04873047 134.06636719 5.28496094 134.07023438 4.49804688 134.07421875 C3.75748047 134.07292969 3.01691406 134.07164062 2.25390625 134.0703125 C1.58174072 134.06918457 0.9095752 134.06805664 0.21704102 134.06689453 C-1.87167459 133.92949609 -3.73830925 133.50280559 -5.75 132.9375 C-6.4925 134.7009375 -6.4925 134.7009375 -7.25 136.5 C-10.12419956 142.23820693 -14.47933098 146.45308138 -20.33203125 149.109375 C-25.09904642 150.26435468 -29.67396638 150.30592497 -34.5625 150.3125 C-35.50931641 150.33699219 -36.45613281 150.36148438 -37.43164062 150.38671875 C-44.06996722 150.41413097 -48.92750295 149.12259446 -54.75 145.9375 C-54.915 146.68 -55.08 147.4225 -55.25 148.1875 C-57.4570718 152.23379829 -60.44755002 153.49695822 -64.75 154.9375 C-68.48333922 155.39586323 -72.13702541 155.2892471 -75.890625 155.15234375 C-78.03385191 155.11640153 -80.17708115 155.08059832 -82.3203125 155.04492188 C-85.67373952 154.96382238 -89.02679947 154.87424697 -92.37988281 154.7800293 C-95.63341016 154.69577177 -98.88644407 154.64162612 -102.140625 154.58984375 C-103.14482483 154.55148911 -104.14902466 154.51313446 -105.18365479 154.47361755 C-107.7987536 154.43644613 -110.18108253 154.44570142 -112.75 154.9375 C-115.22856961 157.20830438 -115.22856961 157.20830438 -116.75 159.9375 C-119.74582002 161.85037174 -122.08839524 162.18965166 -125.60693359 162.19628906 C-126.56828217 162.20259338 -127.52963074 162.20889771 -128.52011108 162.21539307 C-130.06863266 162.20932037 -130.06863266 162.20932037 -131.6484375 162.203125 C-133.25001205 162.20599518 -133.25001205 162.20599518 -134.88394165 162.20892334 C-137.14170569 162.2102838 -139.39947758 162.20659708 -141.65722656 162.19824219 C-145.10499771 162.18756196 -148.55224529 162.19813155 -152 162.2109375 C-154.19531365 162.20961547 -156.39062697 162.20705217 -158.5859375 162.203125 C-160.12838638 162.20919769 -160.12838638 162.20919769 -161.70199585 162.21539307 C-166.90198511 162.1815148 -170.79814574 161.60296007 -175.75 159.9375 C-177.08369917 160.60343449 -178.41698382 161.27019939 -179.75 161.9375 C-182.04414368 162.21165466 -182.04414368 162.21165466 -184.59106445 162.24389648 C-185.54918533 162.25988388 -186.50730621 162.27587128 -187.49446106 162.29234314 C-188.52367172 162.29770584 -189.55288239 162.30306854 -190.61328125 162.30859375 C-192.21129829 162.32213646 -192.21129829 162.32213646 -193.84159851 162.33595276 C-196.0951354 162.350455 -198.3487144 162.35934192 -200.60229492 162.36303711 C-204.03962705 162.37492092 -207.47515669 162.42409856 -210.91210938 162.47460938 C-213.10415793 162.48407535 -215.29621748 162.49130955 -217.48828125 162.49609375 C-218.51141922 162.51562607 -219.53455719 162.53515839 -220.58869934 162.55528259 C-227.29960537 162.51312879 -230.73883695 161.47789019 -235.75 156.9375 C-236.08 156.2775 -236.41 155.6175 -236.75 154.9375 C-237.33802399 154.94416183 -237.92604797 154.95082367 -238.53189087 154.95768738 C-244.66394573 155.02416884 -250.79589782 155.06935377 -256.92822266 155.10229492 C-259.21537435 155.11736116 -261.50249725 155.13781797 -263.78955078 155.16381836 C-267.08112707 155.20029606 -270.37232062 155.21724834 -273.6640625 155.23046875 C-275.19252304 155.25369453 -275.19252304 155.25369453 -276.75186157 155.27738953 C-283.49655253 155.27898061 -287.88645136 154.42426593 -293.125 149.875 C-294.75 147.9375 -294.75 147.9375 -294.75 145.9375 C-295.27062012 146.22117432 -295.79124023 146.50484863 -296.32763672 146.79711914 C-302.63446162 149.94914882 -307.88853044 150.52313992 -314.875 150.375 C-315.82503906 150.38208984 -316.77507812 150.38917969 -317.75390625 150.39648438 C-325.57939487 150.32593559 -331.1020766 148.86318659 -337.0625 143.5 C-337.71863281 142.92378906 -338.37476563 142.34757813 -339.05078125 141.75390625 C-341.741619 138.87749348 -342.75 136.89270818 -342.75 132.9375 C-343.40355469 133.09605469 -344.05710937 133.25460938 -344.73046875 133.41796875 C-352.29693143 134.71983102 -362.42475112 135.60257902 -369.5625 132.25 C-374.32064278 128.79801406 -376.90923802 125.49046531 -378.75 119.9375 C-379.03867792 117.30944158 -379.25404038 114.75839169 -379.375 112.125 C-379.41367187 111.43212891 -379.45234375 110.73925781 -379.4921875 110.02539062 C-379.58573568 108.32982985 -379.66892364 106.63370288 -379.75 104.9375 C-380.3790625 104.79054688 -381.008125 104.64359375 -381.65625 104.4921875 C-390.74425641 102.11069184 -396.82706247 98.25464536 -401.7421875 90.16015625 C-404.86099909 83.28184697 -405.07005134 76.94281757 -405.0859375 69.484375 C-405.0925943 68.38836975 -405.0992511 67.2923645 -405.10610962 66.16314697 C-405.11620616 63.85015534 -405.12092757 61.53713474 -405.12060547 59.22412109 C-405.12496866 55.71271921 -405.16129467 52.20258532 -405.19921875 48.69140625 C-405.20508975 46.43490009 -405.20905724 44.17838801 -405.2109375 41.921875 C-405.22530853 40.88504578 -405.23967957 39.84821655 -405.25448608 38.77996826 C-405.20314065 30.4552847 -403.3019203 23.35428514 -399.125 16.125 C-371.7653593 -9.07466907 -309.30611675 -6.62714954 -273.75 -9.0625 C-272.66020844 -9.1372757 -272.66020844 -9.1372757 -271.54840088 -9.21356201 C-181.42450876 -15.29914615 -89.34792465 -14.00985029 0 0 Z M-293.25 3.75 C-294.18463074 3.83364807 -295.11926147 3.91729614 -296.08221436 4.003479 C-319.73246615 6.13405649 -343.17922113 9.17049582 -366.4375 14 C-367.57203613 14.23315918 -368.70657227 14.46631836 -369.87548828 14.70654297 C-377.37905336 16.3570753 -385.1658922 18.17827215 -390.1875 24.4375 C-390.89712891 25.28828125 -390.89712891 25.28828125 -391.62109375 26.15625 C-393.68666335 29.41541865 -393.87812815 32.69683101 -393.91113281 36.48730469 C-393.92074036 37.38213562 -393.9303479 38.27696655 -393.94024658 39.19891357 C-393.94449646 40.15936584 -393.94874634 41.11981812 -393.953125 42.109375 C-393.95882507 43.10575989 -393.96452515 44.10214478 -393.97039795 45.12872314 C-393.97983811 47.23684633 -393.98637802 49.34498421 -393.99023438 51.453125 C-393.99992217 54.66172377 -394.03094796 57.86967696 -394.0625 61.078125 C-394.06903235 63.13020455 -394.07428191 65.18228866 -394.078125 67.234375 C-394.0904718 68.18673035 -394.1028186 69.13908569 -394.11553955 70.12030029 C-394.09155809 77.37155464 -393.15144659 83.10502453 -388.3125 88.8125 C-384.9784071 91.57735752 -383.10770453 92.9375 -378.75 92.9375 C-378.5540625 92.22464844 -378.358125 91.51179688 -378.15625 90.77734375 C-375.60615106 82.61043207 -372.22723369 77.99456067 -364.734375 73.8125 C-360.10013886 71.76905729 -355.58539666 71.1472624 -350.75 72.9375 C-348.0238367 74.67639403 -345.48091974 76.5280096 -342.94921875 78.5390625 C-342.22347656 79.00054687 -341.49773437 79.46203125 -340.75 79.9375 C-337.6195627 79.1424729 -337.6195627 79.1424729 -335.5 76.6875 C-330.04366813 71.23116813 -324.66942245 67.22517287 -316.66015625 66.8359375 C-307.61229423 67.24937232 -300.2011827 72.98256212 -293.75 78.9375 C-293.42 79.5975 -293.09 80.2575 -292.75 80.9375 C-292.09 80.9375 -291.43 80.9375 -290.75 80.9375 C-289.70760439 79.74407548 -288.71590275 78.50613796 -287.75 77.25 C-282.76042253 71.36271612 -276.36340276 68.09279632 -268.75 66.9375 C-258.80120189 66.12290042 -249.31289241 66.88739416 -241.03515625 72.9140625 C-235.2472067 77.94308659 -235.2472067 77.94308659 -233.75 80.9375 C-233.09 80.9375 -232.43 80.9375 -231.75 80.9375 C-230.73144374 79.74077063 -229.76021385 78.50357749 -228.8125 77.25 C-223.9544419 71.49381351 -217.10658401 68.36834836 -209.75 66.9375 C-198.20649885 65.97861492 -188.76847952 68.59046984 -179.75 75.9375 C-177.1875 78.8125 -177.1875 78.8125 -175.75 80.9375 C-172.63129347 80.22469321 -172.63129347 80.22469321 -171.1875 77.75 C-165.20694076 70.84935472 -157.09634616 67.55854917 -148.1953125 66.6875 C-138.28765876 66.23842788 -130.17357165 69.31912211 -122.40625 75.375 C-120.75 76.9375 -120.75 76.9375 -119.15625 79.125 C-118.6921875 79.723125 -118.228125 80.32125 -117.75 80.9375 C-117.09 80.9375 -116.43 80.9375 -115.75 80.9375 C-114.66280319 79.72689166 -113.62945376 78.46759456 -112.625 77.1875 C-109.09507441 73.04240065 -105.8015367 70.86093081 -100.75 68.9375 C-99.698125 68.525 -98.64625 68.1125 -97.5625 67.6875 C-87.6990196 65.7471432 -77.27725059 66.00078734 -68.49609375 71.296875 C-64.57496371 74.09871378 -61.68528791 77.09904657 -58.75 80.9375 C-58.09 80.9375 -57.43 80.9375 -56.75 80.9375 C-55.5911195 79.7786195 -54.43548812 78.61629947 -53.296875 77.4375 C-48.18419311 72.47974786 -41.72714893 67.1336438 -34.37109375 66.84375 C-25.52268105 67.38411108 -19.14521825 70.99908305 -12.75 76.9375 C-12.09 77.9275 -11.43 78.9175 -10.75 79.9375 C-7.97896542 78.61941939 -5.51982808 77.11909588 -3 75.375 C1.99413241 72.27900648 5.93533046 71.18582691 11.73046875 72.5 C18.24289256 74.70693333 22.58820939 78.10914995 26.25 83.9375 C27.52965607 86.88527916 28.49148572 89.81675553 29.25 92.9375 C33.23842143 92.36772551 36.04103726 91.40593288 39.25 88.9375 C42.81882414 84.00798706 44.35896724 79.38590925 44.41113281 73.37182617 C44.42554413 72.02473824 44.42554413 72.02473824 44.44024658 70.6504364 C44.44449646 69.68684708 44.44874634 68.72325775 44.453125 67.73046875 C44.45882507 66.73171219 44.46452515 65.73295563 44.47039795 64.70393372 C44.47983729 62.59161434 44.48637769 60.47928031 44.49023438 58.36694336 C44.49993264 55.14736021 44.5309635 51.92841758 44.5625 48.70898438 C44.56903126 46.65364961 44.57428125 44.5983103 44.578125 42.54296875 C44.5966452 41.1066938 44.5966452 41.1066938 44.61553955 39.6414032 C44.59240661 32.64613294 43.50425347 27.9666531 39.25 22.25 C30.87803918 15.79661354 19.67383749 14.65541318 9.5 13 C8.37501099 12.81248672 8.37501099 12.81248672 7.22729492 12.6211853 C-51.01137055 2.92567059 -109.42550538 -0.44554907 -168.41186523 -0.32324219 C-173.94366307 -0.31186992 -179.47526788 -0.31862626 -185.0070591 -0.33011913 C-221.14676894 -0.39377128 -257.24374578 0.4391676 -293.25 3.75 Z M-327.5703125 83.72265625 C-332.30659073 89.11103076 -332.92223719 93.20724178 -332.98828125 100.33203125 C-332.996353 101.15700607 -333.00442474 101.9819809 -333.01274109 102.83195496 C-333.02656573 104.57780872 -333.03729513 106.32368932 -333.04516602 108.06958008 C-333.06236972 110.72985467 -333.10626773 113.38888308 -333.15039062 116.04882812 C-333.16051904 117.74738672 -333.16903468 119.44595585 -333.17578125 121.14453125 C-333.19328934 121.93535599 -333.21079742 122.72618073 -333.22883606 123.54096985 C-333.20834323 128.79909137 -332.23449902 131.76887159 -328.75 135.9375 C-324.19980697 139.00548221 -320.04389218 139.4025234 -314.6875 139.3125 C-313.99333984 139.32410156 -313.29917969 139.33570313 -312.58398438 139.34765625 C-308.11746785 139.32220601 -305.30650512 138.64536728 -301.75 135.9375 C-297.20091484 130.88296093 -296.58049657 127.02303026 -296.51171875 120.41796875 C-296.503647 119.68177811 -296.49557526 118.94558746 -296.48725891 118.18708801 C-296.47343965 116.62955058 -296.46270785 115.07198313 -296.45483398 113.5144043 C-296.4433163 111.92674852 -296.42286753 110.3391314 -296.39331055 108.75170898 C-296.3505104 106.45269571 -296.33444872 104.15483161 -296.32421875 101.85546875 C-296.30671066 101.15213913 -296.28920258 100.44880951 -296.27116394 99.72416687 C-296.30045317 93.01078275 -299.4962074 88.91148682 -304.0625 84.3125 C-312.45679563 76.17093586 -319.01606797 75.33362245 -327.5703125 83.72265625 Z M-282.375 86.7421875 C-286.11196442 92.70859092 -286.07023591 98.66679756 -286.0859375 105.48046875 C-286.0925943 106.48588211 -286.0992511 107.49129547 -286.10610962 108.5271759 C-286.11620383 110.64431942 -286.12092764 112.76149455 -286.12060547 114.87866211 C-286.12499961 118.12471155 -286.1614111 121.36942334 -286.19921875 124.61523438 C-286.20508328 126.67447452 -286.2090551 128.73372111 -286.2109375 130.79296875 C-286.22530853 131.76485641 -286.23967957 132.73674408 -286.25448608 133.73808289 C-286.24833282 134.63944473 -286.24217957 135.54080658 -286.23583984 136.46948242 C-286.23868988 137.26190842 -286.24153992 138.05433441 -286.24447632 138.87077332 C-285.90545463 141.09438286 -285.90545463 141.09438286 -283.96780396 142.6914978 C-280.48092662 144.65048827 -276.86609135 144.38504839 -272.96875 144.37109375 C-272.11825073 144.3763356 -271.26775146 144.38157745 -270.39147949 144.38697815 C-268.59612112 144.39339191 -266.80072069 144.3920697 -265.00537109 144.38354492 C-262.25933057 144.37502894 -259.51536664 144.40381307 -256.76953125 144.43554688 C-255.02343812 144.43715888 -253.27734132 144.43658137 -251.53125 144.43359375 C-250.71136597 144.44482773 -249.89148193 144.45606171 -249.04675293 144.46763611 C-245.54913252 144.42489098 -243.31899106 144.25745039 -240.23657227 142.52416992 C-237.91717272 138.48836138 -238.15923412 134.63355627 -238.18359375 130.0546875 C-238.17739517 129.085242 -238.17119659 128.11579651 -238.16481018 127.11697388 C-238.15770875 125.06432091 -238.16089164 123.01161038 -238.17358398 120.95898438 C-238.18736092 117.84394683 -238.15349039 114.73196721 -238.11523438 111.6171875 C-238.11428223 109.61718677 -238.1161471 107.61718234 -238.12109375 105.6171875 C-238.10783554 104.6970285 -238.09457733 103.77686951 -238.08091736 102.8288269 C-238.17750855 95.99076015 -239.90139424 90.63005376 -243.75 84.9375 C-249.05587489 79.78769331 -254.56314494 76.97927647 -262 76.5625 C-270.64950561 76.82460623 -276.86589361 80.20012366 -282.375 86.7421875 Z M-221.24609375 84.19140625 C-225.91233635 89.60909571 -227.85581815 95.88329904 -227.91113281 102.93383789 C-227.92074036 103.92489029 -227.9303479 104.91594269 -227.94024658 105.93702698 C-227.94449646 107.00065964 -227.94874634 108.0642923 -227.953125 109.16015625 C-227.95882507 110.25718369 -227.96452515 111.35421112 -227.97039795 112.48448181 C-227.97983708 114.80190061 -227.98637761 117.11933277 -227.99023438 119.43676758 C-227.99997254 122.98998126 -228.03101983 126.54262436 -228.0625 130.09570312 C-228.06902701 132.34635073 -228.07427867 134.59700247 -228.078125 136.84765625 C-228.0904718 137.91331314 -228.1028186 138.97897003 -228.11553955 140.07691956 C-228.11253845 141.06481979 -228.10953735 142.05272003 -228.10644531 143.07055664 C-228.11009094 143.94007462 -228.11373657 144.80959259 -228.11749268 145.70545959 C-227.90888192 147.98884546 -227.90888192 147.98884546 -226.48799133 149.71841431 C-224.35003943 151.21804582 -223.18265893 151.31204315 -220.58569336 151.30981445 C-219.75150375 151.31604324 -218.91731415 151.32227203 -218.05784607 151.32868958 C-217.1609053 151.31947983 -216.26396454 151.31027008 -215.33984375 151.30078125 C-213.9549752 151.30152901 -213.9549752 151.30152901 -212.54212952 151.30229187 C-210.5911341 151.29995179 -208.64013564 151.29022717 -206.68920898 151.27368164 C-203.69552772 151.25006333 -200.70273527 151.25312432 -197.70898438 151.25976562 C-195.81509883 151.25418981 -193.92121706 151.24708054 -192.02734375 151.23828125 C-191.12837875 151.23919266 -190.22941376 151.24010406 -189.3032074 151.24104309 C-188.47216995 151.23151108 -187.64113251 151.22197906 -186.78491211 151.2121582 C-186.05227646 151.20755081 -185.31964081 151.20294342 -184.56480408 151.19819641 C-182.49945741 151.08654299 -182.49945741 151.08654299 -180.75 148.9375 C-180.42984334 146.60944623 -180.42984334 146.60944623 -180.45947266 143.88037109 C-180.44671295 142.82522308 -180.43395325 141.77007507 -180.42080688 140.68295288 C-180.41858124 139.53718781 -180.41635559 138.39142273 -180.4140625 137.2109375 C-180.4074057 136.03415436 -180.4007489 134.85737122 -180.39389038 133.64492798 C-180.38374616 131.14822964 -180.3790739 128.65150409 -180.37939453 126.15478516 C-180.37504154 122.34882217 -180.33879438 118.54403733 -180.30078125 114.73828125 C-180.29490935 112.31250396 -180.29094246 109.88672117 -180.2890625 107.4609375 C-180.27469147 106.32731781 -180.26032043 105.19369812 -180.24551392 104.02572632 C-180.29267261 95.79410363 -181.65950665 90.61268128 -187.0625 84.1875 C-197.79554726 75.20169299 -210.63520238 74.31909201 -221.24609375 84.19140625 Z M-161.625 83.3125 C-166.12218087 88.86784108 -168.86621444 92.98937474 -168.89526367 100.20336914 C-168.90164352 101.27780777 -168.90802338 102.3522464 -168.91459656 103.45924377 C-168.91570938 104.61866989 -168.9168222 105.77809601 -168.91796875 106.97265625 C-168.92129715 108.16225449 -168.92462555 109.35185272 -168.92805481 110.57749939 C-168.93312004 113.09341037 -168.93546326 115.60932807 -168.93530273 118.12524414 C-168.93749314 121.98790435 -168.95566416 125.85028083 -168.97460938 129.71289062 C-168.9775425 132.15364485 -168.97952784 134.59440044 -168.98046875 137.03515625 C-168.98765427 138.1966066 -168.99483978 139.35805695 -169.00224304 140.55470276 C-168.99916641 141.62598923 -168.99608978 142.6972757 -168.99291992 143.80102539 C-168.99434494 144.74683975 -168.99576996 145.69265411 -168.99723816 146.66712952 C-168.96811437 149.13698647 -168.96811437 149.13698647 -166.75 150.9375 C-164.87449642 151.24888879 -164.87449642 151.24888879 -162.71508789 151.2121582 C-161.46853172 151.22645622 -161.46853172 151.22645622 -160.1967926 151.24104309 C-158.84834511 151.23967598 -158.84834511 151.23967598 -157.47265625 151.23828125 C-156.55036728 151.24256638 -155.62807831 151.2468515 -154.67784119 151.25126648 C-152.72509584 151.25701559 -150.77232908 151.25750578 -148.81958008 151.25317383 C-145.82791665 151.25001627 -142.83724401 151.2734573 -139.84570312 151.29882812 C-137.95052208 151.30110126 -136.05533838 151.30180455 -134.16015625 151.30078125 C-133.26321548 151.309991 -132.36627472 151.31920074 -131.44215393 151.32868958 C-130.19086952 151.31934639 -130.19086952 151.31934639 -128.91430664 151.30981445 C-128.1808754 151.31044388 -127.44744415 151.3110733 -126.69178772 151.3117218 C-124.1198836 150.81606381 -123.26289993 150.06317946 -121.75 147.9375 C-121.29640684 145.68576456 -121.29640684 145.68576456 -121.36181641 143.14990234 C-121.35235992 142.17814056 -121.34290344 141.20637878 -121.3331604 140.20516968 C-121.33923309 139.15519806 -121.34530579 138.10522644 -121.3515625 137.0234375 C-121.34725723 135.39711899 -121.34725723 135.39711899 -121.34286499 133.73794556 C-121.34082164 131.43971231 -121.34637034 129.14146179 -121.35888672 126.84326172 C-121.37484288 123.34692738 -121.35909485 119.85176554 -121.33984375 116.35546875 C-121.34182796 114.11978913 -121.34567529 111.88411024 -121.3515625 109.6484375 C-121.34548981 108.61061127 -121.33941711 107.57278503 -121.3331604 106.50350952 C-121.41747795 97.67028127 -122.79813548 90.03793884 -129.02734375 83.44140625 C-138.87559857 74.84372347 -151.66234217 75.08247832 -161.625 83.3125 Z M-106.75 85.9375 C-110.68137674 92.35987309 -111.34425555 98.37851323 -111.28125 105.7734375 C-111.2850769 106.77460602 -111.28890381 107.77577454 -111.29284668 108.80728149 C-111.2955516 110.90652482 -111.28829073 113.00580268 -111.27148438 115.10498047 C-111.24991864 118.3246474 -111.27140424 121.54211729 -111.296875 124.76171875 C-111.29423412 126.80729659 -111.28911413 128.85287307 -111.28125 130.8984375 C-111.28934692 131.860914 -111.29744385 132.8233905 -111.30578613 133.81503296 C-111.29317749 134.70671173 -111.28056885 135.5983905 -111.26757812 136.51708984 C-111.26439575 137.30046722 -111.26121338 138.0838446 -111.25793457 138.89096069 C-110.90036339 141.09575588 -110.90036339 141.09575588 -108.96582031 142.68951416 C-105.47922851 144.65321906 -101.8661142 144.36480438 -97.96875 144.3359375 C-97.11825073 144.33880768 -96.26775146 144.34167786 -95.39147949 144.34463501 C-93.59610324 144.34667343 -91.80070467 144.34115906 -90.00537109 144.32861328 C-87.25958528 144.31255605 -84.51527137 144.32846903 -81.76953125 144.34765625 C-80.02343426 144.34567378 -78.27733818 144.34183002 -76.53125 144.3359375 C-75.30142395 144.34504654 -75.30142395 144.34504654 -74.04675293 144.3543396 C-69.59552285 144.29950222 -66.96114761 144.09075644 -63.75 140.9375 C-63.14818785 138.85839799 -63.14818785 138.85839799 -63.23242188 136.51708984 C-63.21981323 135.62541107 -63.20720459 134.7337323 -63.19421387 133.81503296 C-63.20231079 132.85255646 -63.21040771 131.89007996 -63.21875 130.8984375 C-63.2149231 129.90300934 -63.21109619 128.90758118 -63.20715332 127.88198853 C-63.20442937 125.77206412 -63.2118242 123.66210623 -63.22851562 121.55224609 C-63.24978285 118.34524594 -63.22880017 115.14052089 -63.203125 111.93359375 C-63.20577084 109.88020343 -63.21090109 107.82681452 -63.21875 105.7734375 C-63.21065308 104.82310638 -63.20255615 103.87277527 -63.19421387 102.89364624 C-63.2918186 95.84466651 -64.5913632 89.49117138 -69.39587402 84.08578491 C-74.48563094 79.2525299 -80.25862388 76.85080417 -87.25 76.5625 C-95.18685793 76.88979311 -101.48045016 80.00891446 -106.75 85.9375 Z M-45.80859375 84.7265625 C-50.20931818 88.88026082 -52.5210297 92.10803764 -53.0246582 98.33154297 C-53.06193475 103.46676192 -53.06193475 103.46676192 -53.06567383 108.60205078 C-53.06251937 110.79901004 -53.08597863 112.99461369 -53.11132812 115.19140625 C-53.11360215 116.60416499 -53.11430414 118.0169273 -53.11328125 119.4296875 C-53.11626221 120.70183105 -53.11924316 121.97397461 -53.12231445 123.28466797 C-52.5984064 128.42480719 -51.12652625 132.30287508 -47.75 136.3125 C-43.75979509 139.55454149 -39.33871844 139.18753757 -34.4375 139.25 C-33.69048828 139.27900391 -32.94347656 139.30800781 -32.17382812 139.33789062 C-26.89723942 139.39811508 -23.87400386 138.5132611 -19.75 134.9375 C-16.25871485 130.47739623 -16.29669199 126.55803769 -16.31640625 121.12890625 C-16.3111644 120.28456528 -16.30592255 119.4402243 -16.30052185 118.57029724 C-16.29411501 116.78930762 -16.29542131 115.00827562 -16.30395508 113.22729492 C-16.31246213 110.51208636 -16.28369169 107.79898518 -16.25195312 105.08398438 C-16.25034077 103.34895896 -16.2509193 101.61392984 -16.25390625 99.87890625 C-16.24267227 99.07248184 -16.23143829 98.26605743 -16.21986389 97.43519592 C-16.29610161 91.22450192 -18.18708874 87.73340319 -22.42578125 83.109375 C-31.83982764 74.93106262 -37.01969201 77.08838983 -45.80859375 84.7265625 Z M-366.90478516 89.75415039 C-368.68529028 94.35353147 -368.11947769 99.50707991 -368.125 104.375 C-368.14949219 105.50744141 -368.17398438 106.63988281 -368.19921875 107.80664062 C-368.28182742 114.28960385 -368.28182742 114.28960385 -365.8515625 120.16015625 C-361.706036 123.66613126 -357.95326444 123.2645019 -352.6796875 123.2265625 C-348.93289983 122.85687945 -347.14773827 121.83132205 -344.75 118.9375 C-343.23479764 114.39189291 -343.48367498 109.88717994 -343.4375 105.125 C-343.39399414 103.64676758 -343.39399414 103.64676758 -343.34960938 102.13867188 C-343.29781238 96.20592424 -343.65016645 92.56987421 -347.75 87.9375 C-350.59224566 85.20334869 -353.46512136 83.25088503 -357.3125 82.3125 C-361.50531437 83.38758061 -364.59639481 86.12270588 -366.90478516 89.75415039 Z M0.5625 86.1875 C-0.20449219 86.79078125 -0.97148437 87.3940625 -1.76171875 88.015625 C-4.40838961 90.57390017 -5.60212779 92.64844868 -6.0246582 96.33178711 C-6.05291552 99.17996573 -6.07174185 102.02666122 -6.0625 104.875 C-6.07861328 105.86435547 -6.09472656 106.85371094 -6.11132812 107.87304688 C-6.17623862 114.93150202 -6.17623862 114.93150202 -2.75 120.9375 C0.70083995 123.23805997 2.12175728 123.20760256 6.1875 123.1875 C7.22777344 123.19265625 8.26804687 123.1978125 9.33984375 123.203125 C12.24014685 122.93839935 13.85051107 122.54789525 16.25 120.9375 C19.47440153 116.10089771 18.61882987 110.81077203 18.625 105.125 C18.64949219 103.94873047 18.67398437 102.77246094 18.69921875 101.56054688 C18.72122783 95.07153695 18.7179077 90.82141401 14.25 85.9375 C12.05639225 83.81465379 10.94728762 83.0191223 7.9140625 82.6640625 C4.57500972 83.00678053 3.15628825 84.09133157 0.5625 86.1875 Z " fill="#000000" transform="translate(430.75,100.0625)"/>
<path d="M0 0 C1.17111328 0.00966797 2.34222656 0.01933594 3.54882812 0.02929688 C12.14492461 0.1420808 12.14492461 0.1420808 15.62280273 0.88989258 C18.08394008 1.53117293 18.08394008 1.53117293 20.9375 0.3125 C23.06603826 0.21725133 25.19745771 0.18176881 27.328125 0.1796875 C28.59527344 0.17839844 29.86242187 0.17710937 31.16796875 0.17578125 C31.82845215 0.17787598 32.48893555 0.1799707 33.16943359 0.18212891 C35.16633519 0.18744367 37.16325627 0.18167181 39.16015625 0.17578125 C40.43246094 0.17707031 41.70476562 0.17835938 43.015625 0.1796875 C44.75440918 0.18137939 44.75440918 0.18137939 46.52832031 0.18310547 C49.9375 0.3125 49.9375 0.3125 53.68261719 0.88330078 C56.94092591 1.55443394 56.94092591 1.55443394 59.9375 0.3125 C64.4398239 0.1059873 68.9446806 0.12670096 73.45117188 0.12719727 C75.66556325 0.12502155 77.87944744 0.10688587 80.09375 0.08789062 C81.51562331 0.0849542 82.93749897 0.08297107 84.359375 0.08203125 C85.64424805 0.07792236 86.92912109 0.07381348 88.25292969 0.06958008 C91.9375 0.3125 91.9375 0.3125 95.59863281 1.4519043 C99.50943862 2.45991764 100.35837488 1.88572702 103.9375 0.3125 C106.82314071 0.12319568 109.60836608 0.03197268 112.4921875 0.046875 C113.72184738 0.04400482 113.72184738 0.04400482 114.97634888 0.04107666 C116.70607816 0.03971925 118.43581779 0.04338461 120.16552734 0.05175781 C122.79678564 0.06243623 125.42735695 0.05186178 128.05859375 0.0390625 C129.74479316 0.04038471 131.43099214 0.04294838 133.1171875 0.046875 C134.28627151 0.04080231 134.28627151 0.04080231 135.47897339 0.03460693 C139.21685559 0.0662749 141.99327677 0.32982051 145.61376953 1.45410156 C149.61722776 2.4880489 151.12287481 1.72199722 154.9375 0.3125 C157.78379348 0.1267998 160.5275973 0.03165588 163.37109375 0.046875 C164.56533714 0.04400482 164.56533714 0.04400482 165.78370667 0.04107666 C167.46038124 0.03972132 169.13706655 0.04337212 170.8137207 0.05175781 C173.36368688 0.06245255 175.91294635 0.05184787 178.46289062 0.0390625 C180.09895987 0.04038449 181.73502868 0.04294769 183.37109375 0.046875 C184.12547226 0.04282654 184.87985077 0.03877808 185.65708923 0.03460693 C189.35016006 0.06690431 192.07433327 0.35445897 195.66040039 1.45410156 C199.49722803 2.4591143 200.4346268 1.90103992 203.9375 0.3125 C207.34741211 0.05371094 207.34741211 0.05371094 211.21484375 0.046875 C211.90381241 0.04496155 212.59278107 0.0430481 213.30262756 0.04107666 C214.75408292 0.03972092 216.20555065 0.04337456 217.65698242 0.05175781 C219.86470124 0.06245012 222.07160341 0.05185074 224.27929688 0.0390625 C225.69531428 0.04038452 227.11133118 0.0429478 228.52734375 0.046875 C230.44341431 0.05025879 230.44341431 0.05025879 232.39819336 0.05371094 C235.9375 0.3125 235.9375 0.3125 239.15063477 1.45410156 C241.83401256 2.61271805 241.83401256 2.61271805 243.90258789 1.4519043 C244.90986938 0.88789917 244.90986938 0.88789917 245.9375 0.3125 C248.97436523 0.06958008 248.97436523 0.06958008 252.49609375 0.08203125 C253.76904297 0.08396484 255.04199219 0.08589844 256.35351562 0.08789062 C257.01391846 0.09409424 257.67432129 0.10029785 258.35473633 0.10668945 C260.36487572 0.12490824 262.37455236 0.12719914 264.38476562 0.12695312 C274.26765585 0.17194352 274.26765585 0.17194352 277.66821289 0.88549805 C280.09035402 1.5316625 280.09035402 1.5316625 282.9375 0.3125 C287.20362019 0.02561222 291.47532141 0.0347912 295.75 0 C296.92626953 -0.02900391 298.10253906 -0.05800781 299.31445312 -0.08789062 C310.3188255 -0.16875939 310.3188255 -0.16875939 314.9375 4.3125 C318.95500459 8.86110328 318.4893435 14.35378492 318.625 20.125 C318.65916016 21.10404297 318.69332031 22.08308594 318.72851562 23.09179688 C318.81069858 25.49858345 318.87994433 27.90501945 318.9375 30.3125 C319.60861816 30.49570801 320.27973633 30.67891602 320.97119141 30.86767578 C329.44672615 33.27586489 335.99619027 36.72406005 340.9375 44.3125 C345.27097668 52.5290203 346.09282257 60.21861339 346.10546875 69.39453125 C346.10879715 70.24875168 346.11212555 71.10297211 346.11555481 71.983078 C346.12059411 73.78241441 346.12296407 75.58176006 346.12280273 77.38110352 C346.12498514 80.10644243 346.14316169 82.83137334 346.16210938 85.55664062 C346.20556834 98.45198107 346.22915022 109.71456296 337.9375 120.3125 C331.57884161 126.43899642 324.30170359 129.38828578 315.63671875 130.55859375 C314.94075089 130.65448288 314.24478302 130.75037201 313.52772522 130.84916687 C311.22822866 131.1613931 308.92700671 131.45688955 306.625 131.75 C305.81784546 131.85544128 305.01069092 131.96088257 304.17907715 132.06951904 C207.50136603 144.67320115 110.3674295 144.74233902 1.9375 133.3125 C0.69184265 133.17651398 0.69184265 133.17651398 -0.57897949 133.03778076 C-5.43346651 132.50403939 -10.27997749 131.9263244 -15.125 131.3125 C-16.2286792 131.18302979 -17.3323584 131.05355957 -18.46948242 130.92016602 C-27.10706074 129.73634247 -35.85388047 126.69358118 -42.0625 120.3125 C-46.41212037 113.94798196 -49.13383783 108.94192721 -49.27124023 101.18359375 C-49.29053085 100.16152832 -49.30982147 99.13946289 -49.32969666 98.08642578 C-49.3878488 93.39961603 -49.43675463 88.71295432 -49.4675293 84.02587891 C-49.48905244 81.56447267 -49.52308672 79.10314178 -49.57006836 76.64208984 C-49.63750346 73.07354916 -49.6646049 69.50659043 -49.68359375 65.9375 C-49.71142441 64.85267334 -49.73925507 63.76784668 -49.76792908 62.65014648 C-49.74452339 53.81528673 -47.23174018 46.02464116 -41.28709412 39.3059082 C-36.14746931 34.5074673 -29.9473786 31.51556702 -23.0625 30.3125 C-23.04791748 29.73806152 -23.03333496 29.16362305 -23.01831055 28.57177734 C-22.94336275 25.94304304 -22.84686006 23.31551448 -22.75 20.6875 C-22.72744141 19.78386719 -22.70488281 18.88023437 -22.68164062 17.94921875 C-22.41413421 11.28587714 -21.59371262 6.82703248 -16.69140625 1.95703125 C-11.18492467 -0.53837106 -5.96741934 -0.14827933 0 0 Z M-10.0625 11.3125 C-11.85538531 14.89827062 -11.29001627 19.05129529 -11.3125 23 C-11.333125 23.88623047 -11.35375 24.77246094 -11.375 25.68554688 C-11.40857221 31.35505318 -10.80842987 35.31931149 -8.0625 40.3125 C-4.7223473 43.34900245 -3.03117537 44.2955057 1.5 44.375 C5.56155695 43.11960967 7.28256001 41.59213176 9.9375 38.3125 C10.95005033 35.27484901 11.06650588 33.20087779 11.0703125 30.0234375 C11.07160156 28.99992187 11.07289062 27.97640625 11.07421875 26.921875 C11.06841797 25.32085937 11.06841797 25.32085937 11.0625 23.6875 C11.06636719 22.61242187 11.07023437 21.53734375 11.07421875 20.4296875 C11.07228516 18.89828125 11.07228516 18.89828125 11.0703125 17.3359375 C11.06918457 16.39669434 11.06805664 15.45745117 11.06689453 14.48974609 C11.18056045 12.33425654 11.18056045 12.33425654 9.9375 11.3125 C8.4487814 11.22580568 6.956055 11.20546506 5.46484375 11.21484375 C4.11616211 11.21967773 4.11616211 11.21967773 2.74023438 11.22460938 C1.79470703 11.23298828 0.84917969 11.24136719 -0.125 11.25 C-1.07439453 11.25451172 -2.02378906 11.25902344 -3.00195312 11.26367188 C-5.35553065 11.2754989 -7.70898477 11.29197975 -10.0625 11.3125 Z M21.9375 13.3125 C21.51466791 17.35569858 21.56590931 21.40545178 21.56689453 25.46899414 C21.56255423 27.47493861 21.52562219 29.48072655 21.48828125 31.48632812 C21.46674141 38.59806543 21.47302387 43.61843617 25.9375 49.3125 C29.56453225 52.52501428 33.03641702 52.83949652 37.72265625 52.66015625 C41.27693214 52.10225404 43.2970828 50.70144889 45.9375 48.3125 C48.70021524 43.77723716 49.2981065 40.43980696 49.23046875 35.1640625 C49.22410149 34.17797501 49.22410149 34.17797501 49.21760559 33.17196655 C49.20094977 31.09337609 49.1633262 29.01579226 49.125 26.9375 C49.10993605 25.51954536 49.09625065 24.10157536 49.08398438 22.68359375 C49.05109038 19.2262411 48.99940165 15.76946897 48.9375 12.3125 C44.93450128 10.31100064 39.83833269 11.12764791 35.4375 11.125 C34.36628906 11.11275391 33.29507813 11.10050781 32.19140625 11.08789062 C31.16917969 11.08595703 30.14695312 11.08402344 29.09375 11.08203125 C28.15337891 11.07792236 27.21300781 11.07381348 26.24414062 11.06958008 C23.7420316 11.0885286 23.7420316 11.0885286 21.9375 13.3125 Z M59.9375 13.3125 C59.63242766 15.85649636 59.51732969 18.15318246 59.5390625 20.69921875 C59.53619232 21.43445267 59.53332214 22.16968658 59.53036499 22.92720032 C59.5283213 24.48654955 59.53387253 26.04592425 59.54638672 27.60522461 C59.56232332 29.97374192 59.54660957 32.34052303 59.52734375 34.70898438 C59.52932837 36.22656623 59.53317656 37.74414701 59.5390625 39.26171875 C59.53298981 39.96302414 59.52691711 40.66432953 59.5206604 41.3868866 C59.5986465 46.94296016 60.72287795 51.79921391 64.47265625 56.0546875 C69.96270672 60.12659194 73.17248158 60.9399469 79.9375 60.3125 C84.65292836 58.62206342 87.21038958 56.50056242 89.9375 52.3125 C92.5757655 45.77973647 92.27387443 39.27368416 92.25317383 32.3527832 C92.24999397 30.12076856 92.27358036 27.89005618 92.29882812 25.65820312 C92.30109949 24.23698083 92.30180537 22.81575499 92.30078125 21.39453125 C92.30376221 20.10780518 92.30674316 18.8210791 92.30981445 17.49536133 C92.16952253 14.39916392 92.16952253 14.39916392 90.78198242 12.39257812 C88.14898066 10.85076478 86.10260849 10.94062431 83.0625 10.94921875 C81.91265625 10.94986328 80.7628125 10.95050781 79.578125 10.95117188 C78.37671875 10.96728516 77.1753125 10.98339844 75.9375 11 C74.73609375 10.99677734 73.5346875 10.99355469 72.296875 10.99023438 C65.74464973 10.78410641 65.74464973 10.78410641 59.9375 13.3125 Z M103.9375 12.3125 C102.33393856 15.51962288 102.73193892 19.01416075 102.69921875 22.5390625 C102.691147 23.36070892 102.68307526 24.18235535 102.67475891 25.02890015 C102.66091325 26.77233774 102.65019325 28.51580249 102.64233398 30.25927734 C102.62520089 32.90646092 102.58133059 35.55236924 102.53710938 38.19921875 C102.52697509 39.89582418 102.51846129 41.5924402 102.51171875 43.2890625 C102.49421066 44.07270172 102.47670258 44.85634094 102.45866394 45.66372681 C102.4828886 51.90484973 104.10923263 57.08505721 108.27885437 61.84317017 C112.46560817 65.66901713 116.75521289 67.27202576 122.39453125 67.34375 C128.72554902 66.96407877 132.8641857 65.50273387 137.375 60.8203125 C142.03491452 55.4984783 142.10678265 51.13393681 142.140625 44.33984375 C142.14917511 43.02156334 142.14917511 43.02156334 142.15789795 41.676651 C142.167339 39.81984662 142.17387838 37.96302555 142.17773438 36.10620117 C142.18747485 33.25735666 142.2185202 30.40922314 142.25 27.56054688 C142.25652673 25.75781679 142.2617785 23.95508155 142.265625 22.15234375 C142.2779718 21.29712631 142.2903186 20.44190887 142.30303955 19.56077576 C142.32831615 16.91698903 142.32831615 16.91698903 141.9375 13.3125 C138.19428287 10.81702191 136.21934702 11.06796803 131.75 11.08203125 C131.05108643 11.08248947 130.35217285 11.08294769 129.63208008 11.0834198 C128.15606994 11.08643749 126.68006286 11.09430939 125.20410156 11.10668945 C122.94584864 11.12493256 120.68800639 11.12719913 118.4296875 11.12695312 C111.07636181 10.941834 111.07636181 10.941834 103.9375 12.3125 Z M153.9375 13.3125 C153.62072743 16.28212324 153.49354897 19.03868104 153.50390625 22.01171875 C153.4986644 22.88012894 153.49342255 23.74853912 153.48802185 24.64326477 C153.48158953 26.48506603 153.48295425 28.3269083 153.49145508 30.16870117 C153.49991534 32.97194997 153.4713031 35.77312723 153.43945312 38.57617188 C153.43783966 40.36718689 153.43842142 42.15820549 153.44140625 43.94921875 C153.43017227 44.78176682 153.41893829 45.61431488 153.40736389 46.47209167 C153.4927184 53.69506199 155.56091362 57.93591362 160.75 63.125 C166.29408374 66.92976335 171.1886263 67.80999257 177.73046875 66.8515625 C183.52420936 65.43645417 187.65077173 62.30345775 190.9375 57.3125 C193.35582616 52.67512466 193.19643516 48.39181278 193.1328125 43.29296875 C193.12856766 42.00511223 193.12856766 42.00511223 193.12423706 40.6912384 C193.1130807 37.96068125 193.08798459 35.2304573 193.0625 32.5 C193.05246432 30.64388496 193.0433395 28.78776476 193.03515625 26.93164062 C193.01315626 22.39179954 192.97865781 17.85220619 192.9375 13.3125 C189.23071213 10.95262303 185.97696853 11.05437605 181.65234375 11.046875 C180.60609581 11.04400482 180.60609581 11.04400482 179.53871155 11.04107666 C178.06869138 11.03971927 176.59865905 11.04338451 175.12866211 11.05175781 C172.87912118 11.06248036 170.63037584 11.05183966 168.38085938 11.0390625 C166.95051907 11.04038386 165.52017927 11.04294576 164.08984375 11.046875 C162.79038818 11.04913086 161.49093262 11.05138672 160.15209961 11.05371094 C156.78573963 11.06256973 156.78573963 11.06256973 153.9375 13.3125 Z M205.09521484 12.4128418 C203.34296099 15.28806053 203.54829491 17.72598085 203.5390625 21.0703125 C203.53619232 21.73279999 203.53332214 22.39528748 203.53036499 23.07785034 C203.52832445 24.4815964 203.53385376 25.8853709 203.54638672 27.2890625 C203.56229019 29.40952545 203.54662011 31.52803782 203.52734375 33.6484375 C203.28678777 45.54899771 203.28678777 45.54899771 208.35400391 55.91845703 C212.87985696 59.90282658 216.849879 60.66915742 222.65625 60.59375 C227.41271811 60.00733612 230.16125322 57.17266535 233.25 53.75 C236.2296203 49.44610401 236.11180077 45.47848243 236.140625 40.43359375 C236.14917511 39.28178368 236.14917511 39.28178368 236.15789795 38.10670471 C236.16733428 36.48529433 236.1738765 34.86386489 236.17773438 33.24243164 C236.18747772 30.7556867 236.21852777 28.26975546 236.25 25.78320312 C236.25652661 24.20833824 236.26177842 22.63346746 236.265625 21.05859375 C236.2779718 20.31274521 236.2903186 19.56689667 236.30303955 18.79844666 C236.32793945 16.48336614 236.32793945 16.48336614 235.9375 13.3125 C231.06623683 10.06499122 225.66159973 10.98464566 219.9375 11 C218.73609375 10.98388672 217.5346875 10.96777344 216.296875 10.95117188 C215.14703125 10.95052734 213.9971875 10.94988281 212.8125 10.94921875 C211.75804687 10.94623779 210.70359375 10.94325684 209.6171875 10.94018555 C206.97037058 11.13050722 206.97037058 11.13050722 205.09521484 12.4128418 Z M246.9375 13.3125 C246.51466791 17.35569858 246.56590931 21.40545178 246.56689453 25.46899414 C246.56255423 27.47493861 246.52562219 29.48072655 246.48828125 31.48632812 C246.46674141 38.59806543 246.47302387 43.61843617 250.9375 49.3125 C254.60532358 52.56114374 258.06677246 52.78972042 262.79296875 52.5859375 C265.96426766 52.18158245 267.56383763 51.4827056 269.9375 49.3125 C274.69330145 42.05133179 274.47788615 35.44182981 274.3125 26.9375 C274.31121094 25.65488281 274.30992187 24.37226563 274.30859375 23.05078125 C274.73741518 16.5892903 274.73741518 16.5892903 271.9375 11.3125 C269.54573522 11.00168663 269.54573522 11.00168663 266.78125 11.046875 C265.75902344 11.04429687 264.73679687 11.04171875 263.68359375 11.0390625 C262.07677734 11.05066406 262.07677734 11.05066406 260.4375 11.0625 C259.36628906 11.05476563 258.29507812 11.04703125 257.19140625 11.0390625 C255.65806641 11.04292969 255.65806641 11.04292969 254.09375 11.046875 C252.68319336 11.05025879 252.68319336 11.05025879 251.24414062 11.05371094 C248.74258033 11.09151284 248.74258033 11.09151284 246.9375 13.3125 Z M284.9375 12.3125 C284.65594928 16.22178905 284.70563988 20.14428585 284.6875 24.0625 C284.666875 25.16078125 284.64625 26.2590625 284.625 27.390625 C284.61984375 28.4528125 284.6146875 29.515 284.609375 30.609375 C284.6000293 31.58229492 284.59068359 32.55521484 284.58105469 33.55761719 C285.00408303 36.82710471 285.99937283 38.66544136 287.9375 41.3125 C291.16984123 43.46739416 293.10220921 44.32954675 297 44.25 C300.38064959 43.17106928 302.36665878 41.73643601 304.9375 39.3125 C306.29450647 36.59848706 306.0498861 34.46403684 306.03515625 31.4296875 C306.03193359 30.26308594 306.02871094 29.09648437 306.02539062 27.89453125 C306.01701172 26.67121094 306.00863281 25.44789063 306 24.1875 C305.99548828 22.95644531 305.99097656 21.72539062 305.98632812 20.45703125 C305.9745133 17.40880608 305.95804028 14.36067686 305.9375 11.3125 C302.62501813 11.28361854 299.31256833 11.26574201 296 11.25 C294.58170898 11.23743164 294.58170898 11.23743164 293.13476562 11.22460938 C292.23564453 11.22138672 291.33652344 11.21816406 290.41015625 11.21484375 C289.57750244 11.20960693 288.74484863 11.20437012 287.88696289 11.19897461 C285.93233202 11.09606708 285.93233202 11.09606708 284.9375 12.3125 Z M-32.0625 46.3125 C-36.16855154 50.7405948 -38.17346536 54.88086358 -38.22363281 60.96411133 C-38.23324036 61.90551468 -38.2428479 62.84691803 -38.25274658 63.81684875 C-38.25699646 64.83248398 -38.26124634 65.8481192 -38.265625 66.89453125 C-38.27132507 67.94146652 -38.27702515 68.98840179 -38.28289795 70.06706238 C-38.29234766 72.28371164 -38.29888182 74.50037496 -38.30273438 76.71704102 C-38.31243216 80.1013249 -38.34345313 83.48499949 -38.375 86.86914062 C-38.38153098 89.0234339 -38.38678108 91.17773151 -38.390625 93.33203125 C-38.4029718 94.34159378 -38.4153186 95.35115631 -38.42803955 96.39131165 C-38.40767439 102.84375432 -37.48159 107.02534605 -33.58203125 112.32421875 C-23.59040546 122.13293148 -3.63010651 121.34704348 9.6875 122.8125 C10.64392395 122.91922028 11.6003479 123.02594055 12.58575439 123.13589478 C56.30233156 128.00319832 99.99606122 130.72730641 143.98622894 130.63055801 C146.61876995 130.6248786 149.25130441 130.62208235 151.8838501 130.61947632 C181.3172496 130.57724136 210.59648273 129.81029868 239.9375 127.3125 C241.01864075 127.22057373 242.09978149 127.12864746 243.21368408 127.03393555 C259.14345296 125.66362043 275.04818709 124.09082386 290.9375 122.3125 C292.18735687 122.17297913 292.18735687 122.17297913 293.46246338 122.03063965 C298.37642235 121.47697882 303.28286648 120.88101109 308.1875 120.25 C309.31663818 120.11215088 310.44577637 119.97430176 311.60913086 119.83227539 C319.24152607 118.77170189 325.2658578 116.98162725 330.3125 110.75 C331.03566406 109.88181641 331.03566406 109.88181641 331.7734375 108.99609375 C333.87747208 105.95301018 334.06909747 103.24231006 334.09863281 99.66088867 C334.11304413 98.24878365 334.11304413 98.24878365 334.12774658 96.80815125 C334.13199646 95.79251602 334.13624634 94.7768808 334.140625 93.73046875 C334.14632507 92.68353348 334.15202515 91.63659821 334.15789795 90.55793762 C334.16734766 88.34128836 334.17388182 86.12462504 334.17773438 83.90795898 C334.18743216 80.5236751 334.21845313 77.14000051 334.25 73.75585938 C334.25653098 71.6015661 334.26178108 69.44726849 334.265625 67.29296875 C334.2841452 65.77862495 334.2841452 65.77862495 334.30303955 64.23368835 C334.28255427 57.7431888 333.49544092 53.33552108 329.17578125 48.23046875 C324.42022712 43.95722234 321.36307987 42.4272425 314.9375 42.3125 C314.380625 43.22 313.82375 44.1275 313.25 45.0625 C309.62497286 50.15713274 306.05948762 52.89973363 299.9375 54.3125 C293.37042833 55.02010508 288.02913171 53.73187146 281.9375 51.3125 C281.298125 52.199375 280.65875 53.08625 280 54 C275.7078515 59.10221596 270.03580285 62.25794747 263.4375 63.25 C256.41741402 63.67955072 250.86196455 61.97172811 244.9375 58.3125 C241.6394441 59.41185197 241.26999211 59.95205025 239.3125 62.625 C234.90633176 67.84792138 230.35276104 69.88908752 223.59765625 70.7265625 C213.90047544 71.12666334 207.83972345 68.58064897 199.9375 63.3125 C199.54820312 63.83199219 199.15890625 64.35148437 198.7578125 64.88671875 C193.20840651 71.80429626 186.77745013 75.92257073 177.9375 77.3125 C168.57158435 78.28745026 160.43619258 75.97709678 152.9375 70.3125 C152.2775 70.3125 151.6175 70.3125 150.9375 70.3125 C149.9475 68.3325 149.9475 68.3325 148.9375 66.3125 C146.22845442 67.45863467 144.56259119 68.65997646 142.375 70.6875 C136.29103157 75.85197698 128.29665137 77.99996485 120.41796875 77.63671875 C109.61704671 76.22494469 102.62545916 71.75545553 95.9375 63.3125 C95.25042969 63.73402344 94.56335938 64.15554688 93.85546875 64.58984375 C92.95441406 65.13769531 92.05335938 65.68554688 91.125 66.25 C90.23167969 66.79527344 89.33835937 67.34054687 88.41796875 67.90234375 C81.88274137 71.61764625 73.46173247 71.34944087 66.26171875 69.69921875 C60.32801298 67.37287815 56.7218505 63.32585179 52.9375 58.3125 C52.215625 58.60125 51.49375 58.89 50.75 59.1875 C49.821875 59.55875 48.89375 59.93 47.9375 60.3125 C47.195 60.663125 46.4525 61.01375 45.6875 61.375 C38.77519066 63.73146909 31.79539411 63.98756508 24.9375 61.3125 C20.04594013 58.43307114 16.22194639 54.96546572 12.9375 50.3125 C12.195 50.786875 11.4525 51.26125 10.6875 51.75 C5.35246436 54.78127025 -0.07861907 55.01508365 -6.078125 53.95703125 C-11.77073168 52.28734937 -14.6422871 48.78868489 -18.203125 44.17578125 C-18.81671875 43.56089844 -19.4303125 42.94601562 -20.0625 42.3125 C-25.00076024 42.3125 -28.01249932 43.54821382 -32.0625 46.3125 Z " fill="#000000" transform="translate(108.0625,281.6875)"/>
</svg>
