<?xml version="1.0" encoding="UTF-8"?>
<svg version="1.1" xmlns="http://www.w3.org/2000/svg" width="512" height="512">
<path d="M0 0 C7.00064557 5.87316239 10.78255847 10.74016151 11.7578125 19.88671875 C12.25713399 30.13245794 10.68476092 37.13808888 3.77762794 45.07571793 C0.48527204 48.50857827 -2.95325715 51.7889823 -6.3894043 55.07666016 C-7.69847069 56.34824168 -9.00625734 57.6211418 -10.31286621 58.89524841 C-13.11674043 61.62600867 -15.92742992 64.34948761 -18.74310875 67.06807327 C-23.20528553 71.38062612 -27.63857885 75.72208545 -32.06611633 80.07015991 C-33.58731382 81.56340617 -35.10853037 83.05663302 -36.62976551 84.54984093 C-37.39132029 85.29740678 -38.15287507 86.04497262 -38.93750727 86.81519198 C-49.23828269 96.92245257 -59.56128066 107.00582016 -69.94458008 117.02832031 C-76.96387571 123.80415981 -83.94243366 130.61925613 -90.8783229 137.48047769 C-94.54200515 141.10144342 -98.22278769 144.69978669 -101.95483971 148.25035477 C-121.26332441 165.1481688 -121.26332441 165.1481688 -129.33129883 188.31787109 C-129.23706295 191.03224241 -129.03352293 193.70132103 -128.75350571 196.40243912 C-128.55442095 201.35485971 -129.70963987 206.11092902 -130.76953125 210.92578125 C-131.11395264 212.57610352 -131.11395264 212.57610352 -131.46533203 214.25976562 C-134.08786096 225.32400807 -137.40646141 236.17282004 -140.71630859 247.046875 C-146.12049641 264.89974165 -148.86341635 282.56331785 -150.64453125 301.11328125 C-149.42121094 301.21769531 -148.19789063 301.32210938 -146.9375 301.4296875 C-94.81945747 307.28827128 -38.90872108 334.69973483 1.76074219 366.86474609 C3.18929281 367.98317964 4.64950349 369.06089592 6.11328125 370.1328125 C11.03030785 373.92766056 11.03030785 373.92766056 11.9296875 377.20703125 C12.08268449 380.11924976 11.66122322 382.50177231 10.35546875 385.11328125 C7.10122335 386.74040395 3.86835206 386.71193212 0.35546875 386.11328125 C-2.32987034 384.68292864 -4.45700711 382.77072941 -6.70703125 380.73828125 C-8.02208491 379.62292214 -9.34120028 378.51233662 -10.6640625 377.40625 C-11.65913818 376.569729 -11.65913818 376.569729 -12.67431641 375.71630859 C-22.97872578 367.33232446 -34.89644865 360.84408464 -46.43847656 354.35791016 C-48.35795685 353.274963 -50.26398613 352.17232871 -52.16796875 351.0625 C-81.15187568 334.74638456 -113.90461944 324.939458 -146.18383789 317.7265625 C-148.64453125 317.11328125 -148.64453125 317.11328125 -150.64453125 316.11328125 C-150.63405762 317.20455322 -150.62358398 318.2958252 -150.61279297 319.42016602 C-149.87821131 403.50881168 -149.87821131 403.50881168 -167.64453125 426.11328125 C-176.57425735 435.19384732 -176.57425735 435.19384732 -182.70703125 435.55078125 C-188.60147127 435.45616745 -192.32018287 432.9465864 -196.64453125 429.11328125 C-212.64463879 412.53485657 -213.10903577 389.45854723 -213.31738281 367.82617188 C-213.49929339 351.54789373 -214.05238215 335.41105166 -225.64453125 322.890625 C-229.42696878 319.52927915 -232.50243494 318.64329859 -237.62890625 318.8046875 C-243.02859252 319.63138365 -246.95985142 323.93973706 -250.26171875 328.01953125 C-258.26181447 340.13267053 -257.85867656 356.11033928 -257.99304199 370.1010437 C-258.14586895 383.15278241 -258.55335286 395.60477976 -262.64453125 408.11328125 C-263.1859375 409.78583984 -263.1859375 409.78583984 -263.73828125 411.4921875 C-267.13719214 420.66695034 -272.78804192 429.52884285 -281.578125 434.328125 C-285.39486592 435.77834225 -288.66721308 436.08845558 -292.64453125 435.11328125 C-295.72756939 433.51258138 -298.13772077 431.50324887 -300.64453125 429.11328125 C-301.464375 428.33597656 -301.464375 428.33597656 -302.30078125 427.54296875 C-315.79073581 413.2959249 -317.73150481 388.67739542 -319.64453125 370.11328125 C-319.74241943 369.18717041 -319.84030762 368.26105957 -319.94116211 367.30688477 C-320.90354178 356.81720027 -320.75540337 346.32308532 -320.70703125 335.80078125 C-320.70200404 333.8847668 -320.69744331 331.96875107 -320.69335938 330.05273438 C-320.68245549 325.40621772 -320.66525882 320.75976404 -320.64453125 316.11328125 C-322.053396 316.49093628 -322.053396 316.49093628 -323.49072266 316.8762207 C-329.62634794 318.51804851 -335.76278114 320.15141049 -341.91796875 321.71875 C-386.49461174 333.18306751 -431.88421666 352.27693053 -467.01953125 382.73828125 C-470.06584885 385.2225106 -472.10928009 386.63494953 -476.08203125 386.80078125 C-479.64453125 386.11328125 -479.64453125 386.11328125 -481.64453125 385.11328125 C-483.39852429 381.60529517 -483.80625509 378.80613526 -482.64453125 375.11328125 C-479.83859314 371.50174533 -476.26994288 368.85322838 -472.64453125 366.11328125 C-472.02223633 365.6322998 -471.39994141 365.15131836 -470.75878906 364.65576172 C-458.69534014 355.38721666 -445.87902758 347.58285631 -432.64453125 340.11328125 C-431.92507324 339.70126465 -431.20561523 339.28924805 -430.46435547 338.86474609 C-398.23165874 320.49860402 -357.8624702 304.28994411 -320.64453125 301.11328125 C-322.79201607 278.79334565 -326.94114808 258.17154987 -333.6887207 236.80712891 C-342.28760717 209.32260815 -350.52082041 176.17587835 -336.64453125 149.11328125 C-330.35816927 138.79809059 -321.60333552 132.68627117 -310.01953125 129.359375 C-287.45218599 124.55709766 -261.81104735 130.52845096 -241.2578125 140.1953125 C-235.45132358 142.23496107 -231.41794023 140.85353138 -225.95703125 138.42578125 C-217.10064241 134.67205039 -208.00747353 132.25405449 -198.64453125 130.11328125 C-197.55914062 129.86449219 -196.47375 129.61570313 -195.35546875 129.359375 C-190.29970139 128.40558248 -186.05230714 127.9464451 -180.99862671 129.01664734 C-173.30440553 130.33284331 -165.90631576 130.53222562 -159.22742462 125.98031998 C-150.29933491 119.19604433 -142.65592697 110.74412649 -134.96386003 102.63294435 C-131.53751391 99.04649989 -128.04285527 95.52788105 -124.55477905 92.00163269 C-117.96778064 85.32288152 -111.43990453 78.58948113 -104.93338048 71.83240098 C-95.38439597 61.92083318 -85.7494545 52.09336993 -76.11285973 42.26707745 C-74.68665695 40.81257013 -73.26047688 39.35804055 -71.83432007 37.90348816 C-71.13761589 37.19313705 -70.44091172 36.48278593 -69.7230953 35.75090903 C-65.60184188 31.54501768 -61.49810166 27.32295487 -57.40951753 23.08530295 C-54.86356995 20.44863726 -52.3097599 17.8196708 -49.75473595 15.19180298 C-48.57749411 13.97690256 -47.40394604 12.75840958 -46.23451805 11.53598595 C-33.82283722 -1.43370141 -17.24389345 -12.30251187 0 0 Z M-30.50411987 17.61210632 C-31.89220604 18.9940065 -31.89220604 18.9940065 -33.30833435 20.40382385 C-34.31621108 21.42231579 -35.32394247 22.44095158 -36.33154297 23.4597168 C-37.4056612 24.5346819 -38.48044176 25.60898555 -39.55583191 26.68267822 C-42.46503136 29.59101864 -45.36490255 32.5085009 -48.26316595 35.42773414 C-51.29669861 38.4800488 -54.3387563 41.52384293 -57.37991333 44.56855774 C-63.13376232 50.3317227 -68.87992257 56.10249074 -74.62334836 61.87604123 C-81.16397949 68.45023026 -87.71315383 75.01588023 -94.26305366 81.58083284 C-107.73306281 95.08218087 -121.19232564 108.59419556 -134.64453125 122.11328125 C-133.11165539 125.33642812 -131.50302437 127.49063723 -128.94921875 130.00390625 C-128.23378906 130.71289062 -127.51835937 131.421875 -126.78125 132.15234375 C-126.03488281 132.88195312 -125.28851563 133.6115625 -124.51953125 134.36328125 C-123.76542969 135.10835938 -123.01132812 135.8534375 -122.234375 136.62109375 C-120.37552353 138.45641545 -118.5121612 140.28690035 -116.64453125 142.11328125 C-110.49075928 137.02206378 -104.86478681 131.47545161 -99.22705078 125.82519531 C-98.1933774 124.79287921 -97.15949189 123.76077547 -96.12541199 122.72886658 C-93.33632562 119.94431284 -90.55037981 117.15663719 -87.76515055 114.36822605 C-84.84565764 111.44619132 -81.92371434 108.52660853 -79.00216675 105.60662842 C-74.10316111 100.70943771 -69.20625837 95.81015167 -64.31054688 90.90966797 C-58.64727892 85.24094349 -52.98039701 79.57585092 -47.31165421 73.91260171 C-42.44005867 69.04553845 -37.57040733 64.1765364 -32.70238769 59.30589652 C-29.79658526 56.39853391 -26.89010851 53.49185406 -23.98187637 50.58692169 C-21.25290274 47.86082894 -18.52637213 45.13231645 -15.80173683 42.40188789 C-14.80001382 41.39883911 -13.79743235 40.39664684 -12.79394722 39.39536095 C-11.42828868 38.03242063 -10.06599084 36.66611535 -8.70388794 35.29962158 C-7.93959536 34.53495197 -7.17530277 33.77028236 -6.38784981 32.98244095 C-3.06020535 29.41459106 -3.36318324 26.28140582 -3.4375 21.5859375 C-3.71586365 18.26133014 -4.38868926 16.58743053 -6.64453125 14.11328125 C-9.86891853 11.64613643 -12.66997807 10.25250313 -16.70703125 9.67578125 C-22.53162393 10.54327378 -26.43116954 13.52504646 -30.50411987 17.61210632 Z M-149.1484375 136.51953125 C-150.17049935 137.54827325 -151.18991089 138.57965332 -152.20703125 139.61328125 C-152.72716797 140.13792969 -153.24730469 140.66257813 -153.78320312 141.203125 C-155.07254816 142.50429888 -156.35882495 143.80851176 -157.64453125 145.11328125 C-152.09417922 151.89704484 -145.88011098 157.96851093 -139.64453125 164.11328125 C-136.19251486 162.63606703 -133.99491189 160.67534124 -131.39453125 157.98828125 C-130.33492188 156.90160156 -130.33492188 156.90160156 -129.25390625 155.79296875 C-128.7228125 155.23867187 -128.19171875 154.684375 -127.64453125 154.11328125 C-129.06808625 150.87051398 -130.7992419 148.71234821 -133.3046875 146.22265625 C-134.37106445 145.15917969 -134.37106445 145.15917969 -135.45898438 144.07421875 C-136.57176758 142.97980469 -136.57176758 142.97980469 -137.70703125 141.86328125 C-138.45275391 141.11820313 -139.19847656 140.373125 -139.96679688 139.60546875 C-144.23892343 134.10742713 -144.23892343 134.10742713 -149.1484375 136.51953125 Z M-320.76953125 153.23828125 C-329.01795965 163.32691021 -329.55885788 176.63195659 -328.64453125 189.11328125 C-326.63630155 207.71528523 -321.60502988 225.56654544 -316 243.359375 C-309.68372253 263.50765019 -306.55204454 283.40012735 -306.43359375 304.5078125 C-306.42056788 305.90379064 -306.40674544 307.29976155 -306.3921814 308.69572449 C-306.33157957 314.55595237 -306.27733528 320.4161646 -306.24316406 326.27661133 C-307.66453821 375.4705404 -307.66453821 375.4705404 -289.64453125 419.11328125 C-286.14465857 418.5551119 -284.7603741 417.555572 -282.64453125 414.73828125 C-273.64584593 401.99014372 -273.3600745 386.43588128 -273.14453125 371.42578125 C-272.83457809 350.10338822 -272.20421972 328.92315377 -256.9921875 312.30859375 C-250.98425503 306.62579645 -243.8633296 303.92979467 -235.64453125 303.61328125 C-226.26281111 303.99767951 -219.42196811 307.40248193 -212.6796875 313.859375 C-198.12286658 329.98084462 -198.37189627 353.33334997 -198.18823242 373.83691406 C-198.00863495 390.78617881 -195.61742372 405.68977612 -184.64453125 419.11328125 C-181.02710025 418.50910144 -180.6851303 418.16429031 -178.20703125 415.05078125 C-165.76729632 393.57788496 -165.5740949 364.39487765 -165.3359375 340.3359375 C-165.32895403 339.64294556 -165.32197056 338.94995361 -165.31477547 338.23596191 C-165.25342642 331.77012576 -165.21591263 325.30419436 -165.18823242 318.83813477 C-165.05229118 289.93681531 -161.74098792 263.71139249 -153.28173828 236.03955078 C-147.82444913 218.18534683 -143.21274211 200.86423971 -142.64453125 182.11328125 C-149.38426645 182.11328125 -152.97803916 187.15293533 -157.63427734 191.64428711 C-163.04852944 197.36206014 -165.07355896 201.81626109 -165.26953125 209.67578125 C-165.24068848 210.49530273 -165.2118457 211.31482422 -165.18212891 212.15917969 C-165.06824012 216.6290869 -165.32161827 219.32700491 -168.28125 222.79296875 C-169.71860863 224.25010921 -171.17637851 225.68717267 -172.64453125 227.11328125 C-173.68211566 228.18610205 -174.71564755 229.26285041 -175.74609375 230.3425293 C-178.76768916 233.50032696 -181.82764873 236.61757051 -184.90356445 239.72241211 C-186.18569681 241.02110067 -187.46244179 242.32513082 -188.73364258 243.63452148 C-202.34408255 257.64945832 -215.67486466 266.90970215 -235.86157227 267.53295898 C-247.71707267 267.61848636 -259.56091132 266.58036589 -268.64453125 258.11328125 C-270.39453125 255.05078125 -270.39453125 255.05078125 -270.64453125 252.11328125 C-268.80427002 248.5058003 -266.58608072 245.82120602 -263.70170593 243.00396729 C-262.90376114 242.21916992 -262.10581635 241.43437256 -261.28369141 240.62579346 C-260.41236572 239.77893982 -259.54104004 238.93208618 -258.64331055 238.05957031 C-257.23039355 236.67332671 -255.81748526 235.28707416 -254.40490687 233.90048552 C-252.89083978 232.4157419 -251.37450154 230.93334725 -249.85779381 229.45130157 C-246.69411671 226.35779043 -243.54301045 223.25168677 -240.39472961 220.14251709 C-239.86264741 219.61715874 -239.33056521 219.09180039 -238.7823593 218.55052209 C-237.69472504 217.47660032 -236.60711575 216.40265327 -235.51953089 215.32868147 C-228.19293711 208.09499156 -220.85791468 200.87031981 -213.48999023 193.67871094 C-208.5139968 188.82160416 -203.55777953 183.94525354 -198.62344104 179.04582381 C-196.01315201 176.45558611 -193.39374157 173.87634924 -190.7497921 171.3204422 C-187.80272611 168.47120399 -184.89989863 165.58057841 -181.9987793 162.68457031 C-181.11733246 161.8458136 -180.23588562 161.00705688 -179.32772827 160.1428833 C-175.01997717 156.0399336 -175.01997717 156.0399336 -173.58158302 150.55461884 C-174.07931147 148.27489024 -174.73789521 146.25824186 -175.64453125 144.11328125 C-175.64453125 143.78328125 -175.64453125 143.45328125 -175.64453125 143.11328125 C-182.03771629 142.9472245 -187.82735187 143.4408343 -194.08203125 144.73828125 C-194.943125 144.91431885 -195.80421875 145.09035645 -196.69140625 145.27172852 C-207.94701747 147.68496946 -218.75564418 151.21985808 -229.14453125 156.17578125 C-234.12186859 158.28655358 -236.91731647 158.29493268 -241.921875 156.3359375 C-242.82035156 155.93246094 -243.71882813 155.52898437 -244.64453125 155.11328125 C-246.93162338 154.14408134 -249.22378265 153.18679443 -251.51953125 152.23828125 C-252.13940918 151.98111328 -252.75928711 151.72394531 -253.39794922 151.45898438 C-258.847518 149.27210241 -264.38806935 147.71822104 -270.08203125 146.30078125 C-270.91009277 146.09404785 -271.7381543 145.88731445 -272.59130859 145.67431641 C-289.04301297 141.73452255 -308.16495566 139.91433782 -320.76953125 153.23828125 Z M-167.18789673 166.40267944 C-167.92267746 167.13182053 -168.65745819 167.86096161 -169.414505 168.61219788 C-170.2208287 169.42257004 -171.0271524 170.2329422 -171.85791016 171.06787109 C-173.13118919 172.33589317 -173.13118919 172.33589317 -174.43019104 173.62953186 C-176.76232481 175.95435243 -179.08984309 178.28361166 -181.41515017 180.61524916 C-183.84518166 183.05033119 -186.28007422 185.4805444 -188.71420288 187.91152954 C-192.80168369 191.99536793 -196.8849207 196.08341402 -200.96582031 200.17382812 C-205.68930342 204.9081963 -210.41994864 209.63531614 -215.15437949 214.35873449 C-219.21327044 218.4085604 -223.26826434 222.46225735 -227.32000482 226.51923716 C-229.74247506 228.94483142 -232.16629041 231.36904 -234.59361649 233.78977585 C-237.29812389 236.48745323 -239.99443938 239.19322532 -242.68994141 241.89990234 C-243.50031357 242.70622604 -244.31068573 243.51254974 -245.14561462 244.3433075 C-246.23932625 245.44547859 -246.23932625 245.44547859 -247.35513306 246.56991577 C-248.31358848 247.52950227 -248.31358848 247.52950227 -249.29140663 248.50847435 C-250.85940184 250.01826276 -250.85940184 250.01826276 -250.64453125 252.11328125 C-240.37465639 255.32751689 -227.16372834 253.6543268 -217.64453125 249.11328125 C-212.00568799 245.31373918 -207.11598921 240.88199595 -202.3359375 236.0703125 C-201.68374741 235.42003586 -201.03155731 234.76975922 -200.35960388 234.09977722 C-198.99680127 232.7383245 -197.6364762 231.37438754 -196.27856445 230.00805664 C-194.19510834 227.91379651 -192.10106857 225.83054153 -190.00585938 223.74804688 C-188.67774291 222.41861031 -187.35024618 221.08855427 -186.0234375 219.7578125 C-185.39748184 219.1359053 -184.77152618 218.51399811 -184.12660217 217.87324524 C-183.55187668 217.29221542 -182.97715118 216.71118561 -182.38500977 216.11254883 C-181.87841324 215.60436111 -181.37181671 215.0961734 -180.84986877 214.57258606 C-178.24364216 211.41722173 -178.58548458 208.10959273 -178.56005859 204.21240234 C-178.35800497 192.81219631 -178.35800497 192.81219631 -175.01953125 188.98828125 C-173.58133801 187.6742268 -172.11782785 186.38785412 -170.64453125 185.11328125 C-168.67409878 183.16798049 -166.73261147 181.1957645 -164.78955078 179.22314453 C-161.76676784 176.16067206 -158.7063156 173.13668257 -155.64453125 170.11328125 C-156.59570259 168.94076815 -157.55570134 167.7754111 -158.51953125 166.61328125 C-159.05320312 165.96359375 -159.586875 165.31390625 -160.13671875 164.64453125 C-160.63429688 164.13921875 -161.131875 163.63390625 -161.64453125 163.11328125 C-164.50812914 163.11328125 -165.18015807 164.39730734 -167.18789673 166.40267944 Z " fill="#000000" transform="translate(491.64453125,67.88671875)"/>
<path d="M0 0 C4.46155458 3.53206405 7.54338706 7.57987274 8.23828125 13.35546875 C8.43382115 19.1702079 7.63275872 23.70431021 4 28.375 C-0.72870077 32.50876661 -4.81634435 33.55869809 -11 34.375 C-10.75765625 35.24302246 -10.5153125 36.11104492 -10.265625 37.00537109 C-9.36903953 40.22144043 -8.47475418 43.43813077 -7.58203125 46.65527344 C-7.19493395 48.04843402 -6.80691736 49.44133951 -6.41796875 50.83398438 C-5.85956715 52.83397379 -5.30446106 54.83485258 -4.75 56.8359375 C-4.24726563 58.64263916 -4.24726563 58.64263916 -3.734375 60.48583984 C-3 63.375 -3 63.375 -3 65.375 C-1.7934375 65.0140625 -0.586875 64.653125 0.65625 64.28125 C2.2706711 63.81194154 3.88526373 63.3432229 5.5 62.875 C6.68722656 62.51728516 6.68722656 62.51728516 7.8984375 62.15234375 C14.43003778 60.278524 19.96576112 59.48565412 26.625 61.4375 C31.57670091 64.28014311 35.17708681 67.90626044 37 73.375 C37.53385142 79.33976294 37.55270149 84.33245595 34 89.375 C29.56495023 94.24553269 26.60604387 95.5413437 20 96.375 C26.35310974 121.35262764 32.94173358 146.2624733 39.64147949 171.14916992 C40.88098602 175.75529088 42.11805365 180.36206685 43.35546875 184.96875 C44.95954154 190.93874109 46.5636837 196.90871392 48.17016125 202.87805843 C48.57167985 204.37009455 48.97288109 205.86221611 49.37373066 207.35443211 C50.70745371 212.31285861 52.07256671 217.26189539 53.46977234 222.2028656 C55.71303451 231.39262933 54.68545134 241.14803695 50 249.375 C49.18208984 250.35726562 49.18208984 250.35726562 48.34765625 251.359375 C46.6686943 253.87051809 46.79202853 254.99553108 47.25 257.9375 C47.35828125 258.70191406 47.4665625 259.46632813 47.578125 260.25390625 C47.9888318 262.54997734 47.9888318 262.54997734 49 265.375 C49.203125 267.53125 49.203125 267.53125 49.25 269.875 C49.27578125 270.6484375 49.3015625 271.421875 49.328125 272.21875 C49 274.375 49 274.375 47.671875 276.15625 C46 277.375 46 277.375 43 277.375 C43.22131592 278.07052979 43.44263184 278.76605957 43.6706543 279.48266602 C46.68655509 289.10961645 49.41083941 298.80877521 52.05639648 308.54321289 C52.56427287 310.4033491 53.07737414 312.26206594 53.59545898 314.11938477 C54.35280764 316.83561512 55.09411053 319.55578008 55.83203125 322.27734375 C56.06525589 323.10241928 56.29848053 323.92749481 56.53877258 324.77757263 C57.74537345 329.30647856 58.34648218 332.74372241 57 337.375 C54.72997641 339.89724843 53.36303993 340.32205668 50 340.8125 C46.15695404 340.2520558 45.39262308 339.41415041 43 336.375 C41.82371665 333.55293468 41.07856397 330.64357561 40.3125 327.6875 C39.95164307 326.36262573 39.95164307 326.36262573 39.58349609 325.01098633 C39.03356523 322.98704373 38.48974346 320.96143539 37.95068359 318.93457031 C36.85560115 314.83433867 35.73608506 310.74114643 34.61328125 306.6484375 C32.39625464 298.56069095 30.19443561 290.46890528 28 282.375 C26.32164063 282.18550781 26.32164063 282.18550781 24.609375 281.9921875 C21 281.375 21 281.375 19.25 279.5 C17.07638126 274.06595316 15 268.26736385 15 262.375 C14.195625 262.16875 13.39125 261.9625 12.5625 261.75 C9.60352408 260.60793912 7.18732006 259.4539933 4.5 257.8125 C3.7884375 257.37808594 3.076875 256.94367188 2.34375 256.49609375 C-5.12205458 249.7395406 -7.63024472 241.19354603 -10.09765625 231.7109375 C-10.47195038 230.32215047 -10.84773986 228.93376577 -11.22486877 227.54574585 C-12.05129187 224.49145307 -12.86696439 221.43454512 -13.67510986 218.37536621 C-15.07594226 213.07591784 -16.50583012 207.78448267 -17.93701172 202.49316406 C-20.58572837 192.68679587 -23.20856065 182.87366142 -25.82299805 173.05810547 C-27.18313368 167.95173641 -28.54817054 162.84669106 -29.9144125 157.7419529 C-30.9812546 153.75326231 -32.04520469 149.76380459 -33.10832405 145.77412033 C-33.61087611 143.88976657 -34.11438637 142.00566805 -34.61892509 140.12184525 C-39.40705028 122.23438761 -39.40705028 122.23438761 -41 113.375 C-41.75200684 113.55981934 -42.50401367 113.74463867 -43.27880859 113.93505859 C-49.88595629 115.49432118 -55.00301071 115.86352101 -61 112.375 C-65.56913665 108.73733971 -67.97905476 104.45352433 -68.94921875 98.7109375 C-69.06451867 93.4071413 -66.9628783 89.10818094 -64.4375 84.5625 C-58.12526377 78.89767262 -46.41830817 75.375 -38 75.375 C-40.64 65.475 -43.28 55.575 -46 45.375 C-50.62 45.705 -55.24 46.035 -60 46.375 C-65.84224575 44.75714733 -69.89160082 41.77803026 -73.11328125 36.578125 C-75.11479215 31.60520806 -74.90063247 25.25600047 -73.3125 20.17578125 C-70.72881847 15.21295964 -66.80894738 12.41009039 -61.69207764 10.52453613 C-58.92005737 9.67121473 -56.13695534 8.89334662 -53.3359375 8.140625 C-52.30747711 7.85773621 -51.27901672 7.57484741 -50.21939087 7.28338623 C-48.04735511 6.68969111 -45.8737557 6.10169078 -43.69873047 5.51904297 C-40.40163463 4.63216439 -37.11306437 3.71771634 -33.82421875 2.80078125 C-31.70358499 2.22486603 -29.58250403 1.65059448 -27.4609375 1.078125 C-26.49175385 0.80631409 -25.52257019 0.53450317 -24.52401733 0.25445557 C-16.85535424 -1.76198471 -7.39766209 -3.79205725 0 0 Z M-24.2109375 16 C-25.17907379 16.26635254 -26.14721008 16.53270508 -27.14468384 16.80712891 C-30.22348694 17.65593093 -33.29922365 18.515302 -36.375 19.375 C-38.46725419 19.9538257 -40.55970019 20.53195857 -42.65234375 21.109375 C-47.77047856 22.52323069 -52.88613974 23.94576543 -58 25.375 C-58.33 27.025 -58.66 28.675 -59 30.375 C-55.7960321 31.41581859 -53.80127988 31.30794864 -50.5703125 30.41870117 C-49.7026123 30.184832 -48.83491211 29.95096283 -47.94091797 29.71000671 C-47.01166504 29.44863419 -46.08241211 29.18726166 -45.125 28.91796875 C-44.16352051 28.65494461 -43.20204102 28.39192047 -42.21142578 28.1209259 C-40.17940036 27.56298263 -38.14866123 27.00033649 -36.11914062 26.43334961 C-33.01457548 25.56656941 -29.90621933 24.71469189 -26.796875 23.86523438 C-24.82267573 23.32118602 -22.84870922 22.77629221 -20.875 22.23046875 C-19.94574707 21.97516891 -19.01649414 21.71986908 -18.05908203 21.45683289 C-17.19138184 21.21350723 -16.32368164 20.97018158 -15.4296875 20.71948242 C-14.66897949 20.50772873 -13.90827148 20.29597504 -13.12451172 20.07780457 C-10.95562357 19.36031994 -9.01484917 18.44603093 -7 17.375 C-7.495 15.395 -7.495 15.395 -8 13.375 C-13.76399834 12.97460648 -18.72458033 14.45397583 -24.2109375 16 Z M-27 38.375 C-28.98 39.365 -28.98 39.365 -31 40.375 C-29.69141249 47.54980397 -27.92840997 54.5046512 -25.875 61.5 C-25.59785156 62.45648438 -25.32070313 63.41296875 -25.03515625 64.3984375 C-24.36043779 66.72505287 -23.6820117 69.05051422 -23 71.375 C-20.525 70.88 -20.525 70.88 -18 70.375 C-18.64229425 63.69831166 -20.15403354 57.45811594 -21.9375 51 C-22.33485352 49.50533203 -22.33485352 49.50533203 -22.74023438 47.98046875 C-22.99998047 47.03042969 -23.25972656 46.08039062 -23.52734375 45.1015625 C-23.76187256 44.24127441 -23.99640137 43.38098633 -24.23803711 42.49462891 C-24.8940187 40.19683859 -24.8940187 40.19683859 -27 38.375 Z M11.45898438 76.88208008 C10.81133621 77.05428574 10.16368805 77.22649139 9.49641418 77.40391541 C7.3595446 77.9747318 5.22672848 78.55935736 3.09375 79.14453125 C1.60708713 79.54545459 0.12022687 79.94564666 -1.36682129 80.34513855 C-4.48203366 81.1841882 -7.59540723 82.02965237 -10.70751953 82.88012695 C-14.69298557 83.9690871 -18.68162616 85.0458039 -22.67157745 86.11819935 C-25.74204339 86.9442233 -28.81125174 87.77483713 -31.88005066 88.60703087 C-33.35017086 89.00549179 -34.82055723 89.40297202 -36.29121399 89.79944801 C-38.3483558 90.35518046 -40.40385634 90.91660897 -42.45898438 91.47973633 C-43.62828491 91.79807938 -44.79758545 92.11642242 -46.00231934 92.44441223 C-48.52599275 93.22785112 -50.69674146 94.09895325 -53 95.375 C-53 96.695 -53 98.015 -53 99.375 C-49.0763074 100.68289753 -47.12666611 99.82346003 -43.1418457 98.74438477 C-42.44890411 98.55921295 -41.75596252 98.37404114 -41.04202271 98.18325806 C-38.75105147 97.5689248 -36.46349973 96.94273366 -34.17578125 96.31640625 C-32.58842885 95.88825962 -31.00087609 95.46085518 -29.41313171 95.03416443 C-25.23375536 93.90885476 -21.05718115 92.7734673 -16.88110352 91.63598633 C-12.6196424 90.4771573 -8.35561807 89.32784305 -4.09179688 88.17773438 C4.27467894 85.91948043 12.63821947 83.65057755 21 81.375 C21.33 79.725 21.66 78.075 22 76.375 C18.14157922 74.9341603 15.35852351 75.82838704 11.45898438 76.88208008 Z M-5.078125 102.90625 C-6.81835938 103.37998047 -6.81835938 103.37998047 -8.59375 103.86328125 C-9.8003125 104.19714844 -11.006875 104.53101562 -12.25 104.875 C-14.08304688 105.37580078 -14.08304688 105.37580078 -15.953125 105.88671875 C-18.97001389 106.7116493 -21.98554142 107.54124054 -25 108.375 C-26.79498723 113.59404347 -25.04367831 118.13811264 -23.63842773 123.24804688 C-23.37511154 124.23916977 -23.11179535 125.23029266 -22.84049988 126.25144958 C-21.9652738 129.5351011 -21.07456845 132.81433983 -20.18359375 136.09375 C-19.56787124 138.3901804 -18.95306307 140.68685613 -18.33912659 142.98376465 C-16.71537189 149.0479174 -15.0782638 155.10839039 -13.43865967 161.16827393 C-12.11835429 166.05661545 -10.80729835 170.94741271 -9.49684048 175.83840179 C-7.91631301 181.7368392 -6.33188348 187.63422539 -4.74609375 193.53125 C-4.45052519 194.63037216 -4.15495663 195.72949432 -3.85043144 196.86192322 C-2.18268292 203.05570493 -0.49888102 209.24479427 1.19963455 215.4302063 C2.00910633 218.40850503 2.79463323 221.39245122 3.57809448 224.37768555 C4.08785617 226.26952588 4.59817585 228.16121598 5.10913086 230.05273438 C5.32745606 230.9086039 5.54578127 231.76447342 5.77072239 232.64627838 C7.56629436 239.18062623 10.03044401 243.39529601 15.8125 247.25 C20.36210869 248.85574424 24.39504888 249.35780103 28.92578125 247.6484375 C33.55562563 245.20959014 36.67218687 242.03062625 39 237.375 C39.06996014 235.66797265 39.08440154 233.95831997 39.0625 232.25 C39.05347656 231.33992187 39.04445313 230.42984375 39.03515625 229.4921875 C39.02355469 228.79351562 39.01195313 228.09484375 39 227.375 C38.32453125 227.49359375 37.6490625 227.6121875 36.953125 227.734375 C29.68762791 228.78430233 29.68762791 228.78430233 26.375 226.8125 C24.62614979 223.71226554 24.47744998 221.88355014 25 218.375 C27.21299748 214.73006297 31.06723034 214.33964162 35 213.375 C34.34 211.395 33.68 209.415 33 207.375 C32.3709375 207.519375 31.741875 207.66375 31.09375 207.8125 C17.47342995 210.76630435 17.47342995 210.76630435 13 208.25 C11.495894 205.42980125 11.55087151 203.51889944 12 200.375 C14.9632941 196.60546359 17.63347287 195.62859285 22.25 194.625 C23.32765625 194.38265625 24.4053125 194.1403125 25.515625 193.890625 C26.33546875 193.72046875 27.1553125 193.5503125 28 193.375 C28.93423645 190.36468256 29.04449911 189.50849732 28 186.375 C27.32453125 186.49359375 26.6490625 186.6121875 25.953125 186.734375 C18.68762791 187.78430233 18.68762791 187.78430233 15.375 185.8125 C13.62614979 182.71226554 13.47744998 180.88355014 14 177.375 C16.21299748 173.73006297 20.06723034 173.33964162 24 172.375 C23.34 170.395 22.68 168.415 22 166.375 C21.3709375 166.519375 20.741875 166.66375 20.09375 166.8125 C6.47342995 169.76630435 6.47342995 169.76630435 2 167.25 C0.495894 164.42980125 0.55087151 162.51889944 1 159.375 C3.9632941 155.60546359 6.63347287 154.62859285 11.25 153.625 C12.32765625 153.38265625 13.4053125 153.1403125 14.515625 152.890625 C15.33546875 152.72046875 16.1553125 152.5503125 17 152.375 C17.93423645 149.36468256 18.04449911 148.50849732 17 145.375 C16.09507813 145.51808594 16.09507813 145.51808594 15.171875 145.6640625 C14.37265625 145.77492187 13.5734375 145.88578125 12.75 146 C11.96109375 146.11601562 11.1721875 146.23203125 10.359375 146.3515625 C7.6393221 146.37858289 6.26514161 145.84834432 4 144.375 C2.60064987 141.57629973 2.74734595 139.47001208 3 136.375 C5.21299748 132.73006297 9.06723034 132.33964162 13 131.375 C12.34 129.395 11.68 127.415 11 125.375 C10.3709375 125.519375 9.741875 125.66375 9.09375 125.8125 C-4.52657005 128.76630435 -4.52657005 128.76630435 -9 126.25 C-10.504106 123.42980125 -10.44912849 121.51889944 -10 118.375 C-7.0367059 114.60546359 -4.36652713 113.62859285 0.25 112.625 C1.32765625 112.38265625 2.4053125 112.1403125 3.515625 111.890625 C4.33546875 111.72046875 5.1553125 111.5503125 6 111.375 C7.22419163 107.43704091 6.48320272 105.21387763 5 101.375 C1.19865474 101.375 -1.44400997 101.9086498 -5.078125 102.90625 Z M31 262.375 C31 263.365 31 264.355 31 265.375 C31.66 265.045 32.32 264.715 33 264.375 C32.34 263.715 31.68 263.055 31 262.375 Z " fill="#000000" transform="translate(83,10.625)"/>
</svg>
