<?xml version="1.0" encoding="UTF-8"?>
<svg version="1.1" xmlns="http://www.w3.org/2000/svg" width="512" height="512">
<path d="M0 0 C0.73524902 0.18804199 1.47049805 0.37608398 2.22802734 0.56982422 C21.53373146 5.62024463 39.41482859 14.02505161 57.13818359 23.05322266 C69.8640078 29.52460297 81.37552569 34.9499909 96 32 C104.40398814 29.03141962 112.28669456 24.89630246 120.1875 20.8125 C148.64162456 6.40827787 184.05384948 -10.18299349 216.44140625 -0.3125 C234.56469678 6.37183109 247.80835534 19.07561526 256.3125 36.375 C282.84478416 97.97038447 226.22588495 225.45405864 199.2421875 301.13671875 C194.70747164 312.36184529 189.6943056 323.31719559 184 334 C183.42765625 335.12019531 182.8553125 336.24039062 182.265625 337.39453125 C177.75659652 345.78173789 172.53163499 351.50736685 163.5 354.9375 C155.36689322 357.20687642 147.731269 356.32943359 140 353 C132.13032734 348.33598071 127.00466856 342.31300465 124.03686523 333.67456055 C123.78741118 332.97933887 123.53795713 332.28411718 123.28094387 331.56782818 C122.50405877 329.3839259 121.74856604 327.19375732 121 325 C120.76618244 324.31786564 120.53236488 323.63573128 120.29146194 322.93292618 C118.62256679 318.03782737 117.01258312 313.12420744 115.41015625 308.20703125 C114.89772688 306.64342707 114.38497821 305.07992749 113.87193298 303.51652527 C112.53517862 299.44044739 111.20235897 295.36309456 109.87054443 291.28540039 C108.5336791 287.1941219 107.19357475 283.10390517 105.85351562 279.01367188 C105.59205435 278.21552 105.33059307 277.41736813 105.06120872 276.59502983 C104.28175104 274.21567737 103.50221585 271.83635032 102.72265625 269.45703125 C102.46971424 268.68497471 102.21677223 267.91291817 101.95616531 267.11746597 C100.52003989 262.73422944 99.08333714 258.35118293 97.64566803 253.96845245 C97.03363897 252.10255535 96.42193099 250.23655294 95.8102417 248.37054443 C94.81309701 245.3331322 93.81187647 242.297108 92.80859375 239.26171875 C92.52935562 238.40963333 92.25011749 237.55754791 91.9624176 236.67964172 C90.98712533 233.05770978 90.98712533 233.05770978 89 230 C87.33382885 229.95936168 85.66611905 229.957279 84 230 C81.06493362 237.0719089 78.52211485 244.21329627 76.1640625 251.49609375 C75.80797409 252.58719452 75.45188568 253.67829529 75.08500671 254.80245972 C74.32343821 257.13742215 73.56333959 259.47286444 72.80459595 261.80874634 C71.61149124 265.47905658 70.41227005 269.14732089 69.21166992 272.81518555 C65.73331954 283.45362456 62.26967587 294.09561192 58.91247559 304.772995 C57.67593234 308.70492751 56.42816816 312.63326233 55.18011475 316.56155396 C54.60827183 318.37469628 54.04272556 320.18983829 53.48394775 322.00704956 C49.54738333 334.80843183 45.94708483 346.18888683 33.41015625 352.8828125 C24.89052017 356.83194689 16.4292704 357.21436969 7.54296875 354.2109375 C-2.80329154 349.28414689 -8.07926279 339.82948433 -13 330 C-13.34353516 329.33307129 -13.68707031 328.66614258 -14.04101562 327.97900391 C-36.04286341 285.05126707 -48.48763704 236.35448733 -61 190 C-61.26598999 189.01640503 -61.53197998 188.03281006 -61.80603027 187.01940918 C-68.74640519 161.31272898 -75.16814312 135.5002172 -81.1875 109.5625 C-81.46803223 108.35450745 -81.74856445 107.14651489 -82.03759766 105.9019165 C-82.83520059 102.45768448 -83.62789794 99.01237319 -84.41796875 95.56640625 C-84.65069992 94.55706528 -84.88343109 93.5477243 -85.12321472 92.50779724 C-90.09589871 70.65736879 -91.43637898 49.45484384 -79.4375 29.38671875 C-77.72134026 26.8323421 -75.90946134 24.41297041 -74 22 C-73.35417969 21.16597656 -72.70835938 20.33195312 -72.04296875 19.47265625 C-63.98604 9.77145633 -53.04271914 2.7581589 -41 -1 C-40.33484375 -1.22300781 -39.6696875 -1.44601563 -38.984375 -1.67578125 C-26.45089016 -5.19185429 -12.3339935 -3.22563241 0 0 Z M-63 28 C-74.54643647 42.53492591 -77.51610435 57.83412496 -76 76 C-74.7096967 84.9054322 -72.49102656 93.63763793 -70.375 102.375 C-69.7840536 104.88027402 -69.19423185 107.38581355 -68.60546875 109.89160156 C-59.07989776 150.1520677 -48.46879554 190.10862581 -36.66546631 229.7600708 C-36.05794355 231.80496465 -35.45477601 233.85106374 -34.85400391 235.89794922 C-25.65298363 267.16735066 -15.16450103 298.81934801 -0.125 327.8125 C0.39259888 328.8171228 0.39259888 328.8171228 0.9206543 329.84204102 C3.95034451 335.44179992 8.02006581 340.53002718 14 343 C19.47309707 343.7843336 24.44718079 343.76485247 29.375 341.0625 C38.62224771 333.9403337 40.96177938 320.61274274 44.3125 310 C44.91414767 308.11937272 45.51687268 306.2390898 46.12060547 304.35913086 C47.40596841 300.35493875 48.687213 296.34945989 49.96630859 292.34326172 C53.12284299 282.47638347 56.34941413 272.63227792 59.57064819 262.78637695 C60.9325983 258.62196092 62.29150363 254.45655406 63.65039062 250.2911377 C64.56648396 247.48630728 65.48572181 244.6825243 66.40551758 241.87890625 C67.36982265 238.93782001 68.32297392 235.99393235 69.2565918 233.04296875 C69.60117432 231.96789062 69.94575684 230.8928125 70.30078125 229.78515625 C70.57575439 228.91125244 70.85072754 228.03734863 71.1340332 227.13696289 C72.93860851 222.68377777 76.06715457 220.62189695 80 218 C86.35603591 216.57537126 91.13793566 217.05155576 97 220 C105.38562318 227.25243086 107.9283349 244.63065727 111.375 255 C111.67525085 255.90163879 111.97550171 256.80327759 112.28485107 257.73223877 C118.00866567 274.92326789 123.63437438 292.14580876 129.22209167 309.38150024 C130.01128316 311.81285445 130.80371149 314.24313558 131.59643555 316.67333984 C132.46911071 319.35138168 133.3228286 322.03264502 134.16333008 324.72119141 C134.50001709 325.78257324 134.8367041 326.84395508 135.18359375 327.9375 C135.45743896 328.82050781 135.73128418 329.70351563 136.01342773 330.61328125 C138.1127047 335.69185874 141.74141722 339.53497333 146.3125 342.5 C151.84796438 343.52985384 157.55051909 344.09291404 162.75 341.5625 C179.77292134 329.64165687 188.67586792 294.6199208 195 276 C195.26899109 275.21044922 195.53798218 274.42089844 195.81512451 273.60742188 C214.79432776 217.79459503 230.11078592 160.76825154 243.25 103.3125 C243.59638519 101.79816376 243.59638519 101.79816376 243.94976807 100.25323486 C249.48965672 75.93947373 254.03511181 55.71185728 240 33 C230.79094187 20.71565421 218.85632448 12.20523019 203.6796875 9.26171875 C174.29853858 6.39213132 144.32770267 22.58384339 119.09521484 35.54272461 C101.82475724 44.38838802 87.07878016 47.95669614 68 42 C64.21377323 40.47591392 60.58204007 38.70903893 56.9375 36.875 C54.9127625 35.88541241 52.88802288 34.89582914 50.86328125 33.90625 C48.07373671 32.52664076 45.28638324 31.14282783 42.50146484 29.75390625 C8.82690208 13.01175075 -33.02500277 -4.6455807 -63 28 Z " fill="#000000" transform="translate(185,151)"/>
<path d="M0 0 C1.22847656 -0.02449219 2.45695312 -0.04898437 3.72265625 -0.07421875 C11.76224111 -0.10006951 18.89566367 0.42137008 24.99755859 6.12548828 C27.30088394 8.60848019 28.89870387 10.56619333 29.82156372 13.86459351 C30.91951921 16.60806659 30.91951921 16.60806659 33.76486206 17.58560181 C35.45109177 17.99883194 35.45109177 17.99883194 37.17138672 18.42041016 C37.79455623 18.57923644 38.41772573 18.73806273 39.05977917 18.90170193 C41.13698778 19.42580838 43.22024511 19.91958462 45.3046875 20.4140625 C46.77175488 20.77895807 48.23833607 21.14581335 49.70445251 21.51451111 C53.64333261 22.49903904 57.58812562 23.45718197 61.53552628 24.40690994 C68.14526949 25.99758342 74.75036494 27.60759511 81.3554554 29.21746254 C82.999011 29.61746943 84.6428562 30.01628821 86.2869854 30.41393089 C96.16777918 32.8060949 105.86427275 35.42276152 115.5107336 38.64911079 C132.93013825 44.32022943 150.48201439 46.05322846 168.703125 46.15234375 C170.74574598 46.18008147 172.7883443 46.20953428 174.83091736 46.24060059 C185.2541318 46.38276926 195.67507998 46.38191891 206.09887695 46.31860352 C207.08426264 46.31379691 208.06964832 46.30899031 209.08489418 46.30403805 C213.7861779 46.28001623 218.48596687 46.23930502 223.18670654 46.16319275 C224.86478298 46.14744738 226.54286313 46.13208984 228.22094727 46.1171875 C228.98270673 46.09850396 229.74446619 46.07982042 230.52930927 46.06057072 C235.60217167 46.03591075 235.60217167 46.03591075 238.10728455 47.66064453 C239.76772187 50.4576737 239.30396119 53.21335233 239.125 56.375 C239.67961914 56.34881592 240.23423828 56.32263184 240.80566406 56.2956543 C243.32848569 56.19145997 245.85085489 56.12661109 248.375 56.0625 C249.24769531 56.02060547 250.12039063 55.97871094 251.01953125 55.93554688 C255.00711713 55.85944791 257.36323451 55.85488217 260.7109375 58.140625 C262.91332722 63.1781352 262.62264534 68.0056023 262.5 73.4375 C262.49806641 75.07041992 262.49806641 75.07041992 262.49609375 76.73632812 C262.39529731 85.83600714 262.39529731 85.83600714 260.125 89.375 C257.77647472 90.54926264 256.38725935 90.49008173 253.7734375 90.47265625 C252.49726562 90.46782227 252.49726562 90.46782227 251.1953125 90.46289062 C250.30585938 90.45451172 249.41640625 90.44613281 248.5 90.4375 C247.6028125 90.43298828 246.705625 90.42847656 245.78125 90.42382812 C243.56243352 90.41202591 241.34374982 90.39556155 239.125 90.375 C239.2178125 91.5196875 239.2178125 91.5196875 239.3125 92.6875 C239.125 95.375 239.125 95.375 238.13072205 96.99688721 C234.97270051 99.16673416 231.56000223 98.98064152 227.84594727 99.11230469 C226.99366169 99.15231944 226.14137611 99.19233419 225.2632637 99.23356152 C222.40636403 99.35849265 219.5495952 99.4563138 216.69140625 99.546875 C215.69692663 99.57958559 214.70244701 99.61229618 213.67783165 99.645998 C206.01528915 99.8842394 198.35296681 100.02356823 190.6875 100.125 C188.99845299 100.14974207 188.99845299 100.14974207 187.27528381 100.17498398 C140.71774315 100.77894791 100.61788952 91.5136963 57.1856432 75.50885868 C49.61149276 72.75958874 41.87751604 70.55889491 34.125 68.375 C34.10828247 69.37889771 34.09156494 70.38279541 34.07434082 71.41711426 C34.01617565 74.72685985 33.94317225 78.03572902 33.86254883 81.3449707 C33.82938741 82.81426422 33.80132822 84.28368244 33.77856445 85.75317383 C33.74485481 87.87114368 33.69253567 89.98797995 33.63671875 92.10546875 C33.61053467 93.37801514 33.58435059 94.65056152 33.55737305 95.96166992 C33.06381292 99.85803588 31.92436666 102.57563334 29.125 105.375 C26.45441149 105.51615161 23.80067762 105.41747107 21.125 105.375 C21.35219727 106.25853149 21.35219727 106.25853149 21.58398438 107.15991211 C22.27539361 109.87475705 22.95025676 112.5934671 23.625 115.3125 C23.86347656 116.23869141 24.10195312 117.16488281 24.34765625 118.11914062 C25.79659722 124.0184003 26.65620548 129.29631908 26.125 135.375 C22.97333501 137.47611 22.20894762 137.62896555 18.609375 137.6496582 C17.69833008 137.65919022 16.78728516 137.66872223 15.84863281 137.67854309 C14.86733398 137.67763168 13.88603516 137.67672028 12.875 137.67578125 C11.8653418 137.68006638 10.85568359 137.6843515 9.81542969 137.68876648 C7.68034617 137.6945105 5.54524309 137.69500952 3.41015625 137.69067383 C0.1376828 137.68751225 -3.13388826 137.71097815 -6.40625 137.73632812 C-8.47916552 137.73860088 -10.55208348 137.73930472 -12.625 137.73828125 C-13.60629883 137.747491 -14.58759766 137.75670074 -15.59863281 137.76618958 C-16.50967773 137.75996078 -17.42072266 137.75373199 -18.359375 137.74731445 C-19.56158691 137.74825859 -19.56158691 137.74825859 -20.78808594 137.7492218 C-23.41198862 137.27870813 -24.29669127 136.49486125 -25.875 134.375 C-26.58498661 128.17068517 -24.88983691 122.42724702 -23.375 116.4375 C-23.01728516 114.9824707 -23.01728516 114.9824707 -22.65234375 113.49804688 C-22.06706612 111.12181968 -21.47446749 108.74767958 -20.875 106.375 C-21.81472656 106.19324219 -21.81472656 106.19324219 -22.7734375 106.0078125 C-23.59070313 105.84023437 -24.40796875 105.67265625 -25.25 105.5 C-26.06210938 105.33757812 -26.87421875 105.17515625 -27.7109375 105.0078125 C-29.875 104.375 -29.875 104.375 -31.875 102.375 C-32.08405107 99.67685038 -32.16864731 97.0804945 -32.16552734 94.38037109 C-32.17224457 93.55412231 -32.17896179 92.72787354 -32.18588257 91.87658691 C-32.20494176 89.13380986 -32.20879153 86.39127674 -32.2109375 83.6484375 C-32.21736281 81.74231871 -32.22409096 79.83620092 -32.23110962 77.93008423 C-32.24310421 73.92683631 -32.24678849 69.92367479 -32.24560547 65.92041016 C-32.24540281 60.80252639 -32.27263983 55.68520125 -32.30714989 50.56744957 C-32.32945017 46.62620528 -32.33344196 42.68509439 -32.33238602 38.74379349 C-32.33473977 36.85802928 -32.34355054 34.97226127 -32.35905075 33.0865593 C-32.37876245 30.43931523 -32.37285143 27.79326149 -32.36083984 25.14599609 C-32.37207886 24.37373688 -32.38331787 23.60147766 -32.39489746 22.80581665 C-32.32125453 16.3823499 -30.30500522 11.30913218 -26.19921875 6.3515625 C-25.65910156 5.90554687 -25.11898437 5.45953125 -24.5625 5 C-24.03011719 4.53851562 -23.49773437 4.07703125 -22.94921875 3.6015625 C-15.87479807 -0.58180491 -7.96994723 0.00831069 0 0 Z M-17.16015625 15.78125 C-19.9142582 19.94690761 -19.99727764 22.18763625 -19.98852539 27.21142578 C-19.98867142 27.91397491 -19.98881744 28.61652405 -19.9889679 29.34036255 C-19.98827014 31.66704373 -19.98048419 33.99364527 -19.97265625 36.3203125 C-19.97079158 37.93171139 -19.96936791 39.54311084 -19.96836853 41.1545105 C-19.9645472 45.39928752 -19.95472018 49.64403042 -19.94366455 53.88879395 C-19.93164544 58.979897 -19.92704636 64.07101146 -19.92121124 69.16212463 C-19.91150823 76.8997735 -19.892349 84.63734747 -19.875 92.375 C-6.675 92.375 6.525 92.375 20.125 92.375 C20.37463936 80.61764015 20.37463936 80.61764015 20.60302734 68.85986328 C20.6382255 67.38832769 20.67414588 65.91680912 20.7109375 64.4453125 C20.72229736 63.67823975 20.73365723 62.91116699 20.74536133 62.12084961 C20.8968564 56.6031436 20.8968564 56.6031436 23.125 54.375 C28.99607993 53.94951341 33.76454062 54.82509638 39.34375 56.5625 C40.08709595 56.78446045 40.83044189 57.0064209 41.59631348 57.23510742 C43.94243244 57.93818937 46.28362874 58.65628488 48.625 59.375 C50.2262599 59.85777565 51.8278202 60.33955608 53.4296875 60.8203125 C57.33169025 61.99373862 61.22935615 63.18064083 65.125 64.375 C66.99833849 61.56499226 67.74179646 59.68431704 68.6328125 56.48828125 C68.89707031 55.55048828 69.16132813 54.61269531 69.43359375 53.64648438 C69.70300781 52.67001953 69.97242188 51.69355469 70.25 50.6875 C70.66572266 49.20540039 70.66572266 49.20540039 71.08984375 47.69335938 C71.77300077 45.25519553 72.45118448 42.81575886 73.125 40.375 C65.05764124 38.1813039 56.97705234 36.06941961 48.85546875 34.0859375 C48.07422638 33.89437073 47.29298401 33.70280396 46.48806763 33.50543213 C43.27058667 32.7167453 40.05299437 31.92876265 36.83276367 31.15136719 C34.44288067 30.57346335 32.0553075 29.98674999 29.66796875 29.3984375 C28.93789108 29.22444427 28.20781342 29.05045105 27.45561218 28.8711853 C22.35235819 27.60235819 22.35235819 27.60235819 20.125 25.375 C19.34889875 23.12771781 18.72863353 20.85937081 18.1015625 18.56640625 C16.86179016 15.78435711 15.73366361 14.93953976 13.125 13.375 C8.67032987 12.71939697 4.18528301 12.86558549 -0.3125 12.875 C-1.54033203 12.84664062 -2.76816406 12.81828125 -4.03320312 12.7890625 C-11.1849984 12.48859792 -11.1849984 12.48859792 -17.16015625 15.78125 Z M85.125 43.375 C83.94847528 46.7883521 82.78551826 50.20617595 81.625 53.625 C81.12419922 55.07712891 81.12419922 55.07712891 80.61328125 56.55859375 C80.29746094 57.49316406 79.98164063 58.42773438 79.65625 59.390625 C79.36298828 60.24946289 79.06972656 61.10830078 78.76757812 61.99316406 C77.95135313 64.60748926 77.95135313 64.60748926 78.125 68.375 C80.39449102 69.04655349 82.6653961 69.7123963 84.9375 70.375 C86.20207031 70.74625 87.46664062 71.1175 88.76953125 71.5 C92.03087415 72.50116509 92.03087415 72.50116509 95.125 72.375 C97.765 64.455 100.405 56.535 103.125 48.375 C99.24362939 46.43431469 96.09966903 45.61058073 91.875 44.75 C90.61171875 44.48960938 89.3484375 44.22921875 88.046875 43.9609375 C87.08265625 43.76757812 86.1184375 43.57421875 85.125 43.375 Z M114.125 51.375 C112.95382795 55.16529008 111.78882785 58.95744902 110.625 62.75 C110.29113281 63.83023438 109.95726562 64.91046875 109.61328125 66.0234375 C109.29746094 67.0546875 108.98164063 68.0859375 108.65625 69.1484375 C108.21635742 70.57808838 108.21635742 70.57808838 107.76757812 72.03662109 C107.03667534 74.29224163 107.03667534 74.29224163 107.125 76.375 C112.33317152 78.14648691 117.55015838 79.88659157 122.77880859 81.59667969 C124.78383287 82.26182198 126.77796421 82.95964972 128.76953125 83.6640625 C138.75314208 86.95640391 147.68831083 86.67751273 158.125 86.375 C158.125 77.135 158.125 67.895 158.125 58.375 C156.145 58.33375 154.165 58.2925 152.125 58.25 C143.6010483 57.86254765 135.54539989 55.67597411 127.33984375 53.45849609 C126.34855469 53.19246582 125.35726562 52.92643555 124.3359375 52.65234375 C123.45212402 52.40734131 122.56831055 52.16233887 121.65771484 51.90991211 C119.07210547 51.36382862 116.7593648 51.2782745 114.125 51.375 Z M171.125 58.375 C171.125 67.615 171.125 76.855 171.125 86.375 C177.065 86.375 183.005 86.375 189.125 86.375 C189.125 77.135 189.125 67.895 189.125 58.375 C183.185 58.375 177.245 58.375 171.125 58.375 Z M201.125 58.375 C201.125 67.615 201.125 76.855 201.125 86.375 C209.705 86.375 218.285 86.375 227.125 86.375 C227.125 77.135 227.125 67.895 227.125 58.375 C218.545 58.375 209.965 58.375 201.125 58.375 Z M239.125 69.375 C239.125 72.345 239.125 75.315 239.125 78.375 C242.425 78.375 245.725 78.375 249.125 78.375 C249.125 75.405 249.125 72.435 249.125 69.375 C245.825 69.375 242.525 69.375 239.125 69.375 Z M-6.875 105.375 C-9.32412697 112.16576115 -10.55317526 118.10496391 -11.875 125.375 C-3.955 125.375 3.965 125.375 12.125 125.375 C11.48201247 120.23109977 10.84885574 115.79670893 9.5625 110.875 C9.088125 109.06 8.61375 107.245 8.125 105.375 C3.175 105.375 -1.775 105.375 -6.875 105.375 Z " fill="#000000" transform="translate(224.875,4.625)"/>
<path d="M0 0 C5.10220675 1.83679443 6.88726016 6.60587489 9.20507812 11.32324219 C9.71651367 12.41427246 9.71651367 12.41427246 10.23828125 13.52734375 C15.58987821 24.77352419 20.92385687 30.18754401 32.25097656 35.27392578 C43.02962347 40.16897048 43.02962347 40.16897048 45.875 45.25 C46.15901305 48.51615012 45.91907185 49.4403737 44.125 52.125 C41.7265625 53.77246094 41.7265625 53.77246094 38.75 55.359375 C37.68265625 55.93300781 36.6153125 56.50664062 35.515625 57.09765625 C34.39671875 57.68417969 33.2778125 58.27070313 32.125 58.875 C31.00609375 59.47699219 29.8871875 60.07898438 28.734375 60.69921875 C20.4247449 65.125 20.4247449 65.125 18.125 65.125 C17.85171875 65.84139648 17.5784375 66.55779297 17.296875 67.29589844 C15.27509863 72.17680355 12.65083127 76.7403379 10.125 81.375 C9.5784375 82.39335937 9.031875 83.41171875 8.46875 84.4609375 C7.9428125 85.42773438 7.416875 86.39453125 6.875 87.390625 C6.39546875 88.27524414 5.9159375 89.15986328 5.421875 90.07128906 C4.125 92.125 4.125 92.125 2.125 93.125 C-3.29411239 93.58620105 -3.29411239 93.58620105 -5.37036133 91.93774414 C-7.21838196 89.71130358 -8.58677641 87.39040916 -10.01171875 84.87109375 C-10.58857422 83.85208984 -11.16542969 82.83308594 -11.75976562 81.78320312 C-12.35466797 80.72037109 -12.94957031 79.65753906 -13.5625 78.5625 C-14.16900391 77.49580078 -14.77550781 76.42910156 -15.40039062 75.33007812 C-19.875 67.38248735 -19.875 67.38248735 -19.875 65.125 C-20.65359375 64.90328125 -21.4321875 64.6815625 -22.234375 64.453125 C-27.10734633 62.6754316 -31.56190973 60.32749664 -36.125 57.875 C-37.03507812 57.40964844 -37.94515625 56.94429687 -38.8828125 56.46484375 C-45.37890342 52.96620725 -45.37890342 52.96620725 -47.671875 49.078125 C-47.92946735 45.33312852 -47.0853282 44.11713326 -44.875 41.125 C-42.45825195 39.58618164 -42.45825195 39.58618164 -39.61328125 38.28515625 C-38.58001709 37.78685303 -37.54675293 37.2885498 -36.48217773 36.77514648 C-35.39493408 36.25122314 -34.30769043 35.7272998 -33.1875 35.1875 C-22.26816498 29.61287947 -17.43186528 25.42756191 -12.875 14.125 C-11.64153344 11.85430019 -10.37198732 9.60272537 -9.0625 7.375 C-8.51980469 6.41078125 -7.97710937 5.4465625 -7.41796875 4.453125 C-5.31988062 1.28740214 -3.82668108 0.16637744 0 0 Z M-0.875 20.125 C-1.66665892 21.24245702 -2.4067598 22.39649612 -3.125 23.5625 C-3.82109375 24.66078125 -3.82109375 24.66078125 -4.53125 25.78125 C-5.91173059 28.0473512 -5.91173059 28.0473512 -6.71875 30.34375 C-10.36484876 39.27040559 -19.63807756 42.2835246 -27.875 46.125 C-25.01559593 49.19702096 -22.0457487 50.5055913 -18.25 52.3125 C-9.39939262 56.88826172 -5.89869683 64.3537667 -1.875 73.125 C-1.215 73.125 -0.555 73.125 0.125 73.125 C0.57746094 72.08601563 1.02992187 71.04703125 1.49609375 69.9765625 C7.20254744 57.96722195 14.27059149 52.78680705 26.125 47.125 C23.8800576 45.26599201 21.90950786 44.0344183 19.20703125 42.8984375 C8.14848714 38.16849868 4.75720983 30.76591611 0.125 20.125 C-0.205 20.125 -0.535 20.125 -0.875 20.125 Z " fill="#000000" transform="translate(72.875,88.875)"/>
<path d="M0 0 C3.97298533 0.47675824 4.61038979 1.29999094 7.125 4.375 C7.7718336 5.66074538 8.38195579 6.9652802 8.96484375 8.28125 C14.97981556 21.71639653 23.09982705 27.23921788 36.24243164 33.44555664 C38.125 34.375 38.125 34.375 39.125 35.375 C39.5 38.6875 39.5 38.6875 39.125 42.375 C35.26870281 46.08153808 30.58313179 48.54362632 25.9375 51.125 C25.21369141 51.53621094 24.48988281 51.94742188 23.74414062 52.37109375 C18.38002232 55.375 18.38002232 55.375 16.125 55.375 C15.74988281 56.63763672 15.74988281 56.63763672 15.3671875 57.92578125 C14.00742822 61.70146503 12.2407537 65.0953323 10.25 68.5625 C9.91097656 69.17802734 9.57195312 69.79355469 9.22265625 70.42773438 C7.28320191 73.8309974 5.57121813 76.42497945 2.125 78.375 C-0.375 78.375 -0.375 78.375 -2.875 77.375 C-5.92606364 74.05398629 -7.90454417 70.53341798 -9.91748047 66.55029297 C-14.00440752 58.57368793 -17.49579601 54.07426339 -25.875 50.375 C-27.90402669 49.30709122 -29.92497365 48.22368838 -31.9375 47.125 C-33.31615234 46.40570313 -33.31615234 46.40570313 -34.72265625 45.671875 C-36.875 44.375 -36.875 44.375 -37.875 42.375 C-38.5 39.125 -38.5 39.125 -37.875 35.375 C-34.47772985 31.9862872 -30.19345882 29.89574977 -25.76953125 28.1484375 C-14.58130424 23.36303096 -10.90482194 14.97302318 -5.90551758 4.3269043 C-4.29771944 1.28157235 -3.46708657 0.45222868 0 0 Z M0.125 19.375 C-0.91301555 21.26148044 -1.92983167 23.15963656 -2.9375 25.0625 C-5.71884918 29.9269996 -7.9850985 32.87686258 -12.98046875 35.41015625 C-15.14610651 36.51306868 -16.9645682 37.87969529 -18.875 39.375 C-18.08996094 39.74109375 -17.30492187 40.1071875 -16.49609375 40.484375 C-7.90970606 44.90926191 -3.93475564 49.66939723 0.125 58.375 C2.44988269 55.58227643 4.17323106 53.26889168 5.6875 49.9375 C8.46071591 44.77592262 14.03361199 42.77146367 19.125 40.375 C17.90474937 36.7142481 16.998509 36.45160559 13.6875 34.6875 C12.88441406 34.25050781 12.08132812 33.81351563 11.25390625 33.36328125 C9.21384169 32.23464586 9.21384169 32.23464586 7.125 32.375 C6.8775 31.715 6.63 31.055 6.375 30.375 C4.80682955 26.61139093 2.97994954 23.0038576 1.125 19.375 C0.795 19.375 0.465 19.375 0.125 19.375 Z " fill="#000000" transform="translate(164.875,186.625)"/>
</svg>
