<?xml version="1.0" encoding="UTF-8"?>
<svg version="1.1" xmlns="http://www.w3.org/2000/svg" width="512" height="512">
<path d="M0 0 C3.41421647 2.36904816 4.64346607 3.97496494 6 7.875 C6 13.37014742 3.82042453 17.40151313 0.09594727 21.27880859 C-1.07117796 22.41177064 -2.24827514 23.53452363 -3.43359375 24.6484375 C-4.73644588 25.91524349 -6.03917606 27.18217491 -7.34179688 28.44921875 C-9.37111945 30.39874604 -11.40463558 32.34369254 -13.44213867 34.28466797 C-39.2665315 58.98184335 -57.26987875 91.43981841 -58.203125 127.87109375 C-58.34982221 140.5893559 -57.90270284 152.59440095 -55 165 C-53.97261719 164.45730469 -52.94523438 163.91460937 -51.88671875 163.35546875 C-36.82032244 155.52604683 -22.12058444 150.86909486 -5 154 C-5.20496094 153.23816406 -5.40992188 152.47632813 -5.62109375 151.69140625 C-7.24639449 145.46238285 -8.62088274 139.43314605 -9 133 C-9.061875 131.99646484 -9.061875 131.99646484 -9.125 130.97265625 C-9.84589771 106.77752675 -0.29215219 85.31128548 15.9755249 67.88360596 C20.74391075 62.87292002 25.59509185 57.94671929 30.47485352 53.04467773 C33.0739992 50.42591401 35.65104577 47.78656285 38.22851562 45.14648438 C39.89191051 43.47004474 41.55657985 41.79486847 43.22265625 40.12109375 C43.98433609 39.33472031 44.74601593 38.54834686 45.53077698 37.73814392 C50.18982456 33.11734443 53.42833014 30.82937387 60 30 C63.39014648 30.69343905 64.76780654 31.78663303 67.3125 34.125 C69.07988981 37.13610857 69.761725 39.39612046 69.57766724 42.90835571 C68.86028537 45.50588522 67.76032648 46.79515626 65.94482422 48.77880859 C65.3087323 49.47472107 64.67264038 50.17063354 64.01727295 50.88763428 C60.81366071 54.24226245 57.52576634 57.49830768 54.1953125 60.7265625 C52.70902654 62.18557792 51.22336923 63.64523396 49.73828125 65.10546875 C47.43845589 67.36229759 45.13523657 69.61508447 42.82080078 71.85693359 C26.37661218 87.80930711 13.75874119 103.37071082 12.93359375 127.375 C13.26337298 145.37706625 20.17426079 161.69533274 33.0625 174.3125 C47.52881031 186.24973508 65.5730071 190.74287635 84 189 C105.52295535 185.82423526 118.43408751 171.73497667 132.97277451 157.07182503 C135.09736985 154.92962013 137.2256776 152.7911661 139.35501099 150.65367126 C145.40084498 144.5835576 151.44080239 138.50762033 157.4765625 132.42749023 C161.18615582 128.69114186 164.90058486 124.95965802 168.61804581 121.23113823 C170.0289463 119.81403372 171.43794692 118.39503502 172.84499741 116.97410774 C174.80473739 114.99518397 176.77053099 113.02246754 178.73779297 111.05102539 C179.31549942 110.46455734 179.89320587 109.87808929 180.48841858 109.27384949 C184.67468253 105.0977341 187.05435667 103.18529936 192.9375 102.625 C197.04616551 102.71698505 199.10821749 104.02058772 202 107 C203.58324757 110.16649513 203.64374236 113.57458194 203 117 C200.13840115 121.77811303 196.73542723 125.55628762 192.80126953 129.47338867 C192.18919144 130.0905777 191.57711334 130.70776672 190.94648743 131.34365845 C188.93038742 133.37360376 186.90699858 135.39608867 184.8828125 137.41796875 C183.46453412 138.84014001 182.04647752 140.26253249 180.62863159 141.68513489 C177.65458349 144.66663675 174.67670093 147.64424489 171.69628906 150.61938477 C167.91135214 154.39856259 164.13782527 158.18890276 160.36743355 161.98258495 C157.43842423 164.92647026 154.50236258 167.86324571 151.56435776 170.79815102 C150.17241933 172.19059686 148.78278856 173.58535408 147.39569473 174.98262596 C126.33884598 196.17483751 105.72806006 211.24509765 74.8125 211.4375 C65.87682805 211.38118812 57.52273049 210.89841847 49 208 C49.33 208.99 49.66 209.98 50 211 C51.11581447 227.93033879 47.01269646 241.26813656 39 256 C38.67 256.66 38.34 257.32 38 258 C73.46919298 264.88085961 108.91590904 260.09890549 139.8359375 240.66796875 C142.97748071 238.53753981 146.02497898 236.35314998 149 234 C149.77190674 233.40324463 150.54381348 232.80648926 151.33911133 232.19165039 C159.30802399 225.88006313 166.34484261 218.82438995 173.4375 211.5625 C175.72202158 209.22463587 178.01324265 206.89363281 180.30859375 204.56640625 C180.82215927 204.03624405 181.33572479 203.50608185 181.86485291 202.95985413 C186.58103496 198.17939502 186.58103496 198.17939502 190 197 C195.16431564 197 197.03709795 197.17752117 201 200.5625 C202.91404155 203.85225891 203.87911302 206.12316175 203.59619141 209.96191406 C201.27631962 217.89241761 191.28814211 224.9312767 185.50488281 230.73535156 C183.89174409 232.35815558 182.28965088 233.99135721 180.6875 235.625 C171.40217965 245.00577161 161.40225537 253.27062086 150.125 260.1875 C149.12412354 260.80383301 149.12412354 260.80383301 148.10302734 261.43261719 C114.29434765 281.84690834 74.49916695 287.15471244 36 280 C36.14002441 280.6813501 36.28004883 281.3627002 36.42431641 282.06469727 C38.04598687 290.69568343 38.39872813 299.18370201 38.375 307.9375 C38.37478851 308.65999939 38.37457703 309.38249878 38.37435913 310.12689209 C38.33855518 322.42885882 37.25446726 334.10287467 34 346 C33.82339844 346.66515625 33.64679688 347.3303125 33.46484375 348.015625 C27.94126561 368.14599868 17.38547271 386.14610362 4 402 C3.30132812 402.83402344 2.60265625 403.66804688 1.8828125 404.52734375 C-3.53608393 410.78510849 -9.42208089 415.98947568 -16 421 C-16.52722656 421.40750488 -17.05445313 421.81500977 -17.59765625 422.23486328 C-45.04684838 443.31655664 -77.79155933 451.77065323 -112 451 C-112.15130371 451.58450928 -112.30260742 452.16901855 -112.45849609 452.77124023 C-114.68082404 461.14546893 -117.20141631 469.41646955 -119.85888672 477.66137695 C-120.36916535 479.26067279 -120.86920428 480.86327232 -121.35888672 482.46899414 C-124.9400402 494.18967648 -129.0001899 503.53244044 -139.625 510.625 C-146.43503583 513.47159498 -154.97899504 513.20523491 -161.9453125 511.1171875 C-169.28477062 507.72801877 -175.26438844 502.74057993 -178.34155273 495.14160156 C-179.69941168 490.72516157 -180.06898816 486.14083239 -180.5625 481.5625 C-180.68689453 480.50587158 -180.81128906 479.44924316 -180.93945312 478.3605957 C-181.50172673 473.56925258 -182.02563493 468.774581 -182.52734375 463.9765625 C-182.64903931 462.87526001 -182.64903931 462.87526001 -182.77319336 461.75170898 C-182.98557294 459.81880333 -183.18091069 457.88404657 -183.375 455.94921875 C-183.79360059 453.03018969 -183.79360059 453.03018969 -185.33984375 451.078125 C-187.16816823 449.67078219 -187.16816823 449.67078219 -190.5625 450.0625 C-193.95867448 450.60780559 -193.95867448 450.60780559 -195.15454102 452.55957031 C-196.33812876 455.9760136 -196.6380202 459.40697226 -196.96484375 462.984375 C-197.12682955 464.57553342 -197.28894299 466.16667885 -197.45117188 467.7578125 C-197.69574018 470.25001001 -197.93678433 472.74249691 -198.17456055 475.23535156 C-198.40799461 477.65270167 -198.65463334 480.06845208 -198.90234375 482.484375 C-198.9680809 483.21799255 -199.03381805 483.95161011 -199.10154724 484.7074585 C-200.03863056 493.73642371 -203.15243648 500.88465119 -210 507 C-217.97931423 512.08040741 -225.65144395 512.75659046 -235 512 C-238.04047394 511.09162311 -240.40998711 509.81110926 -243 508 C-243.86625 507.46375 -244.7325 506.9275 -245.625 506.375 C-254.05206468 497.94793532 -256.79281478 486.29626615 -260.23620605 475.23968506 C-261.84628821 470.07380683 -263.49699036 464.92105396 -265.15234375 459.76953125 C-265.6418602 458.2444696 -265.6418602 458.2444696 -266.14126587 456.68859863 C-269.27779367 446.99610656 -272.80488952 437.49023247 -276.58666992 428.03198242 C-277.77340068 425.03656663 -278.90842221 422.03130278 -280 419 C-280.46817139 417.71174316 -280.46817139 417.71174316 -280.94580078 416.39746094 C-283.90268541 406.7435379 -283.45152596 396.66931451 -283.39111328 386.67333984 C-283.37503579 383.50704864 -283.39102037 380.34203363 -283.41015625 377.17578125 C-283.42595915 363.73703542 -282.60838747 351.93243375 -276.3125 339.8125 C-275.78813354 338.79361694 -275.78813354 338.79361694 -275.25317383 337.75415039 C-269.96521809 327.83375103 -261.95536495 318.88103791 -250.89941406 315.32421875 C-248.68041366 314.09295226 -248.68041366 314.09295226 -248.33398438 311.10522461 C-248.25470703 309.88327393 -248.17542969 308.66132324 -248.09375 307.40234375 C-248.0438945 306.74065689 -247.994039 306.07897003 -247.94267273 305.39723206 C-247.836291 303.98004112 -247.73760105 302.56225585 -247.64584351 301.14404297 C-247.40271467 297.4656192 -247.08820566 293.79363737 -246.76953125 290.12109375 C-246.70776199 289.40404266 -246.64599274 288.68699158 -246.58235168 287.94821167 C-245.86709528 279.99419145 -244.39064848 272.62070197 -242 265 C-241.80067871 264.36352539 -241.60135742 263.72705078 -241.39599609 263.07128906 C-234.61101779 242.00077138 -223.16209845 224.01418332 -208 208 C-207.16855469 207.10410156 -206.33710938 206.20820313 -205.48046875 205.28515625 C-188.45416806 187.51099462 -166.38451106 175.96130475 -142.875 169.25 C-142.1835791 169.05116211 -141.4921582 168.85232422 -140.77978516 168.64746094 C-129.09362607 165.4793462 -117.5707452 164.67878616 -105.5 164.75 C-104.18902344 164.74226562 -102.87804687 164.73453125 -101.52734375 164.7265625 C-93.17363141 164.74315379 -85.21218291 165.46850115 -77 167 C-77.2165625 166.12085938 -77.433125 165.24171875 -77.65625 164.3359375 C-86.12355251 126.17783282 -77.39526593 84.83652068 -57.02832031 51.91479492 C-48.93574555 39.35336653 -39.17244252 28.51045506 -28.69580078 17.92016602 C-26.48023939 15.66740763 -24.30163037 13.38231595 -22.12109375 11.09570312 C-20.69746198 9.64892343 -19.27175328 8.20418384 -17.84375 6.76171875 C-17.20489868 6.08066574 -16.56604736 5.39961273 -15.90783691 4.69792175 C-11.03705558 -0.10357732 -6.79451143 -1.36834692 0 0 Z M-51 191 C-58.69437962 200.60420177 -61.00401458 212.96596606 -60 225 C-58.28287492 233.42863112 -55.22010819 240.20670852 -50 247 C-49.1028125 248.3303125 -49.1028125 248.3303125 -48.1875 249.6875 C-41.13075724 257.14748521 -30.54785752 262.58088215 -20.27734375 263.23828125 C-5.40977637 263.61923692 5.68686213 259.98766284 16.75 249.6875 C20.3629774 245.89052838 22.75920766 241.71225447 25 237 C25.4640625 236.07960938 25.4640625 236.07960938 25.9375 235.140625 C30.60228008 224.64486983 29.59682339 212.62252511 26 202 C21.51146548 191.17670356 13.49650008 183.05326861 3 178 C0.03995734 176.80188749 -2.91724554 175.82783386 -6 175 C-6.825 174.773125 -7.65 174.54625 -8.5 174.3125 C-25.55242342 172.18094707 -39.34965527 178.85997353 -51 191 Z M-139 190 C-139.68271973 190.20898926 -140.36543945 190.41797852 -141.06884766 190.63330078 C-172.55528003 200.67256212 -197.85728158 221.91287619 -213.35131836 251.05566406 C-220.27643969 264.6317426 -226.43937837 280.62175699 -226 296 C-220.14804397 291.20558363 -214.88127015 285.9222456 -209.61320305 280.50497627 C-206.9696378 277.79163124 -204.30844946 275.095619 -201.65039062 272.39648438 C-198.29261283 268.98501073 -194.94009528 265.56885381 -191.60668945 262.13354492 C-188.89101463 259.33579279 -186.15773081 256.55630124 -183.41263008 253.7874279 C-182.38219517 252.74177001 -181.3579991 251.68991864 -180.34086418 250.63131905 C-170.47379827 240.37400106 -158.73356578 232.37006844 -144 232 C-130.08529318 233.00768247 -116.31028415 236.05026351 -102.625 238.625 C-99.25820902 239.25507088 -95.89117533 239.88379315 -92.52377319 240.5105896 C-90.44445573 240.89795992 -88.3655211 241.28739221 -86.28701782 241.67910767 C-85.3577951 241.85283905 -84.42857239 242.02657043 -83.47119141 242.20556641 C-82.65341217 242.35941803 -81.83563293 242.51326965 -80.99307251 242.67178345 C-79.00774942 243.05416338 -79.00774942 243.05416338 -77 243 C-77.2165625 242.22140625 -77.433125 241.4428125 -77.65625 240.640625 C-81.65899479 224.55552093 -80.98459123 209.71447437 -76 194 C-75.64097606 192.33867803 -75.29716255 190.67349434 -75 189 C-95.49385735 183.5780031 -118.71870518 183.78852623 -139 190 Z M-158.61279297 258.90405273 C-159.48063416 259.71155975 -160.34847534 260.51906677 -161.24261475 261.3510437 C-166.1227051 266.03923374 -170.92285984 270.80055758 -175.6953125 275.59765625 C-176.77939129 276.68360582 -177.86369529 277.76933059 -178.94821167 278.85484314 C-181.76810601 281.67851078 -184.58498145 284.50517058 -187.40118408 287.33251953 C-190.28903416 290.23069687 -193.1798049 293.12595795 -196.0703125 296.02148438 C-201.71636299 301.67818038 -207.35921945 307.33804888 -213 313 C-212.05783072 315.40867042 -212.05783072 315.40867042 -208.5625 316.5625 C-204.69146335 318.38008352 -202.0110328 320.7267574 -198.9375 323.6875 C-196.08734491 326.29471949 -194.02789782 327.98704744 -190.5 329.625 C-185.53626298 328.73861839 -183.28686487 325.8881721 -179.7421875 322.4296875 C-170.0383635 313.83171239 -158.2664025 311.46097377 -145.6875 311.69140625 C-132.70554979 312.77781946 -120.63178488 318.21538208 -111.6875 327.8046875 C-101.56901447 340.96808766 -97.03041092 355.49672939 -96.68359375 371.99609375 C-96.66281265 372.82963882 -96.64203156 373.6631839 -96.62062073 374.52198792 C-96.55572144 377.16041561 -96.49652022 379.79893491 -96.4375 382.4375 C-96.39425794 384.23633724 -96.35064192 386.03516554 -96.30664062 387.83398438 C-96.20010201 392.2225646 -96.09867025 396.6112361 -96 401 C-90.7004116 396.56093969 -85.71329363 391.90095674 -80.80078125 387.0390625 C-79.66457588 385.91496475 -79.66457588 385.91496475 -78.50541687 384.76815796 C-76.91482429 383.19131708 -75.32571971 381.61297395 -73.73803711 380.03320312 C-72.12009165 378.42682024 -70.49767826 376.82492506 -68.87084961 375.22753906 C-66.50423881 372.903671 -64.15122699 370.56676634 -61.80078125 368.2265625 C-60.71631462 367.168358 -60.71631462 367.168358 -59.60993958 366.08877563 C-53.69661431 360.14992801 -49.85076653 355.1733832 -49.57226562 346.57128906 C-49.86130215 338.55632502 -51.38534485 330.72495236 -52.84375 322.859375 C-53.13612477 321.24001213 -53.42757182 319.62048152 -53.71813965 318.00079346 C-54.47832118 313.77748285 -55.25092442 309.55654112 -56.02630615 305.33599854 C-56.81815128 301.01314246 -57.59799376 296.68812312 -58.37890625 292.36328125 C-59.90765786 283.90671486 -61.44956411 275.45261755 -63 267 C-72.49213975 264.70905947 -82.02984772 262.81287129 -91.63671875 261.08203125 C-93.09312351 260.81749508 -94.54948771 260.5527355 -96.0058136 260.2877655 C-99.02656123 259.7388283 -102.04767203 259.19195379 -105.0690918 258.64672852 C-108.94444589 257.94732148 -112.81899135 257.24354659 -116.6933012 256.53838062 C-119.6860934 255.99398294 -122.67920784 255.45137542 -125.67243385 254.90936852 C-127.10269043 254.65025 -128.53286557 254.3906816 -129.96295738 254.13065529 C-131.94853829 253.76999973 -133.93458517 253.41191235 -135.9206543 253.05395508 C-137.04948532 252.84982498 -138.17831635 252.64569489 -139.34135437 252.43537903 C-146.74274004 251.22333028 -153.21154829 253.87332147 -158.61279297 258.90405273 Z M3.04296875 281.02734375 C-3.02249317 282.96611142 -8.60884996 283.2136023 -14.9375 283.25 C-15.79923828 283.270625 -16.66097656 283.29125 -17.54882812 283.3125 C-25.29591782 283.35790419 -32.49185947 281.81824388 -40 280 C-39.49274185 282.96330096 -38.98457221 285.92644148 -38.4753418 288.8894043 C-38.02846492 291.4921535 -37.58324274 294.09513895 -37.13989258 296.69848633 C-36.00764799 303.32147767 -34.8357725 309.93106325 -33.5546875 316.52734375 C-26.18333575 354.7865706 -26.18333575 354.7865706 -37.96401978 372.32029724 C-42.16069248 377.84384569 -47.24351927 382.58354518 -52.1796875 387.4375 C-53.36011644 388.60977843 -54.53980193 389.7828059 -55.71878052 390.95654297 C-58.79965402 394.0204228 -61.88901871 397.07558482 -64.98077393 400.128479 C-69.95197031 405.0400883 -74.910128 409.96485557 -79.86798477 414.8899231 C-81.60036756 416.60831589 -83.33648543 418.32286362 -85.07321167 420.03686523 C-86.12554608 421.07918544 -87.17780652 422.12158033 -88.22998047 423.1640625 C-89.15342255 424.07623535 -90.07686462 424.9884082 -91.02828979 425.92822266 C-93.1148994 427.64405523 -93.1148994 427.64405523 -93 429 C-62.27739372 427.85576885 -34.54192082 411.88836107 -13.703125 390.078125 C6.26227923 368.48786589 18.69048381 337.54238212 18 308 C17.47370339 297.83003572 16.36960553 287.90835055 14 278 C10.20637188 278 6.59786527 279.79527403 3.04296875 281.02734375 Z M-245 336 C-246.546875 336.804375 -246.546875 336.804375 -248.125 337.625 C-256.12861035 344.23667811 -261.16797244 353.91287619 -262.23175049 364.25256348 C-262.55675672 369.52771565 -262.56974277 374.79720072 -262.52148438 380.08056641 C-262.50009075 382.86319666 -262.52134251 385.64323055 -262.546875 388.42578125 C-262.56513159 398.99251839 -261.72459661 408.0178262 -258 418 C-257.48518066 419.39460449 -257.48518066 419.39460449 -256.95996094 420.81738281 C-255.88346595 423.6227026 -254.75832068 426.40468813 -253.625 429.1875 C-250.21889919 437.73488505 -247.18221445 446.34363318 -244.375 455.10546875 C-244.06476898 456.0727037 -243.75453796 457.03993866 -243.43490601 458.03648376 C-241.87726961 462.91036606 -240.34004785 467.78993007 -238.82275391 472.67651367 C-238.24923991 474.49014008 -237.67551863 476.30370096 -237.1015625 478.1171875 C-236.84769775 478.95465012 -236.59383301 479.79211273 -236.33227539 480.654953 C-234.95798476 484.96275044 -233.84399193 488.28252024 -230 491 C-224.94307101 490.85718492 -224.94307101 490.85718492 -221 488 C-220.47481678 485.6340098 -220.47481678 485.6340098 -220.21875 482.86328125 C-220.04110107 481.29525757 -220.04110107 481.29525757 -219.85986328 479.69555664 C-219.7411084 478.57914795 -219.62235352 477.46273926 -219.5 476.3125 C-219.23711961 474.02602552 -218.97409928 471.73956712 -218.7109375 469.453125 C-218.29799835 465.75705149 -217.90313943 462.06054414 -217.5390625 458.359375 C-216.51188566 448.94035715 -214.87274355 440.75297123 -207.1875 434.5625 C-199.77146685 429.67843339 -192.9063513 427.88670609 -184 429 C-175.04029067 431.36719593 -169.94255264 435.92654165 -165.14331055 443.70751953 C-163.20308589 447.59791234 -162.77838227 451.53007485 -162.3125 455.8125 C-162.19640381 456.71742188 -162.08030762 457.62234375 -161.96069336 458.5546875 C-161.38360099 463.16821815 -160.91816846 467.78618191 -160.515625 472.41796875 C-160.43787842 473.27350342 -160.36013184 474.12903809 -160.2800293 475.01049805 C-160.13860775 476.62898908 -160.01412493 478.24908067 -159.90942383 479.87036133 C-159.49970459 484.74789478 -158.58559493 487.60590094 -155 491 C-152 491.83333333 -152 491.83333333 -149 491 C-144.75601168 486.83912465 -143.41092942 481.99694528 -141.71484375 476.46875 C-141.26815338 475.0642585 -141.26815338 475.0642585 -140.81243896 473.63139343 C-140.17543893 471.6276499 -139.54288843 469.62248733 -138.91439819 467.61605835 C-137.27546409 462.38827275 -135.60215896 457.1716539 -133.921875 451.95703125 C-133.42339302 450.40971062 -133.42339302 450.40971062 -132.9148407 448.83113098 C-129.72362927 439.00632273 -126.14841171 429.36515178 -122.32592773 419.76953125 C-117.78992006 408.30343814 -116.65154429 398.45803963 -116.68432617 386.17211914 C-116.68747958 383.70348643 -116.66399345 381.23606282 -116.63867188 378.76757812 C-116.57717674 363.91154985 -118.47134012 351.65243624 -128.66015625 340.12109375 C-134.46394251 334.64660033 -141.62746611 331.83293849 -149.5625 331.5 C-157.07532315 331.79753755 -163.58632893 334.76096348 -169 340 C-169 340.66 -169 341.32 -169 342 C-169.56847656 342.27585937 -170.13695312 342.55171875 -170.72265625 342.8359375 C-173.00407708 343.96690055 -173.00407708 343.96690055 -175.12109375 345.2890625 C-182.69647486 349.65800068 -189.94784082 350.45099084 -198.4765625 348.40625 C-203.14048989 346.62637665 -206.32502593 343.9049251 -209.9375 340.5 C-216.15212949 334.67858009 -222.01105633 331.89303293 -230.5625 331.5 C-236.06610753 331.7176568 -240.24028478 333.32558241 -245 336 Z " fill="#000000" transform="translate(296,0)"/>
<path d="M0 0 C2.87029869 1.79393668 4.49131638 2.98263276 6 6 C6.5811138 13.08958838 6.5811138 13.08958838 4.125 16.9375 C0.63841797 20.3215355 -2.03592714 20.38966392 -6.73828125 20.359375 C-10.32520929 19.78943134 -11.86838894 17.79773951 -14 15 C-15.43304064 12.13391871 -15.30644155 10.18699217 -15 7 C-11.06142639 0.04185329 -7.71503326 -0.99935664 0 0 Z " fill="#000000" transform="translate(390,0)"/>
</svg>
