<?xml version="1.0" encoding="UTF-8"?>
<svg version="1.1" xmlns="http://www.w3.org/2000/svg" width="512" height="512">
<path d="M0 0 C7.0920162 3.98857614 13.36447882 9.147728 19 15 C19.41958984 14.12988281 19.41958984 14.12988281 19.84765625 13.2421875 C24.11873402 4.91976586 29.16150968 0.10983918 38 -3 C51.27778735 -6.09597012 65.53837347 -3.35459436 77.375 3.1875 C84.35024485 7.59341864 90.21633771 13.16090325 96 19 C96.20625 18.34 96.4125 17.68 96.625 17 C100.84315222 7.79675879 107.63798618 2.31669145 116.75 -1.8125 C129.9726644 -6.64385815 144.3631658 -3.91840781 157.07421875 1.25 C168.5420573 7.00845816 176.88335454 15.83667622 183 27 C183.39058594 27.70382813 183.78117188 28.40765625 184.18359375 29.1328125 C185 31 185 31 185 34 C185.66 34 186.32 34 187 34 C187.17015625 32.90751953 187.17015625 32.90751953 187.34375 31.79296875 C189.8886919 20.9618172 199.43782512 11.08664904 208.4375 5.125 C221.07379282 -2.35469979 235.00037967 -6.0665048 249.69921875 -3.53515625 C260.77081491 -0.597794 268.60885312 5.41327968 274.875 14.8125 C276 17 276 17 276 19 C276.639375 18.34 277.27875 17.68 277.9375 17 C278.95642573 15.99805636 279.97754432 14.99834116 281 14 C281.6084375 13.38382813 282.216875 12.76765625 282.84375 12.1328125 C293.86278558 1.56605076 307.98892413 -3.88973257 323.1875 -4.375 C332.08187445 -4.11651091 340.22261636 -1.81183593 346.625 4.63671875 C349.54383114 7.87128884 351.71613826 10.76325626 353 15 C353.639375 14.319375 354.27875 13.63875 354.9375 12.9375 C364.97323437 2.98633643 376.54563977 -3.89940025 390.875 -4.375 C399.6609053 -4.22592844 406.07844852 -1.67792344 412.50390625 4.33203125 C419.22970691 11.83050875 420.13671897 22.71354326 421.45703125 32.328125 C422.13599099 35.66919307 423.55749745 36.71015386 426 39 C426.625 41.1171875 426.625 41.1171875 427 43 C427.60328125 42.89300781 428.2065625 42.78601563 428.828125 42.67578125 C435.25959368 41.71106095 435.25959368 41.71106095 438.5625 43 C440.7576472 46.05411785 440.45650376 48.3479699 440 52 C438.32122873 54.33828855 437.36069844 54.9255882 434.51953125 55.51171875 C433.62621094 55.56972656 432.73289062 55.62773437 431.8125 55.6875 C430.91144531 55.75324219 430.01039063 55.81898438 429.08203125 55.88671875 C428.05142578 55.94279297 428.05142578 55.94279297 427 56 C426.938125 57.216875 426.87625 58.43375 426.8125 59.6875 C426.63963935 63.08709277 426.1484101 63.86280417 423.5703125 66.24609375 C420.23860456 69.81578083 419.86084545 72.68688714 419.0625 77.375 C417.45061219 85.1881095 415.76594353 89.86145182 408.91796875 94.37109375 C394.34280217 102.51675069 375.94974067 104.77606179 359.5625 103.25 C352.77960361 102.65563725 349.02669514 103.23837894 343.38671875 107.375 C331.00825393 115.80289094 311.36900901 116.25736935 296.9375 116.3125 C295.89110352 116.31797852 294.84470703 116.32345703 293.76660156 116.32910156 C288.18586272 116.27731231 283.21134642 115.82607582 277.85424805 114.21289062 C275.6232309 113.74909567 275.6232309 113.74909567 272.875 116.1875 C272.48054688 116.63480469 272.08609375 117.08210938 271.6796875 117.54296875 C266.61839061 121.93334954 259.85946241 122.79511179 253.453125 123.6640625 C252.08441254 123.85326767 252.08441254 123.85326767 250.68804932 124.04629517 C241.30838285 125.24203311 231.9841097 125.45604822 222.53857422 125.39111328 C219.70883805 125.37476215 216.88047967 125.39122363 214.05078125 125.41015625 C212.21614274 125.4081775 210.38150508 125.40434149 208.546875 125.3984375 C207.7186322 125.40451019 206.8903894 125.41058289 206.03704834 125.4168396 C199.28912113 125.33631316 193.34576003 123.87688977 187.4375 120.5625 C183.92561607 119.75206525 181.99703624 121.19775917 178.96484375 122.95703125 C175.69250498 124.69403811 172.60462848 125.12487623 168.93188477 125.16113281 C168.13907608 125.17074036 167.3462674 125.1803479 166.5294342 125.19024658 C165.67538498 125.19449646 164.82133575 125.19874634 163.94140625 125.203125 C162.59295876 125.21167511 162.59295876 125.21167511 161.2172699 125.22039795 C159.30493338 125.22984744 157.39258059 125.23638173 155.48022461 125.24023438 C152.6316814 125.24976845 149.78391537 125.28071627 146.93554688 125.3125 C137.3426265 125.36836702 127.97657063 124.9780683 118.46875 123.640625 C117.60524429 123.51971497 116.74173859 123.39880493 115.85206604 123.27423096 C108.9163079 122.19521572 102.29994514 120.36638699 97.25390625 115.21875 C94.88929794 113.62074213 94.88929794 113.62074213 91.4921875 114.79296875 C90.79448242 115.00228027 90.09677734 115.2115918 89.37792969 115.42724609 C84.70379171 116.55307029 79.90850857 116.3373456 75.125 116.3125 C74.02381836 116.30831055 72.92263672 116.30412109 71.78808594 116.29980469 C56.90670072 116.09642431 38.63535453 114.72565476 26.3125 105.6875 C20.89518025 102.17237828 16.24971211 102.89498775 10.09375 103.46826172 C-6.37012286 104.96590362 -27.50897547 101.87498277 -40.8359375 91.58203125 C-45.93372099 86.54641585 -46.97524624 79.87663708 -48 73 C-48 71.68 -48 70.36 -48 69 C-48.598125 68.773125 -49.19625 68.54625 -49.8125 68.3125 C-52.64276332 66.61434201 -53.56000848 64.94855407 -55 62 C-55.6875 59.1875 -55.6875 59.1875 -56 57 C-56.61488281 56.89042969 -57.22976562 56.78085938 -57.86328125 56.66796875 C-59.07564453 56.43013672 -59.07564453 56.43013672 -60.3125 56.1875 C-61.11300781 56.03667969 -61.91351563 55.88585937 -62.73828125 55.73046875 C-65.29874316 54.90351473 -66.39192273 54.14240675 -68 52 C-68.74537037 46.03703704 -68.74537037 46.03703704 -66.5625 43 C-62.64106095 41.46968232 -59.0713729 42.27794028 -55 43 C-54.7525 42.05125 -54.505 41.1025 -54.25 40.125 C-53.8375 39.09375 -53.425 38.0625 -53 37 C-52.32453125 36.72542969 -51.6490625 36.45085937 -50.953125 36.16796875 C-50.30859375 35.78253906 -49.6640625 35.39710938 -49 35 C-48.43930332 32.32554362 -48.43930332 32.32554362 -48.5 29.1875 C-47.99341406 19.23198491 -46.10178053 9.90462063 -38.9375 2.5859375 C-27.67671367 -6.63156099 -12.70733945 -5.85799336 0 0 Z M-31.05859375 14.1953125 C-33.26457236 17.38221923 -33.97380064 19.90568423 -34.75 23.6875 C-34.99234375 24.82574219 -35.2346875 25.96398437 -35.484375 27.13671875 C-36.05907701 29.84316673 -36.05907701 29.84316673 -36 32 C-34.90300781 32.18175781 -33.80601563 32.36351562 -32.67578125 32.55078125 C-31.22126033 32.80414941 -29.7668383 33.05808573 -28.3125 33.3125 C-27.59126953 33.43044922 -26.87003906 33.54839844 -26.12695312 33.66992188 C-21.85528174 34.43063048 -18.54391695 35.33709418 -15 38 C-12.56056462 41.92052115 -11.54358484 45.43388734 -11 50 C-3.07192923 51.63645549 4.89141752 52.83882023 13 53 C15.23088762 50.76911238 14.42937547 45.57436137 14.45751953 42.50219727 C14.30286144 35.30102951 11.98102186 29.98987852 8 24 C7.31550781 22.96939453 7.31550781 22.96939453 6.6171875 21.91796875 C1.78488672 15.58075145 -6.22816913 10.65358104 -14 9 C-20.8683903 8.3144075 -26.10437315 8.91206396 -31.05859375 14.1953125 Z M33 16 C28.91284464 25.13599433 27.96109208 35.14880618 27 45 C27.45246094 44.69964844 27.90492187 44.39929688 28.37109375 44.08984375 C36.26836634 39.68588267 44.38490113 41.00656148 53 42 C54.258125 42.13921875 55.51625 42.2784375 56.8125 42.421875 C62.29235763 43.14421987 66.39516018 43.78303002 71 47 C73.92496196 50.93744879 75.36821772 55.41546883 77 60 C81.29 60 85.58 60 90 60 C91.91788539 48.49268766 91.6258366 38.51524605 85.375 28.375 C77.65151595 17.63423349 66.97416273 11.30186758 54 9 C45.77830831 8.18654641 38.52226177 9.46853639 33 16 Z M110 19 C102.48276648 30.62159841 102.73852483 47.60666095 103 61 C105.31 61.33 107.62 61.66 110 62 C110.391875 60.7625 110.78375 59.525 111.1875 58.25 C112.93520771 53.54783401 115.51848576 51.24075712 120 49 C124.31543175 48.76394953 128.63493063 48.77153446 132.95605469 48.75976562 C135.0961092 48.75013008 137.23517386 48.71914253 139.375 48.6875 C146.48243748 48.63140317 152.61478833 48.63353939 159 52 C161.37752567 54.87805738 162.75409152 57.3083824 164 60.8125 C164.76734113 63.09611402 164.76734113 63.09611402 166.625 63.8125 C170.09475154 64.08642775 173.51932937 64.05801118 177 64 C176.34837587 47.55210826 174.14993636 31.70359436 161.46875 19.8515625 C146.17432909 8.38074682 123.99681388 2.71799202 110 19 Z M205 26 C199.40046245 33.58302497 196.72099258 41.3608652 195.8125 50.6875 C195.6897168 51.78674805 195.6897168 51.78674805 195.56445312 52.90820312 C195.16353637 56.64447772 195 60.23307021 195 64 C198.63 64 202.26 64 206 64 C206.70125 62.4325 207.4025 60.865 208.125 59.25 C210.48277345 54.51435845 212.29671683 52.35164158 217 50 C222.30157577 48.23280808 228.01647344 48.73471365 233.56860352 48.70483398 C235.05926001 48.69331874 236.54987541 48.6728737 238.0402832 48.64331055 C240.20031595 48.60047839 242.3591257 48.58444472 244.51953125 48.57421875 C246.45469604 48.55234497 246.45469604 48.55234497 248.42895508 48.5300293 C252.61771863 49.08129544 254.73402886 50.37112981 258 53 C260.1066013 55.90565697 261.34676596 58.47253617 262 62 C265.465 61.505 265.465 61.505 269 61 C269.23030315 36.87123337 269.23030315 36.87123337 259 16 C252.93291707 10.35133658 246.01116551 8.48795038 237.8046875 8.6875 C225.05015474 10.10861786 213.18938894 16.0931433 205 26 Z M289.6015625 23.875 C284.02129111 31.2790674 280.84876978 39.19134758 280.875 48.4375 C280.87242187 49.34371094 280.86984375 50.24992187 280.8671875 51.18359375 C280.97049932 54.54913955 280.97049932 54.54913955 282 60 C286.29 60 290.58 60 295 60 C295.70125 58.1025 296.4025 56.205 297.125 54.25 C298.66492139 50.63416248 299.77678438 48.2343764 302.5 45.375 C307.90648575 43.25102345 313.24208024 42.58948713 319 42 C320.04583252 41.88132568 320.04583252 41.88132568 321.11279297 41.76025391 C337.42550115 39.97191387 337.42550115 39.97191387 345 45 C343.64591118 27.97425952 343.64591118 27.97425952 336.625 12.8125 C322.05138201 2.74976377 300.55902268 12.24243564 289.6015625 23.875 Z M364.25 23.23828125 C359.26664808 30.36591201 357.68545177 36.27242635 357.875 44.875 C357.88402344 45.65875 357.89304687 46.4425 357.90234375 47.25 C357.92571937 49.16680055 357.96158347 51.08344191 358 53 C366.15484303 52.55348122 374.04264468 51.88849677 382 50 C382.15855469 49.40832031 382.31710937 48.81664062 382.48046875 48.20703125 C384.03669797 42.93648697 385.49916351 39.45413033 390 36 C395.56842351 33.41951106 401.97225967 32.91684076 408 32 C406.70838617 20.75615733 406.70838617 20.75615733 400.5 11.6875 C388.14055871 3.34487713 372.17459241 13.10258605 364.25 23.23828125 Z M-36 45 C-36 46.65 -36 48.3 -36 50 C-34.948125 49.67 -33.89625 49.34 -32.8125 49 C-29.61126643 48.16033218 -27.2588992 47.80249096 -24 48 C-26.49505962 45.50494038 -27.67328888 45.64051624 -31.125 45.375 C-32.03507812 45.30023438 -32.94515625 45.22546875 -33.8828125 45.1484375 C-34.58148438 45.09945312 -35.28015625 45.05046875 -36 45 Z M400.875 46 C399.96492188 46.185625 399.05484375 46.37125 398.1171875 46.5625 C397.41851562 46.706875 396.71984375 46.85125 396 47 C396 47.33 396 47.66 396 48 C397.051875 47.95875 398.10375 47.9175 399.1875 47.875 C402.74010173 47.99147875 404.84866641 48.47208068 408 50 C408 48.35 408 46.7 408 45 C405.52324269 45 403.30140305 45.5022763 400.875 46 Z M38 53 C37.01 54.485 37.01 54.485 36 56 C37.670625 56.4021875 37.670625 56.4021875 39.375 56.8125 C43 58 43 58 45 61 C45.66 61 46.32 61 47 61 C47 60.34 47 59.68 47 59 C51.95 58.67 56.9 58.34 62 58 C62 57.34 62 56.68 62 56 C54.04264468 54.11150323 46.15484303 53.44651878 38 53 Z M320.375 53.8125 C319.50359375 53.88275391 318.6321875 53.95300781 317.734375 54.02539062 C316.48527344 54.14624023 316.48527344 54.14624023 315.2109375 54.26953125 C314.45087402 54.33760986 313.69081055 54.40568848 312.90771484 54.47583008 C310.60345424 54.88485473 310.60345424 54.88485473 309 58 C309.96421875 58.04898438 310.9284375 58.09796875 311.921875 58.1484375 C313.18515625 58.22320312 314.4484375 58.29796875 315.75 58.375 C317.62945312 58.47941406 317.62945312 58.47941406 319.546875 58.5859375 C322.60998121 58.95323304 324.41974266 59.39711286 327 61 C327.556875 60.360625 328.11375 59.72125 328.6875 59.0625 C331.22066561 56.80319013 332.68341424 56.36850953 336 56 C335.34 55.01 334.68 54.02 334 53 C329.41302787 53 324.93782661 53.380053 320.375 53.8125 Z M-36 57 C-35 59 -35 59 -35 59 Z M407 57 C408 59 408 59 408 59 Z M124 61 C127.33311475 62.7824918 130.24480943 63.48792856 134 64 C134 67.3 134 70.6 134 74 C130.37 74.33 126.74 74.66 123 75 C123.33 75.66 123.66 76.32 124 77 C131.95728739 78.45426287 140.95221997 78.70868511 149 78 C149.66 77.34 150.32 76.68 151 76 C149.95199219 75.92652344 149.95199219 75.92652344 148.8828125 75.8515625 C147.97273438 75.77679688 147.06265625 75.70203125 146.125 75.625 C145.22007812 75.55539063 144.31515625 75.48578125 143.3828125 75.4140625 C141 75 141 75 139 73 C138.75 69.5 138.75 69.5 139 66 C141.49505962 63.50494038 142.67328888 63.64051624 146.125 63.375 C147.03507812 63.30023438 147.94515625 63.22546875 148.8828125 63.1484375 C149.58148438 63.09945312 150.28015625 63.05046875 151 63 C149.17108623 60.74384974 149.17108623 60.74384974 146.47802734 60.77294922 C145.4411377 60.78342285 144.40424805 60.79389648 143.3359375 60.8046875 C141.65371094 60.81435547 141.65371094 60.81435547 139.9375 60.82421875 C138.761875 60.84097656 137.58625 60.85773438 136.375 60.875 C135.19164062 60.88402344 134.00828125 60.89304687 132.7890625 60.90234375 C129.85917477 60.92597188 126.9296866 60.95891486 124 61 Z M222 61 C221.67 61.66 221.34 62.32 221 63 C221.75925781 63.03738281 222.51851563 63.07476562 223.30078125 63.11328125 C224.29464844 63.17902344 225.28851563 63.24476563 226.3125 63.3125 C227.29863281 63.37050781 228.28476562 63.42851562 229.30078125 63.48828125 C232 64 232 64 233.8671875 65.31640625 C235 67 235 67 234.8125 70.625 C234.544375 71.73875 234.27625 72.8525 234 74 C231.43106162 75.28446919 229.23423663 75.32977144 226.375 75.5625 C225.37210937 75.64628906 224.36921875 75.73007813 223.3359375 75.81640625 C222.56507813 75.87699219 221.79421875 75.93757813 221 76 C221.33 76.66 221.66 77.32 222 78 C235.04559939 78.27337765 235.04559939 78.27337765 248 77 C248.33 76.34 248.66 75.68 249 75 C243.555 74.505 243.555 74.505 238 74 C238 70.7 238 67.4 238 64 C241.3 63.34 244.6 62.68 248 62 C248 61.67 248 61.34 248 61 C239.42 61 230.84 61 222 61 Z M-11 63 C-12.98 65.97 -12.98 65.97 -15 69 C-18.94473578 72.15175652 -22.34036009 72.45515701 -27.3125 72.6875 C-29.19388672 72.78611328 -29.19388672 72.78611328 -31.11328125 72.88671875 C-32.06589844 72.92410156 -33.01851562 72.96148437 -34 73 C-33.71350932 78.02327822 -33.71350932 78.02327822 -31.125 82.1875 C-21.26821922 87.90443285 -10.52404845 89.95766236 0.6875 90.6875 C1.77538818 90.76037231 1.77538818 90.76037231 2.88525391 90.8347168 C7.22420313 91.06835252 10.62845601 90.72859067 15 90 C14.34 82.08 13.68 74.16 13 66 C1.12 64.515 1.12 64.515 -11 63 Z M45 64 C44.67 64.99 44.34 65.98 44 67 C40.4375 68.1875 40.4375 68.1875 37 69 C37 69.33 37 69.66 37 70 C41.95 70.33 46.9 70.66 52 71 C50.35 69.68 48.7 68.36 47 67 C46.34 66.01 45.68 65.02 45 64 Z M375.9921875 63.65625 C375.1038623 63.77806641 374.21553711 63.89988281 373.30029297 64.02539062 C371.60477295 64.26032227 371.60477295 64.26032227 369.875 64.5 C366.28625 64.995 362.6975 65.49 359 66 C358.34 73.92 357.68 81.84 357 90 C371.51547089 92.41924515 390.07577731 90.66719712 402.6171875 82.34375 C404.32789593 80.68136667 405.14463288 79.22561542 406 77 C406 75.68 406 74.36 406 73 C405.05898438 72.97421875 404.11796875 72.9484375 403.1484375 72.921875 C390.46482442 72.34415349 390.46482442 72.34415349 386 68 C384.95650161 66.36021682 383.94392019 64.69905634 383 63 C380.61270837 63 378.35837093 63.32987987 375.9921875 63.65625 Z M326 65 C325.3503125 65.928125 325.3503125 65.928125 324.6875 66.875 C323 69 323 69 320 71 C324.95 70.67 329.9 70.34 335 70 C335 69.67 335 69.34 335 69 C333.88625 68.71125 332.7725 68.4225 331.625 68.125 C328 67 328 67 326 65 Z M312 71 C316 72 316 72 316 72 Z M74 72 C73.443125 73.258125 72.88625 74.51625 72.3125 75.8125 C70.3950466 79.56778936 69.08713185 81.48953823 65 83 C58.19706046 84.12360155 51.7033279 83.98876809 44.875 83.25 C44.03324219 83.17523438 43.19148438 83.10046875 42.32421875 83.0234375 C36.76732172 82.45482478 32.15060756 81.1649205 27 79 C26.67937036 85.76791695 26.67937036 85.76791695 29 92 C32.79097017 95.55227946 36.65074758 97.19360179 41.5625 98.625 C42.63455688 98.94247192 42.63455688 98.94247192 43.72827148 99.26635742 C53.85843957 102.18810638 63.33917868 103.17364752 73.875 103.25 C75.3746228 103.2641394 75.3746228 103.2641394 76.90454102 103.27856445 C81.9959049 103.25584854 86.23745 103.0341739 91 101 C91.10744632 91.59247767 90.93756683 82.37566833 90 73 C84.72 72.67 79.44 72.34 74 72 Z M288.3125 72.5 C286.54326172 72.63921875 286.54326172 72.63921875 284.73828125 72.78125 C283.38283203 72.88953125 283.38283203 72.88953125 282 73 C280.87001156 82.34258296 280.90091064 91.60853097 281 101 C286.54740452 103.31914905 291.70923263 103.38484485 297.625 103.375 C298.63320801 103.37338867 299.64141602 103.37177734 300.68017578 103.37011719 C307.55199451 103.26030589 314.13638833 102.59463418 320.875 101.25 C321.66342285 101.09321777 322.4518457 100.93643555 323.26416016 100.77490234 C330.63971433 99.13501682 338.63765484 96.52991844 344 91 C345.37030588 87.09989865 345.08043494 83.10218198 345 79 C343.88367188 79.46921875 342.76734375 79.9384375 341.6171875 80.421875 C336.83180418 82.21139362 332.19066952 82.80006304 327.125 83.25 C326.29097656 83.34023437 325.45695312 83.43046875 324.59765625 83.5234375 C317.42267655 84.21099351 310.17806753 84.5023592 303.5625 81.375 C300.36454922 78.41104562 299.41500632 76.08779604 298 72 C294.74441735 72 291.557899 72.24293869 288.3125 72.5 Z M103 74 C102.19665804 89.26000348 102.19665804 89.26000348 105 104 C109.67984804 108.79184987 113.483586 109.99500342 120.03515625 110.7890625 C120.9064064 110.90617584 121.77765656 111.02328918 122.67530823 111.14395142 C131.68734747 112.25588352 140.68021841 112.45597149 149.7512207 112.39111328 C152.48892641 112.37469153 155.22522274 112.3912574 157.96289062 112.41015625 C159.72396156 112.40817883 161.48503162 112.40434561 163.24609375 112.3984375 C164.4585099 112.40754654 164.4585099 112.40754654 165.69541931 112.4168396 C170.70565359 112.35416203 174.28597781 111.71402219 178 108 C178.21818246 103.90257007 178.18579116 99.8019736 178.18530273 95.69921875 C178.18748367 93.64041306 178.20562031 91.58214788 178.22460938 89.5234375 C178.22654297 88.22921875 178.22847656 86.935 178.23046875 85.6015625 C178.23457764 84.40869629 178.23868652 83.21583008 178.24291992 81.98681641 C178.2283302 78.81661699 178.2283302 78.81661699 176 76 C173.33346095 75.63539547 173.33346095 75.63539547 170.375 75.8125 C168.87066406 75.85310547 168.87066406 75.85310547 167.3359375 75.89453125 C166.17964844 75.94673828 166.17964844 75.94673828 165 76 C164.67128906 76.77923828 164.67128906 76.77923828 164.3359375 77.57421875 C161.97509859 82.76614497 159.67728891 85.71594609 155 89 C147.07212383 91.64262539 136.77223498 90.0837879 128.4375 89.6875 C127.15746094 89.62949219 125.87742188 89.57148438 124.55859375 89.51171875 C119.29778227 88.75522445 116.0379157 87.32622562 112.75 83.125 C111 80 111 80 110.125 77.1875 C109.75375 76.465625 109.3825 75.74375 109 75 C105.96655154 74.3276828 105.96655154 74.3276828 103 74 Z M262 76 C261.17632667 77.8207141 261.17632667 77.8207141 260.625 79.875 C259.256308 83.84420681 257.62820546 85.73237159 254 88 C247.98835532 90.00388156 241.30861769 89.71400933 235 90 C233.96649414 90.05317383 233.96649414 90.05317383 232.91210938 90.10742188 C218.95724058 90.76808716 218.95724058 90.76808716 213.5859375 87.5546875 C210.32703615 84.36000095 208.66169367 80.18618983 207 76 C205.58376784 75.94552953 204.16691809 75.90699492 202.75 75.875 C201.56664062 75.84019531 201.56664062 75.84019531 200.359375 75.8046875 C197.61010274 75.88503237 197.61010274 75.88503237 194 78 C194 88.23 194 98.46 194 109 C199.07451875 111.79701486 199.07451875 111.79701486 204.01977539 112.38818359 C205.119673 112.40215683 205.119673 112.40215683 206.24179077 112.41641235 C207.01922638 112.41048065 207.79666199 112.40454895 208.59765625 112.3984375 C209.42117584 112.4025766 210.24469543 112.4067157 211.09317017 112.41098022 C213.74999761 112.41713528 216.40577848 112.39833475 219.0625 112.375 C219.96239655 112.37101196 220.86229309 112.36702393 221.78945923 112.36291504 C232.12842121 112.30885148 242.4303615 112.1810509 252.6875 110.75 C253.49131104 110.64091309 254.29512207 110.53182617 255.12329102 110.41943359 C259.74883447 109.63645197 262.70349012 108.35155365 266 105 C271.29391232 96.88050257 269.10590415 83.37840117 269 74 C264.95377498 73.63019987 264.95377498 73.63019987 262 76 Z " fill="#000000" transform="translate(70,106)"/>
<path d="M0 0 C2.53777213 0.75331324 2.53777213 0.75331324 5.88867188 -0.96875 C10.16926992 -2.63858624 13.86221743 -2.96130472 18.421875 -2.921875 C19.17640961 -2.92474518 19.93094421 -2.92761536 20.70834351 -2.93057251 C22.2966182 -2.93260075 23.88491858 -2.92715831 25.47314453 -2.91455078 C27.85638956 -2.89861419 30.2379037 -2.9143705 32.62109375 -2.93359375 C43.98229475 -2.95028142 55.48281296 -2.59312591 65.5078125 3.3515625 C68.27762777 4.87473424 69.61688612 5.55605724 72.77734375 5.1640625 C75.29432728 4.40318369 75.29432728 4.40318369 77.54296875 3.40625 C94.69948771 -2.46893203 122.62504711 -0.28930817 139.2578125 6.4765625 C140.1034375 6.9509375 140.9490625 7.4253125 141.8203125 7.9140625 C145.29334875 8.7155324 146.9388539 7.25255819 149.96484375 5.56640625 C160.31965671 0.64478305 174.39984071 1.27956798 185.6328125 1.2890625 C186.6343335 1.28986816 187.63585449 1.29067383 188.66772461 1.29150391 C197.03107676 1.36056097 205.44491895 1.57722137 213.31640625 4.68359375 C216.1668717 5.74804382 216.1668717 5.74804382 218.5390625 4.68359375 C219.63734375 3.99330078 219.63734375 3.99330078 220.7578125 3.2890625 C231.72648982 -2.80714528 243.96864057 -3.01347046 256.20043945 -2.91455078 C258.58536903 -2.89833513 260.96863408 -2.91456349 263.35351562 -2.93359375 C271.23595028 -2.94148787 277.8249037 -2.37042759 285.2578125 0.4765625 C288.2068209 -0.97500432 288.2068209 -0.97500432 290.09375 -2.328125 C302.90688538 -9.40541639 324.63695826 -8.24590698 338.2578125 -4.5234375 C345.36224722 -2.04403746 349.28816254 1.90201257 352.9453125 8.5390625 C354.73179554 12.99029956 355.09879453 17.75443442 355.6328125 22.48828125 C356.29263904 25.64307691 357.28030705 27.01005434 359.2578125 29.4765625 C359.2578125 30.4665625 359.2578125 31.4565625 359.2578125 32.4765625 C359.9178125 32.1465625 360.5778125 31.8165625 361.2578125 31.4765625 C367.43817133 31.02708186 367.43817133 31.02708186 370.1953125 32.5390625 C371.8718754 35.59632426 371.62310227 38.0671913 371.2578125 41.4765625 C370.2578125 43.3515625 370.2578125 43.3515625 368.2578125 44.4765625 C365.57605628 45.01079796 362.99411802 45.25227516 360.2578125 45.4765625 C360.19464844 46.05664062 360.13148438 46.63671875 360.06640625 47.234375 C359.15525346 53.04657068 357.59367422 55.81361712 352.9140625 59.3828125 C351.2578125 60.4765625 351.2578125 60.4765625 349.2578125 61.4765625 C348.29566651 63.75830811 347.41877798 66.02808108 346.5703125 68.3515625 C342.53790889 78.85456724 336.9755916 90.0083746 326.8828125 95.8515625 C315.27280305 98.61585046 305.63576631 96.83649515 295.07421875 91.2734375 C290.84550392 88.57550571 287.52252852 85.25979224 284.2578125 81.4765625 C283.79890625 82.21261719 283.34 82.94867188 282.8671875 83.70703125 C281.94679688 85.17076172 281.94679688 85.17076172 281.0078125 86.6640625 C280.40453125 87.62699219 279.80125 88.58992188 279.1796875 89.58203125 C274.16183074 97.13941308 268.25316254 102.38759794 259.8203125 105.9140625 C250.64629013 107.36259235 242.5627521 106.96507032 234.2578125 102.4765625 C228.1398923 97.89696328 223.04771124 92.40091094 218.2578125 86.4765625 C215.4968086 89.8620063 212.94130792 93.33019943 210.4453125 96.9140625 C203.85261513 105.93819505 195.37122593 112.789215 184.12109375 115.12890625 C174.98564024 116.2381223 166.73289494 115.22845855 159.0703125 109.7890625 C152.09054805 104.07578756 147.28938382 97.50254781 143.2578125 89.4765625 C142.8453125 90.25 142.4328125 91.0234375 142.0078125 91.8203125 C136.07307947 102.52402744 129.92437422 110.04212713 118.2578125 114.4765625 C108.22058017 116.89038702 99.24516815 115.32380381 90.2578125 110.4765625 C80.64061189 104.56675602 74.57455817 96.27605451 69.2578125 86.4765625 C68.6184375 87.1159375 67.9790625 87.7553125 67.3203125 88.4140625 C66.86140625 88.86652344 66.4025 89.31898438 65.9296875 89.78515625 C64.68525208 91.04412947 63.47099709 92.33307612 62.2734375 93.63671875 C55.78219852 100.53078285 48.47667491 105.88541156 38.77734375 106.6796875 C29.64395009 106.8378415 22.47319398 105.18831192 15.2421875 99.41796875 C9.94690876 94.23735156 5.99278966 87.8317698 2.2578125 81.4765625 C1.60039062 82.23839844 1.60039062 82.23839844 0.9296875 83.015625 C-6.93024995 91.54653272 -17.02312398 96.93568265 -28.7421875 97.4765625 C-36.16598923 97.2596026 -41.63744645 95.92210369 -46.94140625 90.57421875 C-54.44938494 81.82848219 -59.10758241 72.38037778 -62.7421875 61.4765625 C-63.8353125 60.8990625 -64.9284375 60.3215625 -66.0546875 59.7265625 C-70.36579929 57.4113358 -71.78567535 54.93741021 -73.7421875 50.4765625 C-73.9921875 47.5390625 -73.9921875 47.5390625 -73.7421875 45.4765625 C-74.68191406 45.29480469 -74.68191406 45.29480469 -75.640625 45.109375 C-76.45789063 44.94179688 -77.27515625 44.77421875 -78.1171875 44.6015625 C-78.92929688 44.43914062 -79.74140625 44.27671875 -80.578125 44.109375 C-82.7421875 43.4765625 -82.7421875 43.4765625 -84.7421875 41.4765625 C-85.41151021 35.34110433 -85.41151021 35.34110433 -83.2421875 32.5390625 C-79.62021095 30.99972247 -76.66255827 31.28054396 -72.7421875 31.4765625 C-72.4534375 30.7546875 -72.1646875 30.0328125 -71.8671875 29.2890625 C-71.17942207 27.56964892 -70.46972062 25.85855333 -69.72265625 24.1640625 C-68.67411064 21.28996139 -68.29144086 18.69722533 -67.9296875 15.6640625 C-66.83009286 8.67991842 -64.36567676 4.24996543 -59.5546875 -0.8359375 C-43.84611534 -10.2610808 -15.40982681 -9.47801063 0 0 Z M-53.7421875 12.4765625 C-55.2205101 15.43320769 -54.80251533 18.21885987 -54.7421875 21.4765625 C-54.113125 21.59773438 -53.4840625 21.71890625 -52.8359375 21.84375 C-51.04914637 22.19357356 -49.26405772 22.55216903 -47.48046875 22.91796875 C-45.81504276 23.25770615 -44.14628501 23.58220442 -42.47265625 23.87890625 C-37.450646 24.88714923 -34.83995252 26.40521419 -31.7421875 30.4765625 C-30.52751489 33.11651628 -29.63634239 35.69997625 -28.7421875 38.4765625 C-26.38873944 38.81579826 -24.0346391 39.14806784 -21.6796875 39.4765625 C-20.69452148 39.61964844 -20.69452148 39.61964844 -19.68945312 39.765625 C-15.34079987 40.36543924 -11.12889679 40.56783343 -6.7421875 40.4765625 C-6.40043833 35.8955175 -6.12746891 31.31290051 -5.8671875 26.7265625 C-5.76921875 25.42460937 -5.67125 24.12265625 -5.5703125 22.78125 C-5.38865462 19.25708711 -5.28600187 15.97659245 -5.7421875 12.4765625 C-8.25554692 9.4688904 -8.25554692 9.4688904 -11.7421875 8.4765625 C-12.46019531 8.20328125 -13.17820313 7.93 -13.91796875 7.6484375 C-25.57056755 5.34774158 -44.78257306 3.22792824 -53.7421875 12.4765625 Z M298.2578125 8.4765625 C297.17628906 8.8684375 296.09476562 9.2603125 294.98046875 9.6640625 C291.61494676 13.14064188 291.86766496 14.26953438 291.890625 18.9921875 C292.02361029 21.57210221 292.18897058 24.15050537 292.3828125 26.7265625 C292.45757812 28.04398437 292.53234375 29.36140625 292.609375 30.71875 C292.79808805 33.97405007 293.01523657 37.22490494 293.2578125 40.4765625 C295.79975411 40.33467265 298.34129243 40.18817095 300.8828125 40.0390625 C301.59566406 39.99974609 302.30851562 39.96042969 303.04296875 39.91992188 C307.17584932 39.67346569 311.18050274 39.24186197 315.2578125 38.4765625 C315.41636719 37.87328125 315.57492187 37.27 315.73828125 36.6484375 C317.24196149 31.4977096 318.3499477 28.20315406 323.2578125 25.4765625 C325.97131253 24.64871503 328.49065773 24.00998993 331.2578125 23.4765625 C332.16144531 23.2909375 333.06507813 23.1053125 333.99609375 22.9140625 C336.41429219 22.42152986 338.83453272 21.9433418 341.2578125 21.4765625 C341.57127932 17.47986058 341.66176309 15.14981349 339.5703125 11.6640625 C332.17857936 4.6718825 319.81083494 6.1240901 310.26074219 6.38330078 C306.14578846 6.57490394 302.11913808 7.00690178 298.2578125 8.4765625 Z M8.2578125 12.4765625 C5.90661851 16.00335349 6.04337798 17.50535735 6.1328125 21.6640625 C6.15085937 22.75074219 6.16890625 23.83742188 6.1875 24.95703125 C6.21070312 25.78847656 6.23390625 26.61992187 6.2578125 27.4765625 C6.978479 27.5266748 7.69914551 27.57678711 8.44165039 27.62841797 C11.73513281 27.86179561 15.02767379 28.10657994 18.3203125 28.3515625 C19.45404297 28.43019531 20.58777344 28.50882812 21.75585938 28.58984375 C35.89715727 29.66177887 35.89715727 29.66177887 40.18359375 32.95703125 C40.87001953 33.80201172 40.87001953 33.80201172 41.5703125 34.6640625 C42.04082031 35.21449219 42.51132813 35.76492188 42.99609375 36.33203125 C44.2578125 38.4765625 44.2578125 38.4765625 46.2578125 45.4765625 C51.5378125 45.8065625 56.8178125 46.1365625 62.2578125 46.4765625 C62.58532754 42.43635743 62.88663642 38.40640868 63.12451172 34.36108398 C63.21286957 32.98765346 63.31590171 31.61508281 63.43408203 30.24389648 C64.37537707 22.50245249 64.37537707 22.50245249 61.82421875 15.50537109 C59.66979218 14.02989233 57.75368963 13.23638883 55.2578125 12.4765625 C54.54351074 12.24203369 53.82920898 12.00750488 53.09326172 11.76586914 C45.78845421 9.88845073 38.11655947 10.17296815 30.62402344 10.21582031 C28.36626959 10.22664179 26.1092938 10.21581986 23.8515625 10.203125 C22.40624826 10.20444501 20.96093449 10.20700412 19.515625 10.2109375 C17.56873779 10.21432129 17.56873779 10.21432129 15.58251953 10.21777344 C12.46633303 10.46033165 10.78657571 10.70502462 8.2578125 12.4765625 Z M223.2578125 17.4765625 C222.52378918 20.65883126 222.52378918 20.65883126 222.890625 24.2109375 C222.95507812 25.50644531 223.01953125 26.80195313 223.0859375 28.13671875 C223.18423089 29.5000481 223.28319781 30.86332905 223.3828125 32.2265625 C223.46115418 33.60531136 223.53670678 34.98422173 223.609375 36.36328125 C223.79805988 39.73602347 224.02437832 43.10662176 224.2578125 46.4765625 C230.6928125 45.9815625 230.6928125 45.9815625 237.2578125 45.4765625 C237.6290625 44.0946875 238.0003125 42.7128125 238.3828125 41.2890625 C240.00730555 36.50583296 241.85395538 34.16780852 246.2578125 31.4765625 C249.22430959 30.44794952 252.15298685 29.91144036 255.2578125 29.4765625 C256.00804687 29.36570312 256.75828125 29.25484375 257.53125 29.140625 C265.0798594 28.21272285 272.66693818 28.38547201 280.2578125 28.4765625 C280.31204888 26.56021033 280.35071213 24.64341325 280.3828125 22.7265625 C280.40601563 21.65921875 280.42921875 20.591875 280.453125 19.4921875 C280.25798493 16.47922483 280.00274635 14.91288524 278.2578125 12.4765625 C273.13788137 9.05073752 266.43841934 10.14350421 260.51611328 10.16088867 C258.29277871 10.16401336 256.07082297 10.14070558 253.84765625 10.11523438 C243.18160705 10.0652074 231.75593106 10.17274494 223.2578125 17.4765625 Z M77.2578125 18.4765625 C75.39753875 21.48781455 75.01746293 23.72929632 75.0625 27.2421875 C75.06894531 28.13164062 75.07539063 29.02109375 75.08203125 29.9375 C75.09878906 30.85789062 75.11554688 31.77828125 75.1328125 32.7265625 C75.14183594 33.66242188 75.15085938 34.59828125 75.16015625 35.5625 C75.18367614 37.86744907 75.21654397 40.1718741 75.2578125 42.4765625 C76.63344104 41.18691074 77.96547643 39.84966957 79.2578125 38.4765625 C79.2578125 37.8165625 79.2578125 37.1565625 79.2578125 36.4765625 C87.38373794 33.1822684 94.61605343 33.30054401 103.2578125 33.4765625 C103.98983887 33.48913086 104.72186523 33.50169922 105.47607422 33.51464844 C107.61321268 33.5614715 109.74700395 33.63868981 111.8828125 33.7265625 C113.15382812 33.77296875 114.42484375 33.819375 115.734375 33.8671875 C120.54731188 34.69958013 123.69853926 36.8059126 127.0078125 40.3515625 C128.54038827 42.9569413 129.40347766 45.58496764 130.2578125 48.4765625 C132.2378125 48.4765625 134.2178125 48.4765625 136.2578125 48.4765625 C138.43271463 34.16957857 138.43271463 34.16957857 135.2578125 20.4765625 C130.20067263 15.01485144 120.25735193 15.03349033 113.2578125 14.4765625 C109.58976314 14.34433778 105.92790286 14.33635494 102.2578125 14.3515625 C101.32453125 14.34769531 100.39125 14.34382813 99.4296875 14.33984375 C87.65218333 13.94517089 87.65218333 13.94517089 77.2578125 18.4765625 Z M150.2578125 21.4765625 C148.82931665 25.26478883 149.11070222 29.29815656 149.1328125 33.2890625 C149.12894531 33.97548828 149.12507812 34.66191406 149.12109375 35.36914062 C149.12954403 39.83511607 149.53197684 44.06970314 150.2578125 48.4765625 C152.2378125 48.4765625 154.2178125 48.4765625 156.2578125 48.4765625 C156.48855469 47.87328125 156.71929687 47.27 156.95703125 46.6484375 C159.31851411 40.86140441 161.49606288 37.35743731 167.2578125 34.4765625 C175.23242265 33.60011281 183.30181376 33.35414752 191.3203125 33.2265625 C192.02164307 33.2052124 192.72297363 33.1838623 193.44555664 33.16186523 C198.14142527 33.1308787 201.27684434 34.00095306 205.2578125 36.4765625 C207.5078125 39.0390625 207.5078125 39.0390625 209.2578125 41.4765625 C209.9178125 42.1365625 210.5778125 42.7965625 211.2578125 43.4765625 C211.34527196 40.0808928 211.39835694 36.68551477 211.4453125 33.2890625 C211.47044922 32.32935547 211.49558594 31.36964844 211.52148438 30.38085938 C211.6786411 23.38823756 211.6786411 23.38823756 208.2578125 17.4765625 C195.85333064 10.22440988 160.39946163 11.33491337 150.2578125 21.4765625 Z M-54.7421875 34.4765625 C-54.4121875 36.1265625 -54.0821875 37.7765625 -53.7421875 39.4765625 C-53.4121875 38.8165625 -53.0821875 38.1565625 -52.7421875 37.4765625 C-50.42062153 37.06927022 -48.0853088 36.73217573 -45.7421875 36.4765625 C-45.7421875 36.1465625 -45.7421875 35.8165625 -45.7421875 35.4765625 C-48.7121875 35.1465625 -51.6821875 34.8165625 -54.7421875 34.4765625 Z M340.2578125 34.4765625 C337.6178125 34.8065625 334.9778125 35.1365625 332.2578125 35.4765625 C332.2578125 35.8065625 332.2578125 36.1365625 332.2578125 36.4765625 C336.65035023 38.03928439 336.65035023 38.03928439 341.2578125 38.4765625 C340.9278125 37.1565625 340.5978125 35.8365625 340.2578125 34.4765625 Z M10.2578125 40.4765625 C9.9278125 41.1365625 9.5978125 41.7965625 9.2578125 42.4765625 C11.2378125 43.4665625 13.2178125 44.4565625 15.2578125 45.4765625 C15.2578125 47.7865625 15.2578125 50.0965625 15.2578125 52.4765625 C13.2778125 53.4665625 11.2978125 54.4565625 9.2578125 55.4765625 C13.21276675 58.09193547 17.42608623 57.91920524 22.0078125 58.1015625 C22.80058594 58.14023437 23.59335938 58.17890625 24.41015625 58.21875 C26.35900666 58.3126705 28.30837701 58.39569072 30.2578125 58.4765625 C27.9448643 56.1636143 26.77876375 55.98075275 23.6328125 55.3515625 C22.40691406 55.10019531 22.40691406 55.10019531 21.15625 54.84375 C20.52976562 54.72257812 19.90328125 54.60140625 19.2578125 54.4765625 C17.83172554 49.24757699 17.83172554 49.24757699 19.5703125 46.1015625 C23.65033578 43.63457168 27.60610226 44.15697935 32.2578125 44.4765625 C32.2578125 43.8165625 32.2578125 43.1565625 32.2578125 42.4765625 C25.98855961 39.34193605 17.10904899 40.34536861 10.2578125 40.4765625 Z M251.2578125 43.4765625 C251.2578125 43.8065625 251.2578125 44.1365625 251.2578125 44.4765625 C252.72154297 44.40695312 252.72154297 44.40695312 254.21484375 44.3359375 C255.48714844 44.29984375 256.75945312 44.26375 258.0703125 44.2265625 C259.33488281 44.18015625 260.59945313 44.13375 261.90234375 44.0859375 C265.2578125 44.4765625 265.2578125 44.4765625 267.2265625 46.2890625 C268.64830326 49.30487623 268.04960386 51.30939704 267.2578125 54.4765625 C257.84778972 56.58817981 257.84778972 56.58817981 253.2578125 57.4765625 C253.2578125 57.8065625 253.2578125 58.1365625 253.2578125 58.4765625 C261.39325936 58.76201678 269.23430946 57.66053133 277.2578125 56.4765625 C276.2678125 55.8165625 275.2778125 55.1565625 274.2578125 54.4765625 C271.67430599 52.56285397 271.29912337 51.72442772 270.7578125 48.4765625 C270.9228125 47.4865625 271.0878125 46.4965625 271.2578125 45.4765625 C273.7578125 43.7265625 273.7578125 43.7265625 276.2578125 42.4765625 C276.2578125 41.8165625 276.2578125 41.1565625 276.2578125 40.4765625 C263.3226052 39.82430957 263.3226052 39.82430957 251.2578125 43.4765625 Z M88.2578125 47.4765625 C88.88429687 47.58613281 89.51078125 47.69570313 90.15625 47.80859375 C91.38214844 48.04642578 91.38214844 48.04642578 92.6328125 48.2890625 C93.85097656 48.51529297 93.85097656 48.51529297 95.09375 48.74609375 C97.2578125 49.4765625 97.2578125 49.4765625 99.2578125 52.4765625 C98.70225694 58.03211806 98.70225694 58.03211806 97.2578125 59.4765625 C95.74311802 59.70849115 94.22026688 59.88871488 92.6953125 60.0390625 C91.86902344 60.12285156 91.04273438 60.20664062 90.19140625 60.29296875 C89.55332031 60.35355469 88.91523438 60.41414063 88.2578125 60.4765625 C90.08672627 62.73271276 90.08672627 62.73271276 92.77978516 62.70361328 C93.8166748 62.69313965 94.85356445 62.68266602 95.921875 62.671875 C97.60410156 62.66220703 97.60410156 62.66220703 99.3203125 62.65234375 C100.4959375 62.63558594 101.6715625 62.61882812 102.8828125 62.6015625 C104.06617188 62.59253906 105.24953125 62.58351563 106.46875 62.57421875 C109.39863773 62.55059062 112.3281259 62.51764764 115.2578125 62.4765625 C115.2578125 62.1465625 115.2578125 61.8165625 115.2578125 61.4765625 C114.47535156 61.35539062 113.69289062 61.23421875 112.88671875 61.109375 C111.87480469 60.94179688 110.86289063 60.77421875 109.8203125 60.6015625 C108.30630859 60.35792969 108.30630859 60.35792969 106.76171875 60.109375 C105.93542969 59.90054688 105.10914063 59.69171875 104.2578125 59.4765625 C102.87656232 56.71406214 103.06701944 54.52925151 103.2578125 51.4765625 C105.84707581 48.88729919 107.28486529 49.10258207 110.8828125 48.8515625 C111.88570312 48.77679688 112.88859375 48.70203125 113.921875 48.625 C115.07816406 48.55152344 115.07816406 48.55152344 116.2578125 48.4765625 C115.9278125 47.8165625 115.5978125 47.1565625 115.2578125 46.4765625 C108.89935127 44.97879163 92.9940641 42.7403109 88.2578125 47.4765625 Z M171.2578125 46.4765625 C170.9278125 47.1365625 170.5978125 47.7965625 170.2578125 48.4765625 C171.14984375 48.51394531 172.041875 48.55132812 172.9609375 48.58984375 C174.13140625 48.65558594 175.301875 48.72132813 176.5078125 48.7890625 C178.24804688 48.87607422 178.24804688 48.87607422 180.0234375 48.96484375 C183.36600888 49.49368053 184.8075182 50.21428583 187.2578125 52.4765625 C187.7940625 51.8371875 188.3303125 51.1978125 188.8828125 50.5390625 C191.70148443 48.09126846 193.59641982 47.80941638 197.2578125 47.4765625 C196.9278125 46.8165625 196.5978125 46.1565625 196.2578125 45.4765625 C183.6777394 44.99212507 183.6777394 44.99212507 171.2578125 46.4765625 Z M338.2578125 46.4765625 C337.2678125 47.4665625 336.2778125 48.4565625 335.2578125 49.4765625 C336.5778125 49.1465625 337.8978125 48.8165625 339.2578125 48.4765625 C338.9278125 47.8165625 338.5978125 47.1565625 338.2578125 46.4765625 Z M-28.7421875 51.4765625 C-29.2990625 52.5696875 -29.8559375 53.6628125 -30.4296875 54.7890625 C-32.43596296 58.22541665 -33.9324681 59.98580273 -37.7421875 61.4765625 C-41.06904446 61.99271081 -44.38193235 62.28734425 -47.7421875 62.4765625 C-45.68363132 70.59315545 -41.87391878 78.72207498 -34.7421875 83.4765625 C-27.52868277 85.09338253 -22.25326012 83.95358434 -15.79296875 80.40625 C-9.66393778 76.39113644 -5.99412513 71.58982714 -4.3671875 64.4140625 C-3.62260244 60.52076605 -3.96503525 57.35669219 -4.7421875 53.4765625 C-7.80422424 53.13888078 -10.86688208 52.80719357 -13.9296875 52.4765625 C-14.79400391 52.38117188 -15.65832031 52.28578125 -16.54882812 52.1875 C-20.63011675 51.74966061 -24.63007252 51.34034337 -28.7421875 51.4765625 Z M300.4453125 52.4765625 C299.56166016 52.57195312 298.67800781 52.66734375 297.76757812 52.765625 C295.59738811 53.00024014 293.42749311 53.23728991 291.2578125 53.4765625 C291.05772939 54.88924757 290.87006025 56.30369378 290.6875 57.71875 C290.58163574 58.50620605 290.47577148 59.29366211 290.36669922 60.10498047 C290.09796817 65.95801491 293.28244001 71.34460372 296.7578125 75.875 C302.0035455 81.47591284 308.68440462 83.96742584 316.2578125 84.4765625 C321.38888218 83.60524878 323.96647357 81.44304788 327.2578125 77.4765625 C330.3003983 72.71043099 332.71672359 67.94042319 334.2578125 62.4765625 C333.60554688 62.45078125 332.95328125 62.425 332.28125 62.3984375 C326.56535189 62.02749426 322.66716921 61.45573807 318.2578125 57.4765625 C316.3828125 54.2265625 316.3828125 54.2265625 315.2578125 51.4765625 C310.27552304 51.31151771 305.38818792 51.93104008 300.4453125 52.4765625 Z M186.2578125 56.4765625 C185.2678125 57.9615625 185.2678125 57.9615625 184.2578125 59.4765625 C181.21875 60.20703125 181.21875 60.20703125 177.6328125 60.6640625 C176.44429688 60.82261719 175.25578125 60.98117187 174.03125 61.14453125 C172.65839844 61.30888672 172.65839844 61.30888672 171.2578125 61.4765625 C171.2578125 61.8065625 171.2578125 62.1365625 171.2578125 62.4765625 C175.38275401 62.53440958 179.50759194 62.57010657 183.6328125 62.6015625 C184.8084375 62.61832031 185.9840625 62.63507813 187.1953125 62.65234375 C188.31679688 62.65878906 189.43828125 62.66523438 190.59375 62.671875 C191.63063965 62.68234863 192.6675293 62.69282227 193.73583984 62.70361328 C196.42889873 62.73271276 196.42889873 62.73271276 198.2578125 60.4765625 C197.64292969 60.43917969 197.02804687 60.40179688 196.39453125 60.36328125 C195.58628906 60.29753906 194.77804687 60.23179687 193.9453125 60.1640625 C193.14480469 60.10605469 192.34429687 60.04804688 191.51953125 59.98828125 C188.89508916 59.39449556 187.94960578 58.51875956 186.2578125 56.4765625 Z M44.2578125 58.4765625 C44.01546875 59.01925781 43.773125 59.56195313 43.5234375 60.12109375 C40.13735884 67.34906934 40.13735884 67.34906934 36.2578125 69.4765625 C33.37516101 70.43744633 31.58118979 70.59327191 28.58984375 70.57421875 C27.69716797 70.57099609 26.80449219 70.56777344 25.88476562 70.56445312 C24.49161133 70.55188477 24.49161133 70.55188477 23.0703125 70.5390625 C21.65975586 70.53229492 21.65975586 70.53229492 20.22070312 70.52539062 C17.89967538 70.51360876 15.57877606 70.49715808 13.2578125 70.4765625 C14.3783537 78.32035091 19.2707082 85.34015016 25.5078125 90.1015625 C30.04307425 93.23996363 33.73852677 93.92896297 39.2578125 93.4765625 C48.55730841 90.07086476 54.30292548 83.88343241 59.2578125 75.4765625 C61.6971185 70.14147219 63.52351999 65.39652535 63.2578125 59.4765625 C56.91539255 58.32339524 50.69092546 58.38149187 44.2578125 58.4765625 Z M223.2578125 59.4765625 C223.59095138 69.47072904 227.68857161 77.96706766 234.2578125 85.4765625 C239.22521719 89.85143382 243.89785087 93.09618949 250.5703125 93.8515625 C257.88654933 93.10753842 261.92329741 90.25287755 266.5703125 84.6015625 C271.5618146 78.1784451 271.5618146 78.1784451 273.2578125 70.4765625 C272.56220215 70.49750977 271.8665918 70.51845703 271.14990234 70.54003906 C267.97768792 70.6235323 264.80570519 70.67532779 261.6328125 70.7265625 C259.99119141 70.77683594 259.99119141 70.77683594 258.31640625 70.828125 C251.95968472 70.90517617 248.06105497 70.80669762 243.2578125 66.4765625 C240.8885097 63.86215941 240.02842644 61.87009178 239.2578125 58.4765625 C233.80011439 58.36518091 228.64271891 58.55998269 223.2578125 59.4765625 Z M129.2578125 61.4765625 C128.8659375 62.7140625 128.4740625 63.9515625 128.0703125 65.2265625 C126.58831919 69.19493321 124.91432066 71.1912449 121.2578125 73.4765625 C116.19885528 75.16288157 110.8961734 74.70182502 105.59863281 74.71679688 C103.528882 74.72646409 101.46014129 74.7574819 99.390625 74.7890625 C97.41449219 74.79679687 97.41449219 74.79679687 95.3984375 74.8046875 C94.19735352 74.8140332 92.99626953 74.82337891 91.75878906 74.83300781 C87.62633774 74.41227009 84.99476148 73.25439993 81.2578125 71.4765625 C80.2678125 71.1465625 79.2778125 70.8165625 78.2578125 70.4765625 C79.33845614 79.68974229 84.47149736 88.85551866 91.38671875 95.046875 C97.75973914 99.91644799 104.03804788 103.15270443 112.2578125 102.4765625 C120.53454513 100.0022246 125.61488126 93.81293013 129.83203125 86.56640625 C133.38527175 78.86609602 135.60017969 69.95673453 135.2578125 61.4765625 C133.2778125 61.4765625 131.2978125 61.4765625 129.2578125 61.4765625 Z M151.2578125 61.4765625 C150.82039186 74.58235783 155.35339065 86.32910447 163.6328125 96.3515625 C168.50373878 100.2946933 172.69410611 102.88458256 179.1328125 102.6015625 C187.9892735 101.21604253 194.79451451 95.86094482 200.42578125 89.1171875 C206.29923371 80.73633475 206.29923371 80.73633475 207.91015625 71.08984375 C207.69488281 70.55746094 207.47960937 70.02507812 207.2578125 69.4765625 C206.5153125 70.1159375 205.7728125 70.7553125 205.0078125 71.4140625 C199.18139695 75.78387416 192.03666028 74.73259763 185.04101562 74.77172852 C183.60569405 74.78325655 182.17041563 74.80372187 180.73535156 74.83325195 C178.65139927 74.87608928 176.56871377 74.89211611 174.484375 74.90234375 C172.62159912 74.92421753 172.62159912 74.92421753 170.72119141 74.9465332 C165.86189549 74.28714052 162.76463735 72.14483287 159.5078125 68.5390625 C158.12733892 66.2612811 157.16139202 63.9787827 156.2578125 61.4765625 C154.6078125 61.4765625 152.9578125 61.4765625 151.2578125 61.4765625 Z " fill="#000000" transform="translate(112.7421875,299.5234375)"/>
</svg>
