<?xml version="1.0" encoding="UTF-8"?>
<svg version="1.1" xmlns="http://www.w3.org/2000/svg" width="512" height="512">
<path d="M0 0 C5.16567573 3.63471941 8.21539579 7.52424805 9.625 13.75 C10.39629721 20.70336125 9.76532383 26.03143392 5.625 31.75 C2.5714372 35.34664612 -0.62600862 38.77759981 -3.88720703 42.18554688 C-6.25323253 44.67348442 -8.56151921 47.21331778 -10.875 49.75 C-11.78760735 50.74363019 -12.70036828 51.73711934 -13.61328125 52.73046875 C-15.49767294 54.7850117 -17.36806493 56.85129326 -19.23046875 58.92578125 C-34.99172644 76.42807666 -34.99172644 76.42807666 -42.7265625 76.890625 C-49.51372878 77.01075184 -49.51372878 77.01075184 -52.9296875 75.9765625 C-55.49748947 75.45233588 -55.49748947 75.45233588 -57.4453125 77.41796875 C-58.12335938 78.24941406 -58.80140625 79.08085938 -59.5 79.9375 C-60.26957031 80.85273437 -61.03914063 81.76796875 -61.83203125 82.7109375 C-63.09080078 84.21527344 -63.09080078 84.21527344 -64.375 85.75 C-66.29000471 87.87514799 -68.23829868 89.96873127 -70.1875 92.0625 C-73.39470456 95.5288726 -76.46684765 99.02837846 -79.375 102.75 C-78.82263672 102.78963867 -78.27027344 102.82927734 -77.70117188 102.87011719 C-48.94511695 105.0262257 -25.06373488 112.42194319 -5.375 134.75 C14.8870204 161.29206181 17.74623092 196.46278382 13.94140625 228.6171875 C13.10064682 234.38913747 11.95804538 240.07289046 10.625 245.75 C10.30354004 247.12188477 10.30354004 247.12188477 9.97558594 248.52148438 C2.49376188 279.47249453 -10.10246964 308.63544626 -24.99362183 336.68743896 C-36.13119157 357.589956 -36.13119157 357.589956 -44.375 379.75 C-44.63087891 380.60819336 -44.88675781 381.46638672 -45.15039062 382.35058594 C-48.66678865 394.46975335 -51.40419564 406.74680221 -54.015625 419.0859375 C-54.25017395 420.19064392 -54.4847229 421.29535034 -54.72637939 422.43353271 C-55.90531435 427.99806961 -57.06812578 433.56520509 -58.20410156 439.13867188 C-68.61618904 489.43162603 -68.61618904 489.43162603 -85.3125 500.5625 C-93.39965259 505.20993741 -102.06922683 506.12471438 -111.0625 503.75 C-118.00376449 501.10570877 -121.77565433 495.37617785 -125 488.9375 C-133.62673344 468.17677099 -135.30880439 445.27573744 -137.81640625 423.16015625 C-137.94442123 422.03470901 -138.07243622 420.90926178 -138.20433044 419.74971008 C-138.84703652 414.08585808 -139.47961982 408.42120017 -140.09350586 402.75415039 C-142.22128457 368.99196063 -142.22128457 368.99196063 -156.375 339.75 C-159.96165782 338.92812808 -159.96165782 338.92812808 -163.375 340.75 C-177.26711761 357.31065998 -176.50241358 389.93178234 -178.81640625 410.33984375 C-179.00842873 412.0280146 -179.00842873 412.0280146 -179.20433044 413.75028992 C-179.84703652 419.41414192 -180.47961982 425.07879983 -181.09350586 430.74584961 C-187.4230401 488.22486322 -187.4230401 488.22486322 -201.89453125 500.96875 C-207.70207688 505.13920796 -214.47000722 505.41720022 -221.375 504.75 C-230.19134547 503.01300478 -236.65867563 498.38347925 -242 491.25 C-254.87338132 471.61809349 -258.26846029 446.72823746 -262.99462891 424.20068359 C-269.2510502 394.4796015 -276.55706771 366.6941823 -291.31054688 340.0144043 C-319.53968427 288.90391058 -344.27230365 225.70517916 -328.61230469 166.78833008 C-322.59983018 145.96062232 -309.50029627 126.42617637 -290.41503906 115.64257812 C-263.96520334 101.59775291 -232.60813202 99.65550101 -204.0625 108.33203125 C-195.7708155 110.95728214 -187.58438099 113.73892036 -179.82421875 117.70703125 C-166.03937301 123.57713302 -149.04343357 122.08571298 -135.375 116.75 C-132.67772124 115.56489036 -130.01756326 114.32089191 -127.359375 113.05078125 C-119.73020285 109.72550072 -111.32498129 106.76487773 -103 106.1875 C-101.205625 105.9709375 -101.205625 105.9709375 -99.375 105.75 C-98.25300437 103.90606536 -98.25300437 103.90606536 -97.375 101.75 C-96.54096183 100.64826835 -95.66621973 99.57641924 -94.7578125 98.53515625 C-94.23912598 97.93775635 -93.72043945 97.34035645 -93.18603516 96.72485352 C-92.62964355 96.09377686 -92.07325195 95.4627002 -91.5 94.8125 C-90.92427246 94.1537085 -90.34854492 93.49491699 -89.75537109 92.81616211 C-85.8987908 88.42362361 -81.97113808 84.10143082 -78 79.8125 C-77.50693359 79.27399414 -77.01386719 78.73548828 -76.50585938 78.18066406 C-74.39670354 75.88456681 -72.27140481 73.65253873 -70 71.515625 C-68.08396317 69.64449529 -66.59382334 68.13506999 -65.375 65.75 C-65.48466859 63.10479363 -66.06540714 60.86472287 -66.78515625 58.3203125 C-67.8223044 53.80081924 -67.10412715 50.0098803 -65.375 45.75 C-61.67802249 40.00201865 -56.95299049 35.16735016 -52.0625 30.4296875 C-50.38961796 28.76455029 -48.849589 27.04070868 -47.3125 25.25 C-43.72627612 21.09194088 -39.99611625 17.07595339 -36.25 13.0625 C-35.65179443 12.42054687 -35.05358887 11.77859375 -34.43725586 11.1171875 C-24.87018617 0.88963251 -14.2217918 -8.46915692 0 0 Z M-18.375 12.75 C-21.05478718 15.24542136 -21.05478718 15.24542136 -23.5625 18.1875 C-24.52186998 19.26716301 -25.48151329 20.34658318 -26.44140625 21.42578125 C-27.1686792 22.25263428 -27.1686792 22.25263428 -27.91064453 23.09619141 C-30.23674757 25.72323741 -32.62072859 28.29619843 -35 30.875 C-38.44903501 34.63535515 -41.88824151 38.40456304 -45.3125 42.1875 C-46.00214844 42.94933594 -46.69179688 43.71117187 -47.40234375 44.49609375 C-52.50122287 49.87870515 -52.50122287 49.87870515 -54.375 56.75 C-52.75344371 60.23634601 -51.61046708 61.59302194 -48.375 63.75 C-44.83413974 64.21185134 -43.00278675 64.13633031 -39.9375 62.25 C-37.30184625 59.67863048 -34.90365446 57.00367626 -32.51171875 54.20703125 C-29.94003405 51.24982892 -27.28897574 48.37392129 -24.625 45.5 C-24.11445068 44.94763672 -23.60390137 44.39527344 -23.07788086 43.82617188 C-20.49168103 41.02940631 -17.89854033 38.23941405 -15.296875 35.45703125 C-14.32284982 34.40891628 -13.34888885 33.36074164 -12.375 32.3125 C-11.50875 31.38566406 -10.6425 30.45882812 -9.75 29.50390625 C-4.79216859 24.00470053 -4.79216859 24.00470053 -3.4375 17.0625 C-4.48136946 13.18806694 -4.48136946 13.18806694 -7.375 10.75 C-11.95386729 9.01745562 -14.28245877 10.35424257 -18.375 12.75 Z M-299.375 139.75 C-318.02829094 163.15988013 -322.76666801 191.85324849 -319.60327148 220.99072266 C-314.19457201 265.14993179 -295.1444948 305.93003807 -274.12255859 344.63110352 C-259.19290887 372.23196475 -253.84573866 403.44148665 -247.37011719 433.84594727 C-242.18248421 464.47425215 -242.18248421 464.47425215 -225.4609375 489.234375 C-221.10190011 491.76991069 -217.41475377 492.08846485 -212.453125 491.59765625 C-208.66437721 490.05224597 -206.80169996 486.57769781 -204.98071289 483.04541016 C-202.11687294 476.14342138 -200.13152687 469.474451 -198.8125 462.125 C-198.60761963 461.02091797 -198.40273926 459.91683594 -198.19165039 458.77929688 C-195.53928884 443.86761113 -194.00825923 428.79961433 -192.375 413.75 C-185.19742623 347.61247869 -185.19742623 347.61247869 -173.375 332.75 C-173.375 332.09 -173.375 331.43 -173.375 330.75 C-166.50211506 327.18628188 -161.13014375 326.04082756 -153.375 326.75 C-146.9990848 328.79510488 -143.43665356 333.35072598 -140.0625 338.9140625 C-129.25319494 360.19488183 -128.56338915 386.97196135 -125.96875 410.29296875 C-125.84310165 411.41300797 -125.71745331 412.53304718 -125.58799744 413.68702698 C-124.95836597 419.30102264 -124.33955366 424.91569038 -123.74438477 430.53344727 C-121.85273611 462.39717873 -121.85273611 462.39717873 -108.5 490 C-104.6388117 492.16226545 -102.74632677 492.42830933 -98.375 491.75 C-90.43345059 489.26730203 -86.79462466 484.14813812 -82.91796875 477.1015625 C-75.2591719 461.05648415 -72.44353994 442.7475329 -68.6953125 425.48046875 C-68.45864365 424.39297333 -68.22197479 423.30547791 -67.97813416 422.18502808 C-66.79021297 416.71976385 -65.6137483 411.25248706 -64.45825195 405.78027344 C-61.76720017 393.1785113 -58.55008166 380.94213554 -54.375 368.75 C-54.1323642 368.03554214 -53.88972839 367.32108429 -53.63973999 366.5849762 C-49.40648112 354.1740461 -43.41728602 342.97160372 -37.13964844 331.49072266 C-11.5020289 284.42634362 13.68129799 224.50753983 -2.1875 170.30859375 C-8.97753904 149.96081227 -20.2425292 134.85813775 -39.375 124.75 C-52.26037919 118.61789742 -65.43990657 116.51783743 -79.5625 116.375 C-80.90828125 116.35409302 -80.90828125 116.35409302 -82.28125 116.33276367 C-87.13164263 116.36818479 -90.53788811 116.4960761 -94.375 119.75 C-96.51372368 122.00081136 -98.45170083 124.37645802 -100.375 126.8125 C-100.93968994 127.51858398 -101.50437988 128.22466797 -102.08618164 128.95214844 C-107.85680287 136.23680792 -113.3064336 143.74439879 -118.66748047 151.33349609 C-120.4812295 153.90033737 -122.30518559 156.45976723 -124.12890625 159.01953125 C-125.37834428 160.78333012 -126.62705889 162.5476417 -127.875 164.3125 C-128.45048584 165.12106445 -129.02597168 165.92962891 -129.61889648 166.76269531 C-133.23901525 171.91560926 -136.43220794 177.18244335 -139.375 182.75 C-138.158125 182.481875 -136.94125 182.21375 -135.6875 181.9375 C-134.86636719 181.75703125 -134.04523438 181.5765625 -133.19921875 181.390625 C-131.21816005 180.94125622 -129.24185922 180.47063447 -127.26953125 179.984375 C-120.29140743 178.28361364 -113.55120413 177.10438045 -106.375 176.75 C-105.6634375 176.70875 -104.951875 176.6675 -104.21875 176.625 C-88.49749592 176.15570883 -73.33326659 179.7875752 -60.375 188.75 C-59.73820312 189.18957031 -59.10140625 189.62914062 -58.4453125 190.08203125 C-46.22494022 199.50529609 -40.61212842 216.84184335 -38.60205078 231.57177734 C-35.28933428 263.35248343 -46.39880027 294.0490504 -58.96484375 322.73046875 C-71.00355703 350.21627002 -74.52474383 378.67708581 -78.33314514 408.15969849 C-78.76053804 411.45689088 -79.19395383 414.75328269 -79.62741089 418.04968262 C-79.92666899 420.35409664 -80.2140795 422.65974962 -80.50024414 424.96582031 C-84.2629735 454.43122854 -84.2629735 454.43122854 -91.375 461.75 C-95.12965973 464.01184321 -97.9963565 464.20296312 -102.375 463.75 C-107.70481787 461.34635665 -109.3091173 458.38192746 -111.47851562 453.26568604 C-112.91049189 449.24731963 -113.51261432 445.2445333 -114.03125 441.0234375 C-114.21137634 439.66392471 -114.21137634 439.66392471 -114.3951416 438.27694702 C-115.53917551 429.24427572 -116.17262388 420.18676611 -116.71139526 411.10101318 C-119.10575411 357.16026604 -119.10575411 357.16026604 -145.375 311.75 C-150.12866693 307.8749291 -155.09835444 305.17156404 -161.375 305.75 C-170.215392 308.1658966 -177.99901171 316.05592378 -182.6875 323.625 C-183.61319979 325.31733567 -184.50922047 327.02624075 -185.375 328.75 C-185.81457031 329.61496094 -186.25414062 330.47992188 -186.70703125 331.37109375 C-199.18070605 357.33593344 -199.59466135 387.21038423 -201.72949219 415.43408203 C-202.02027492 419.26765487 -202.32532169 423.09989924 -202.63815308 426.93173218 C-202.80673848 429.05252059 -202.95851115 431.17404981 -203.10961914 433.29614258 C-204.84836749 454.64199742 -204.84836749 454.64199742 -211 461 C-214.97764218 463.93089424 -217.41258906 464.08643464 -222.375 463.75 C-226.99072204 461.81783728 -228.8342853 458.96524824 -231.375 454.75 C-235.33658578 444.08823222 -236.58501696 432.62977717 -238.01199341 421.41314697 C-238.38306206 418.49918965 -238.76690383 415.58715493 -239.15405273 412.67529297 C-239.78903983 407.89110497 -240.41591712 403.1059072 -241.03973389 398.32025146 C-244.11408398 374.75135347 -247.27746197 351.84402094 -256.375 329.75 C-270.88896301 294.19666456 -270.88896301 294.19666456 -275.375 277.75 C-275.59655762 276.94546387 -275.81811523 276.14092773 -276.04638672 275.31201172 C-282.78613044 249.8249349 -281.61742022 223.4662772 -268.38769531 200.41503906 C-261.37035302 188.87736441 -249.59643879 182.74959288 -236.92578125 179.03125 C-216.22585226 174.11817785 -196.54428909 177.93042755 -176.61645508 184.11743164 C-170.0042179 185.9834927 -163.17363665 187.12676599 -156.375 185.75 C-153.04856353 183.03446479 -151.34130337 179.70967482 -149.375 175.9375 C-148.20112756 173.90179092 -147.02398115 171.86796663 -145.84375 169.8359375 C-145.26625 168.80952148 -144.68875 167.78310547 -144.09375 166.72558594 C-141.56778159 162.35250313 -138.75561993 158.20745052 -135.875 154.0625 C-135.35389648 153.30348389 -134.83279297 152.54446777 -134.29589844 151.76245117 C-129.6178927 144.99138922 -124.73359441 138.37299949 -119.77929688 131.80200195 C-119.21791016 131.05265381 -118.65652344 130.30330566 -118.078125 129.53125 C-117.57958008 128.87189453 -117.08103516 128.21253906 -116.56738281 127.53320312 C-115.19509691 125.65105257 -115.19509691 125.65105257 -114.375 122.75 C-119.31730744 124.31072867 -124.12283752 126.03010504 -128.91625977 128.0065918 C-139.56463062 132.3877799 -148.86845609 134.07419062 -160.375 134.75 C-155.84349158 139.83078217 -151.36517666 141.75327445 -145 143.875 C-142.375 144.75 -142.375 144.75 -141.375 145.75 C-141.125 149.1875 -141.125 149.1875 -141.375 152.75 C-145.23610703 155.32407136 -147.16630348 154.92109258 -151.6328125 154.33203125 C-160.06384239 152.54253915 -165.34159255 148.1155901 -171.20336914 141.98217773 C-187.91222116 124.59455603 -212.94987396 117.06873633 -236.59423828 116.46679688 C-259.44760681 116.20861534 -283.39666761 122.35330115 -299.375 139.75 Z M-255.92578125 203.703125 C-267.57618276 220.15813953 -269.65680433 240.48644148 -266.64453125 259.97265625 C-263.07076936 280.11445511 -255.59180273 299.14652064 -247.8125 317.98046875 C-234.56749961 350.12508481 -230.38720466 383.44037543 -226.375 417.75 C-226.045 417.75 -225.715 417.75 -225.375 417.75 C-225.36041748 416.66920166 -225.34583496 415.58840332 -225.33081055 414.47485352 C-224.21641629 337.82465409 -203.22134436 267.92171811 -165.19433594 201.30273438 C-164.29721898 199.89520395 -164.29721898 199.89520395 -164.375 198.75 C-165.66792969 198.50765625 -166.96085937 198.2653125 -168.29296875 198.015625 C-184.08621495 194.99216375 -184.08621495 194.99216375 -191.25 192.625 C-211.48610094 186.01835522 -240.61271588 186.26860221 -255.92578125 203.703125 Z M-139.00292969 196.10546875 C-141.375 196.75 -141.375 196.75 -143.50488281 196.92578125 C-145.89291977 197.16330418 -147.29871503 197.51560881 -149.375 198.75 C-152.59209994 202.77989101 -154.95323267 207.22157063 -157.375 211.75 C-158.04903573 212.96129763 -158.72546406 214.17126702 -159.40429688 215.37988281 C-161.52733566 219.18563814 -163.5848805 223.02426716 -165.625 226.875 C-165.99183899 227.56664246 -166.35867798 228.25828491 -166.7366333 228.97088623 C-200.03311981 291.96224459 -214.13084289 355.94350456 -217.375 426.75 C-222.125 427.875 -222.125 427.875 -224.375 426.75 C-223.95307197 434.27195827 -223.10454801 441.67145923 -220.375 448.75 C-219.715 449.08 -219.055 449.41 -218.375 449.75 C-216.80109693 444.71720864 -215.86966688 439.84165429 -215.3359375 434.58984375 C-215.21211197 433.42460426 -215.21211197 433.42460426 -215.08578491 432.23582458 C-214.22602256 423.83386783 -213.70216621 415.41169885 -213.17144775 406.98391724 C-208.07206232 327.52772238 -208.07206232 327.52772238 -182.3125 303.6875 C-173.26174181 296.3925889 -163.90501158 294.7981339 -152.53710938 295.47167969 C-143.65279163 296.61532493 -135.43386119 302.91763368 -129.99609375 309.73046875 C-109.65824999 339.60053982 -107.23661384 373.79982902 -104.59375 408.95703125 C-104.49538597 410.26136108 -104.49538597 410.26136108 -104.39503479 411.59204102 C-104.07383998 415.873646 -103.76146055 420.15560253 -103.46459961 424.43896484 C-102.87999407 432.65408811 -102.14584876 440.68453803 -100.375 448.75 C-99.385 448.75 -98.395 448.75 -97.375 448.75 C-93.26738539 431.39236704 -91.15259161 413.83395488 -88.95043945 396.15161133 C-85.1007483 365.42155292 -78.72577991 338.18983865 -67.00198364 309.6227417 C-54.71567568 279.67181165 -43.33448111 247.21390998 -55.6875 215.375 C-60.65138758 204.26534685 -67.79743453 197.48016332 -78.90625 192.609375 C-99.20371042 185.54380333 -119.1014903 189.81998886 -139.00292969 196.10546875 Z M-225.375 419.75 C-225.375 421.73 -225.375 423.71 -225.375 425.75 C-225.045 425.75 -224.715 425.75 -224.375 425.75 C-224.375 423.77 -224.375 421.79 -224.375 419.75 C-224.705 419.75 -225.035 419.75 -225.375 419.75 Z " fill="#000000" transform="translate(415.375,3.25)"/>
</svg>
